<svg class="animated" id="freepik_stories-cherry-pie-slice" xmlns="http://www.w3.org/2000/svg" viewBox="0 0 500 500" version="1.1" xmlns:xlink="http://www.w3.org/1999/xlink" xmlns:svgjs="http://svgjs.com/svgjs"><style>svg#freepik_stories-cherry-pie-slice:not(.animated) .animable {opacity: 0;}svg#freepik_stories-cherry-pie-slice.animated #freepik--Floor--inject-28 {animation: 1s 1 forwards cubic-bezier(.36,-0.01,.5,1.38) slideUp;animation-delay: 0s;}svg#freepik_stories-cherry-pie-slice.animated #freepik--Shadows--inject-28 {animation: 1s 1 forwards cubic-bezier(.36,-0.01,.5,1.38) zoomOut;animation-delay: 0s;}svg#freepik_stories-cherry-pie-slice.animated #freepik--pie-slice--inject-28 {animation: 1s 1 forwards cubic-bezier(.36,-0.01,.5,1.38) slideLeft;animation-delay: 0s;}svg#freepik_stories-cherry-pie-slice.animated #freepik--Fork--inject-28 {animation: 1s 1 forwards cubic-bezier(.36,-0.01,.5,1.38) slideRight;animation-delay: 0s;}svg#freepik_stories-cherry-pie-slice.animated #freepik--Cherries--inject-28 {animation: 1s 1 forwards cubic-bezier(.36,-0.01,.5,1.38) slideDown;animation-delay: 0s;}svg#freepik_stories-cherry-pie-slice.animated #freepik--Sparkles--inject-28 {animation: 1s 1 forwards cubic-bezier(.36,-0.01,.5,1.38) slideLeft;animation-delay: 0s;}            @keyframes slideUp {                0% {                    opacity: 0;                    transform: translateY(30px);                }                100% {                    opacity: 1;                    transform: inherit;                }            }                    @keyframes zoomOut {                0% {                    opacity: 0;                    transform: scale(1.5);                }                100% {                    opacity: 1;                    transform: scale(1);                }            }                    @keyframes slideLeft {                0% {                    opacity: 0;                    transform: translateX(-30px);                }                100% {                    opacity: 1;                    transform: translateX(0);                }            }                    @keyframes slideRight {                0% {                    opacity: 0;                    transform: translateX(30px);                }                100% {                    opacity: 1;                    transform: translateX(0);                }            }                    @keyframes slideDown {                0% {                    opacity: 0;                    transform: translateY(-30px);                }                100% {                    opacity: 1;                    transform: translateY(0);                }            }        </style><g id="freepik--Floor--inject-28" class="animable" style="transform-origin: 252.128px 342.467px;"><path id="freepik--floor--inject-28" d="M81.44,243.92c-94.27,54.42-94.27,142.66,0,197.09s247.12,54.43,341.38,0,94.27-142.67,0-197.09S175.71,189.49,81.44,243.92Z" style="fill: rgb(250, 250, 250); transform-origin: 252.128px 342.467px;" class="animable"></path></g><g id="freepik--Shadows--inject-28" class="animable" style="transform-origin: 254.485px 329.095px;"><g id="freepik--Shadow--inject-28"><path d="M114.11,248.05c-77.53,44.76-77.52,117.33,0,162.09s203.23,44.76,280.75,0,77.53-117.33,0-162.09S191.63,203.29,114.11,248.05Z" style="opacity: 0.15; transform-origin: 254.485px 329.095px;" class="animable"></path></g></g><g id="freepik--pie-slice--inject-28" class="animable" style="transform-origin: 254.455px 283.403px;"><g id="freepik--pie-slice--inject-28" class="animable" style="transform-origin: 254.455px 283.403px;"><g id="freepik--Plate--inject-28" class="animable" style="transform-origin: 254.455px 312.035px;"><path d="M118.74,237.57c75-43.28,196.51-43.28,271.48,0h0v-7.8c39.2,22.63,57.86,52.62,56.07,82.27,1.79,29.65-16.87,59.63-56.06,82.26-75,43.28-196.51,43.28-271.48,0S43.78,280.85,118.74,237.57Z" style="fill: rgb(255, 193, 0); transform-origin: 254.464px 315.935px;" id="els2wlcvm3jql" class="animable"></path><g id="eljsitadyl0t"><path d="M118.74,237.57c75-43.28,196.51-43.28,271.48,0h0v-7.8c39.2,22.63,57.86,52.62,56.07,82.27,1.79,29.65-16.87,59.63-56.06,82.26-75,43.28-196.51,43.28-271.48,0S43.78,280.85,118.74,237.57Z" style="fill: rgb(255, 255, 255); opacity: 0.3; transform-origin: 254.464px 315.935px;" class="animable"></path></g><path d="M118.68,230c-75,43.28-75,113.45,0,156.73s196.51,43.28,271.48,0,75-113.45,0-156.73S193.65,186.68,118.68,230Z" style="fill: rgb(250, 250, 250); transform-origin: 254.414px 308.357px;" id="elwix8pfrnx7" class="animable"></path><path d="M254.47,198.4h0c51.1,0,99.12,11.48,135.21,32.31,35.9,20.73,55.68,48.23,55.68,77.43s-19.77,56.69-55.68,77.42c-36.09,20.84-84.11,32.32-135.2,32.32s-99.09-11.48-135.19-32.31c-35.9-20.73-55.68-48.23-55.68-77.43s19.77-56.69,55.68-77.42c36.09-20.84,84.1-32.32,135.18-32.32m0-1.09c-49.13,0-98.25,10.82-135.74,32.46-75,43.29-75,113.46,0,156.74C156.23,408.15,205.36,419,254.48,419s98.26-10.82,135.75-32.46c75-43.28,75-113.46,0-156.74-37.48-21.64-86.61-32.46-135.74-32.46Z" style="fill: rgb(235, 235, 235); transform-origin: 254.48px 308.155px;" id="elaet9p91aafl" class="animable"></path><path d="M346.52,259.08c51.53,29.75,51.53,78,0,107.72s-135,29.74-186.57,0-51.52-78,0-107.71S295,229.34,346.52,259.08Z" style="fill: rgb(255, 193, 0); transform-origin: 253.229px 312.944px;" id="el6ng4pjq0bll" class="animable"></path><g id="elm3o4uj5oh"><path d="M346.52,259.08c51.53,29.75,51.53,78,0,107.72s-135,29.74-186.57,0-51.52-78,0-107.71S295,229.34,346.52,259.08Z" style="fill: rgb(255, 255, 255); opacity: 0.5; transform-origin: 253.229px 312.944px;" class="animable"></path></g><path d="M340.18,264.59c48,26.7,48,70,0,96.7s-125.85,26.71-173.87,0-48-70,0-96.7S292.16,237.88,340.18,264.59Z" style="fill: rgb(250, 250, 250); transform-origin: 253.241px 312.94px;" id="el03ssw6y0rejw" class="animable"></path></g><g id="freepik--shadow--inject-28"><path d="M124.69,342.64c-14.83,9.25-22.87,23.34-1.66,21.65,48.08-3.84,239.25-20.45,282.45-24.05,12.79-1.07,14.11-9.13,6.64-28.19S367,235.83,315,228.43C315,228.43,138.53,334,124.69,342.64Z" style="opacity: 0.15; transform-origin: 263.4px 296.43px;" class="animable"></path></g><g id="freepik--Slice--inject-28" class="animable" style="transform-origin: 250.076px 250.292px;"><path d="M378.9,313c-.39-.28,0-3.9,0-4.36V296.89c0-5.06,0-10.15.26-15.17.32-5.25-.68-10.47,0-15.77.34-2.69,1-5.34,1.09-8.05.24-5.12-.83-10-1.09-15.13-.32-6.34,1.45-13.31,8.34-14.24,3.47-.47,3.72,1.72,3.74,2a89.63,89.63,0,0,0-.48-12.7c-.91-6.05-5.07-12-9.72-15.72-3.23-2.61-6.76-5-9.16-8.37-2.27-3.19-3.4-7.11-5.83-10.19-6.72-8.53-20.69-7.78-28-15.8-1.89-2.07-3.21-4.61-4.95-6.82-4.13-5.23-10.52-8.35-17.08-9.54-3.75-.69-7.59-.8-11.32-1.63-7-1.56-11.13-7.73-18.27-9.07-6.34-1.18-13.43-1.17-18.06,3.79-7.85,8.41-5.81,21.88-5.81,32.5V229.2Z" style="fill: rgb(255, 189, 167); transform-origin: 326.805px 226.523px;" id="elg1dtyse0dls" class="animable"></path><g id="elmvw3gv8kde8"><path d="M278.7,142.71c-1.11.14-7.64,2.08-6,3.92a2.59,2.59,0,0,0,1.13.61l.26.08c4.51,1.38,9.46,1.14,13.83,2.93,2.62,1.07,5.35,3.49,8.22,3.74,3.86.34,1.41-4.17,0-5.63C291.9,143.8,284.83,141.92,278.7,142.71Zm83.45,39.85c-5.57-4.56-11.85-6-18.36-8.54a24.41,24.41,0,0,1-6.32-3.59c-3.73-2.94-6.53-6.9-10.09-10a30.1,30.1,0,0,0-13-6.61c-1.68-.39-12.68-2.51-11.35,2,.29,1,1.43,1.44,2.43,1.7,4.28,1.06,8.91,1.08,12.78,3.18,4.63,2.51,7.28,7.46,10.91,11.27a27.24,27.24,0,0,0,10.52,6.82c4.12,1.48,8.55,1.94,12.69,3.37,2.8,1,5.56,2.2,8.42,3S364.52,184.5,362.15,182.56Zm12.77,19.26c-5.9-.56,1.29,6.45,2.42,8.22,2.22,3.5,2.9,7.77,4.78,11.48.66,1.31,1.84,2.71,3.28,2.45a3.16,3.16,0,0,0,2.05-1.91C391.05,214.79,382.64,202.56,374.92,201.82Z" style="fill: rgb(255, 255, 255); opacity: 0.2; transform-origin: 330.373px 183.268px;" class="animable"></path></g><g id="elid133zj0w"><path d="M375.75,218.54a39.21,39.21,0,0,0-4.27-6c-2.56-3-5.56-5.59-8-8.67-3.7-4.65-6.13-10.35-10.57-14.29-5.09-4.51-12.08-6.09-18-9.42-5.7-3.19-10.31-7.89-15.56-11.72-5.52-4-11.18-5.33-17.62-7.12-4.59-1.27-9.91-1.92-13.72-4.82-3.6-2.74-7.64-5.12-12.22-5.75-6.56-.91-10.56,2.7-13.12,7.69-.71,6.2-.12,12.84-.12,18.62V229.2L378.9,313c-.39-.28,0-3.9,0-4.36V296.89c0-5.06,0-10.15.26-15.17.32-5.25-.68-10.47,0-15.77.34-2.69,1-5.34,1.09-8.05.24-5.12-.83-10-1.09-15.13a26.3,26.3,0,0,1,1-8.45c.67-2.54,0-4.85-.78-7.42A40.06,40.06,0,0,0,375.75,218.54Z" style="opacity: 0.1; transform-origin: 321.377px 231.805px;" class="animable"></path></g><path d="M391.24,230.58V314.2a10.94,10.94,0,0,1-9.48,10.85L120.23,360.49a5.19,5.19,0,0,1-5.89-5.15V343.11a5,5,0,0,0,5.68,5l248.21-33.64c3.62-.5,8.12-1.91,9.52-5.68a14.23,14.23,0,0,0,.67-4.46l.54-11.7a182.17,182.17,0,0,0,.18-20.1,85.9,85.9,0,0,1-.48-11.33c.24-3.64,1.34-7.13,1-10.79-.33-3.94-1.11-8.1-.79-12,.45-5.5,3.81-9.17,8.59-9.81,3.09-.41,3.63,1.28,3.72,1.88a.28.28,0,0,1,0,.09A.22.22,0,0,1,391.24,230.58Z" style="fill: rgb(240, 153, 122); transform-origin: 252.79px 294.537px;" id="el4awa9kszk5b" class="animable"></path><path d="M378.51,248.85,274.06,170.78a10,10,0,0,0-13.4,1.26l-6,4.68a11.14,11.14,0,0,0-.4,1.1,6.35,6.35,0,0,1-.61,1.66c-.71,1.12-2.84,1-4.19,1.28l-13.71,10.66c-2.34,4.07-4.08,8.68-8.07,11-2.63,1.55-5.94,1.86-8.3,3.79a13.59,13.59,0,0,1-1.88,1.52,8.56,8.56,0,0,1-2.65.74c-.53.1-1.06.23-1.58.38l-11.93,9.27a18.3,18.3,0,0,0-1.29,2.63,5.38,5.38,0,0,1-1,1.93c-.92.9-2.35.89-3.63,1a11.25,11.25,0,0,0-1.42.18L182.16,233c-1,2.17-1.59,4.56-3.2,6.28-1.82,1.94-4.53,2.68-6.82,4a14.32,14.32,0,0,0-6.25,7.71c0,.07-4.83.55-5.35.69a19.35,19.35,0,0,0-5,2.07c-.2.12-.41.24-.6.37l-.05,0-3.17,2.47a13.31,13.31,0,0,0-3.09,4.91,1.79,1.79,0,0,1-.48.82,1.68,1.68,0,0,1-.77.26,34.93,34.93,0,0,0-4.94,1.22l-11.37,8.83c-2.53,2-5.11,4-7.77,5.8-4.12,2.74-9.44,4.53-11.23,9.62a13.91,13.91,0,0,0-.1,8.23,11.31,11.31,0,0,0,4.89,7,15.84,15.84,0,0,0-6.12,21.24,26.26,26.26,0,0,0,4.73,6.49,13.33,13.33,0,0,0-1.92,4.62c-.85,4.33-.24,9.46,2.3,13.16a16.12,16.12,0,0,0,12.31,6.85c8.69.69,18.12-3.17,21.56-11.68,1.54.77,2.89,2.31,4.43,3.21a24.67,24.67,0,0,0,4.94,2.16A23.74,23.74,0,0,0,186.64,339l1.09-.15a16.83,16.83,0,0,0,23.94-3.08c8.58,6.36,19.42,3.45,26.5-3.36,3.56,1.95,6.05,2.87,10.24,2.52a17.47,17.47,0,0,0,6.91-2c.53-.28,4.87-3.86,4.81-3.88C265,331.05,270,333,275.22,333s10.8-2.66,12.74-7.51a19.65,19.65,0,0,0,28.69-3.5c6.11,2.8,11.65,4.45,18.46,3.32a28.61,28.61,0,0,0,9-3.09,81.86,81.86,0,0,0,6.75-5.3c8.11,4.43,21.18,2.92,25.71-5.16a10.52,10.52,0,0,0,3.91-8.19v-50.7A5,5,0,0,0,378.51,248.85Z" style="fill: rgb(255, 193, 0); transform-origin: 244.672px 262.246px;" id="elkr5h58si6h" class="animable"></path><g id="eljbbdke9iq6"><path d="M303.07,330a19.92,19.92,0,0,0,13.46-7.88,6.22,6.22,0,0,0-.49-2.41c-2-4.48-7-7-8.27-11.87-.29-1.19-.36-2.55-1.25-3.4a4.58,4.58,0,0,0-1.75-.91l-6.65-2.34a14.18,14.18,0,0,1-4.18,9.1,20.44,20.44,0,0,1-4.42,3.37,19.06,19.06,0,0,1-2.79,1.29c-.48.18-1,.34-1.45.5s-.79.17-.88.85c-.38,2.95,1,6,2.84,8.29a15.57,15.57,0,0,0,7.29,4.53A19.65,19.65,0,0,0,303.07,330Z" style="opacity: 0.1; transform-origin: 300.433px 315.663px;" class="animable"></path></g><g id="el3ik9lqby38u"><path d="M263.76,303.82a13.6,13.6,0,0,0-13.77.09,16,16,0,0,0-1.81-6.4c-.72-1.37-2.6-4.05-4.35-4.16a30,30,0,0,0,9.21-.57,13.49,13.49,0,0,0,7.79-4.79c.31-.42,2.6-3.51,2.25-3.73l3,1.91c2.19,1.38-.82,4-1.57,5.53A14.69,14.69,0,0,0,263.76,303.82Z" style="opacity: 0.1; transform-origin: 255.347px 294.085px;" class="animable"></path></g><g id="eljrgn6qmmsj"><path d="M238,332.56c2-4.94,1.15-10.59.26-15.89a15.16,15.16,0,0,1-16.12-6.18,3,3,0,0,0-1.09-1.19,2.42,2.42,0,0,0-1.07-.18,13.17,13.17,0,0,0-8.47,3,2,2,0,0,0-.63.76,2.13,2.13,0,0,0,.28,1.61,7.07,7.07,0,0,1,.38,1.16,18.07,18.07,0,0,1,2.69,10.61,24.33,24.33,0,0,1-1.78,6.66,8.69,8.69,0,0,0-.75,2.91C220.26,342.11,231,339.27,238,332.56Z" style="opacity: 0.1; transform-origin: 225.026px 324.222px;" class="animable"></path></g><g id="elx5rd1ux9qsj"><path d="M147.71,330.33a18,18,0,0,1,3.56-8.84,7.87,7.87,0,0,1,.64-9.73,63.65,63.65,0,0,1-6.61.91,21.71,21.71,0,0,1-6.92-.21c1.74,2.55,1.93,6.14,1.87,9.13a10.87,10.87,0,0,1-.95,4.11c-.19.45-1.51,3.87-1.87,3.9,1.61-.12,3.12-.78,4.8-.76A11.1,11.1,0,0,1,147.71,330.33Z" style="opacity: 0.1; transform-origin: 144.67px 321.045px;" class="animable"></path></g><g id="elfmdo1wh39x9"><path d="M186.59,326.52a10.11,10.11,0,0,0-1.89-2.7A17.44,17.44,0,0,0,186.59,326.52Zm-59.07,8a1.64,1.64,0,0,1,.46-.41,2.07,2.07,0,0,1,.92-.17,11.72,11.72,0,0,0,6.9-2.68,12.15,12.15,0,0,0,3.68-5.53,8,8,0,0,0,.42-3.3,12.44,12.44,0,0,0-.28-1.83,7.45,7.45,0,0,1-.52-1.6c-.54,6.84-7.92,11.65-14.77,11.28-5.15-.28-9.85-2.78-13.84-6.15.08.17.16.34.25.51a26.26,26.26,0,0,0,4.73,6.49,13.33,13.33,0,0,0-1.92,4.62c-.85,4.33-.24,9.46,2.3,13.16a16.12,16.12,0,0,0,12.31,6.85,24.47,24.47,0,0,0,12.92-2.48,15.58,15.58,0,0,1-6.23-1.24C128.75,349.44,122.09,340.66,127.52,334.47Zm201.76-15.88A22.77,22.77,0,0,1,318,301.67a21.11,21.11,0,0,1-11.09,2.3,17.93,17.93,0,0,0,7.58,13c2.34,1.61-4,3.91-5.06,4.06a13.57,13.57,0,0,1-10.11-3,13.91,13.91,0,0,1-3.54-4.13,9.32,9.32,0,0,1-1-2.48c-.2-.88-.22-1.41-1.09-.49a11.6,11.6,0,0,1-4.48,2.75,26,26,0,0,0-2.63.85,7.6,7.6,0,0,0-1.75,1.05,1.2,1.2,0,0,0-.24.69,8.54,8.54,0,0,0,.63,4.38c.39.91.72,1.09.1,1.94a2.53,2.53,0,0,1-1.08,1,8,8,0,0,1-7.87-1.06,8.21,8.21,0,0,1-3.16-6.63,7.35,7.35,0,0,1-3.76,4.79,10.35,10.35,0,0,1-5.7,1.18,13.44,13.44,0,0,1-9.61-5.78,17.87,17.87,0,0,1-2.64-5.36c-.31-.95-.55-1.93-.77-2.91-.14-.59-.76-2.17-.55-2.73-1.17,3.19-2.41,6.49-4.81,8.89a1.66,1.66,0,0,0-.53.73,1.53,1.53,0,0,0,0,.64c.53,4,2.85,8.6,6.58,10.43a9.45,9.45,0,0,1-13.18-3.06c-.49,5.37-6,9.43-11.38,9.29s-10.27-3.8-13-8.47a7.15,7.15,0,0,1-2.1,6.63,12.37,12.37,0,0,1-6.48,3.1,20.11,20.11,0,0,1-18.66-6.85,12.43,12.43,0,0,1,0,10.48,16,16,0,0,1-10.82,8.41,24.74,24.74,0,0,1-13.95-1.07c-7-2.46-13.74-8.47-13.44-15.9a15.77,15.77,0,0,0,0,11.68,22.93,22.93,0,0,1,1.52,4c1.46.8,2.76,2.25,4.25,3.11a24.67,24.67,0,0,0,4.94,2.16A23.74,23.74,0,0,0,186.64,339l1.09-.15a16.83,16.83,0,0,0,23.94-3.08c8.58,6.36,19.42,3.45,26.5-3.36,3.56,1.95,6.05,2.87,10.24,2.52a17.47,17.47,0,0,0,6.91-2c.53-.28,4.87-3.86,4.81-3.88C265,331.05,270,333,275.22,333s10.8-2.66,12.74-7.51a19.65,19.65,0,0,0,28.69-3.5c6.11,2.8,11.65,4.45,18.46,3.32a28.61,28.61,0,0,0,9-3.09c.22-.12,1-.68,1.94-1.4-.62.07-1.2.13-1.68.2A23.27,23.27,0,0,1,329.28,318.59Zm33.74-4.3a12.7,12.7,0,0,1-6.32-3.49,8.45,8.45,0,0,1-1.9-2.94c-.44-1.2-.09-2.22-1.54-2.59a16.52,16.52,0,0,1-6.47-3.27,14.68,14.68,0,0,0-.29,7.35,20.64,20.64,0,0,0,1.44,3.89,16.83,16.83,0,0,0,3,3.67,22.06,22.06,0,0,0,20.16.1,13.75,13.75,0,0,0,5.53-5.27l.15-.13A18.34,18.34,0,0,1,363,314.29Z" style="opacity: 0.1; transform-origin: 243.635px 328.757px;" class="animable"></path></g><g id="elzvg68t6sj8"><path d="M185,321a21.74,21.74,0,0,0-13.74-10.34,22,22,0,0,0-5-.66,14.35,14.35,0,0,0-5.49.74c-.38.15.07.65.33.63,1.47-.07,2.91-.3,4.39-.26a23,23,0,0,1,4.38.55,22.11,22.11,0,0,1,7.94,3.5,21.52,21.52,0,0,1,8.6,14.19,23.45,23.45,0,0,1,.21,4.66,25.88,25.88,0,0,1-.53,4.66c0,.14.15.44.24.21a21,21,0,0,0,.84-2.16,14.74,14.74,0,0,0,.47-2.38,21.34,21.34,0,0,0,0-4.52A22.64,22.64,0,0,0,185,321Zm-26.08-23.95c-.35,5.06-2,10.34-6.55,13.13a13.18,13.18,0,0,1-7.23,1.69,36.1,36.1,0,0,1-3.75-.21,9.73,9.73,0,0,1-1.77-.35c-.51-.17-1-.45-1.49-.62a14.15,14.15,0,0,0-1.24-1.67,14,14,0,0,0-2.67-2.37,8.35,8.35,0,0,0-.85-1.45,13.61,13.61,0,0,1-1-2.3,12.63,12.63,0,0,1-.68-5,12.85,12.85,0,0,1,4.08-8.47c.66-.63-.63-1.36-1.21-.81a13.74,13.74,0,0,0-3.66,14.59,12.49,12.49,0,0,0,1,2.11,8.47,8.47,0,0,0-4-.83c-.33,0-.11.58.1.64a19.71,19.71,0,0,1,3.72,1.21,14.37,14.37,0,0,1,3.47,2.53,14.72,14.72,0,0,1,4.08,8,16.73,16.73,0,0,1-.7,9.3,11.68,11.68,0,0,1-5.46,5.7,13.93,13.93,0,0,1-5.14,1.38,21.05,21.05,0,0,1-5.81-.52c-.33-.06-.21.44,0,.53,6.25,2.72,14.23.31,17.47-5.77,1.57-3,1.67-6.69,1.13-9.94a19.6,19.6,0,0,0-1.41-4.74,15.84,15.84,0,0,0,3.21.47,24.86,24.86,0,0,0,7.15-.39,13.18,13.18,0,0,0,9.05-8.23,13.53,13.53,0,0,0,.52-7.61C159.2,296.92,158.93,296.83,158.91,297.07Zm-7.8,24.85c-1.38.8-2.2,2.71-2.75,4.13a28.42,28.42,0,0,0-1.44,5.45,17.71,17.71,0,0,0-.15,5.58,13.54,13.54,0,0,0,.62,2.49c.15.39.32.78.51,1.16a5.14,5.14,0,0,0,1,1.18c.18.19.45,0,.34-.22s-.11-.64-.24-.95-.38-.75-.53-1.15a11.77,11.77,0,0,1-.67-2.56,17.26,17.26,0,0,1,.18-5.46,31.65,31.65,0,0,1,1.28-5,15.23,15.23,0,0,1,1-2.22,21.28,21.28,0,0,0,1.25-1.94C151.65,322.21,151.37,321.76,151.11,321.92Zm96.64-27.69c4,.19,8-.52,11.28-3a15.15,15.15,0,0,0,5.52-15.33,13.06,13.06,0,0,0-2.9-5.89c-.2-.22-.53-.12-.41.21.28.82.7,1.58,1,2.4a23.53,23.53,0,0,1,.73,2.74,17,17,0,0,1,.27,5.28,13.56,13.56,0,0,1-14,12.26c-3.66,0-7.44-.68-10.36-3a15.65,15.65,0,0,1-5.23-9.51c-.06-.32-.61-.62-.66-.14-.41,3.65,1.49,7.36,4.06,9.84A16.19,16.19,0,0,0,247.75,294.23Zm119,9.54a11.95,11.95,0,0,1-8,2.05,23.64,23.64,0,0,1-8-2,15,15,0,0,1-8.52-10.62,15.47,15.47,0,0,1,.38-7.7,17.88,17.88,0,0,0,8.49-15,11.57,11.57,0,0,0-1.22-6c-.19-.31-.91-.31-.83.16a37.9,37.9,0,0,1,.78,5,17.63,17.63,0,0,1-.55,4.91A16.93,16.93,0,0,1,344,283a17.22,17.22,0,0,1-2.21,1.63.5.5,0,0,0-.21.13c-1.87,1.88-6.07,2.55-8.57,2.73a15.35,15.35,0,0,1-8.66-1.62,22.12,22.12,0,0,1-6.75-5.91,20.47,20.47,0,0,1-2.37-4c-.56-1.27-.45-3.18-1.54-4.14-.45.63,0,2.27.24,3a22,22,0,0,0,1.37,3.63,15.9,15.9,0,0,0,4.25,5.79A20.42,20.42,0,0,0,334,288.49a19.88,19.88,0,0,0,7-2.1,16.27,16.27,0,0,0,2.46,12.95c3.29,4.84,9.13,7.12,14.82,7.55,3,.22,6.77-.22,8.82-2.65C367.29,304,367,303.63,366.73,303.77Zm-157.49,7.31a14,14,0,0,0-3.28-2.42,15.81,15.81,0,0,0,6-1.65,14.47,14.47,0,0,0,7.4-13,17.93,17.93,0,0,0-9.08-14.92.41.41,0,0,0-.48.67,31.14,31.14,0,0,1,5.16,5.48,16.53,16.53,0,0,1,2.67,7.05,13.45,13.45,0,0,1-5.29,12.54c-4.23,2.93-10.2,2.68-14.76.67-4.28-1.88-7.87-5.53-8.85-10.2a14.38,14.38,0,0,1,.37-7.28,13.74,13.74,0,0,1,4-6c.44-.4-.31-1.12-.75-.85-4.4,2.59-6.21,8.39-5.63,13.24a16.11,16.11,0,0,0,8.76,12.06A19.85,19.85,0,0,0,204,308.7a14,14,0,0,1,4.8,3.76,22.74,22.74,0,0,1,3.37,5.62,20,20,0,0,1,1.51,7.4,29,29,0,0,1-1.25,7.84c-.16.57.92,1,1.19.47,2.58-5.1,2.13-11.71-.22-16.8A20.24,20.24,0,0,0,209.24,311.08ZM324.37,295c-.32.58-.77,1.12-1.15,1.67a13.59,13.59,0,0,1-1.61,1.94,14,14,0,0,1-3.86,2.8,19.89,19.89,0,0,1-10.41,1.74h-.08a.67.67,0,0,0-.66-.08,15.51,15.51,0,0,1-8.77-4.11,15.22,15.22,0,0,1-4.52-8.49,16,16,0,0,1,3-11.95c.42-.56-.73-1.14-1.13-.67a16.46,16.46,0,0,0,.2,21.06,17.75,17.75,0,0,0,1.74,1.73.71.71,0,0,0,0,.15c.55,5.19-3.48,9.85-7.77,12.22a17.68,17.68,0,0,1-14.14,1.3,19.19,19.19,0,0,1-7.47-4.58c-.26-.27-.36.21-.19.4a17.7,17.7,0,0,0,5.48,4.34,14,14,0,0,1-3.5,7.85,15.18,15.18,0,0,1-6.2,4.69,11.67,11.67,0,0,1-8.21-.22,15.85,15.85,0,0,1-7-4.57,10.15,10.15,0,0,1-2.24-7.68,13,13,0,0,0,3.89-5.74c1.59-4.68.58-10.54-3.26-13.84-.35-.3-.58.14-.31.43a12.24,12.24,0,0,1,2.77,11.37,12.81,12.81,0,0,1-7.53,8.84,15.82,15.82,0,0,1-11.85.13,13.21,13.21,0,0,1-8.37-10.06c-1-6,2.56-11.53,8-14,.61-.28-.15-1.06-.63-.91a13.63,13.63,0,0,0-9.08,10.9,14.25,14.25,0,0,0,5.67,13.41,17.6,17.6,0,0,0,19.31.54,10.48,10.48,0,0,0,2,6.75,16.1,16.1,0,0,0,7.34,5.44,14.14,14.14,0,0,0,9.39.77,15.63,15.63,0,0,0,7-4.87c2.07-2.42,4-5.6,3.59-8.88a18.42,18.42,0,0,0,7.88,1.61,18.88,18.88,0,0,0,14.06-6.92,12.6,12.6,0,0,0,3-7.67,16.75,16.75,0,0,0,6.23,2.64c.57.11,1.13.19,1.7.25a17.73,17.73,0,0,0,2.24,6.39,15.58,15.58,0,0,0,6,6c.3.15.26-.31.11-.44a33.13,33.13,0,0,1-2.87-2.57,16.84,16.84,0,0,1-2.29-3.14,17.55,17.55,0,0,1-2.15-6.16,21.41,21.41,0,0,0,9.19-1.53,16.53,16.53,0,0,0,5.06-3.12,9.37,9.37,0,0,0,1.81-2.21,8,8,0,0,0,.6-1.21,9.9,9.9,0,0,0,.32-1.53C324.63,295.15,324.46,294.85,324.37,295Z" style="opacity: 0.1; transform-origin: 244.558px 303.116px;" class="animable"></path></g><g id="elifqvmrbwt9"><path d="M184.39,310.65a13.87,13.87,0,0,0,5.93-8,2,2,0,0,0,.1-.87,2.44,2.44,0,0,0-.47-.92,14.18,14.18,0,0,1-2.38-6.74c-.1-1.15-.21-2.21-.4-3.32-.13-.8.45-1.84.16-2.54a1.55,1.55,0,0,0-.36-.48c-3.43-3.46-8.7-5.81-13.63-5.1a19.11,19.11,0,0,0-8.8,3.28,13.44,13.44,0,0,0-5.16,13.91c.78,3.09,2.64,5.78,4.55,8.34a4.9,4.9,0,0,0,2.2,1.94,6,6,0,0,0,1.75.16,13,13,0,0,1,4.37.84c1.33.49,2.54,1.47,4,1.56A13.89,13.89,0,0,0,184.39,310.65Z" style="opacity: 0.1; transform-origin: 174.729px 297.644px;" class="animable"></path></g><g id="elchyky5xg9wq"><path d="M283.21,251c-8.26-.76-15.23,4.95-17.83,12.5a13.65,13.65,0,0,0,.61,11.08,17.57,17.57,0,0,0,5.18,5.16,19.36,19.36,0,0,0,8.05,2.79,21.4,21.4,0,0,0,11.29-1.3,13.8,13.8,0,0,0,7.7-8.08,17.62,17.62,0,0,0,.11-8.95C296.86,257.1,290.34,251.66,283.21,251Z" style="opacity: 0.1; transform-origin: 281.666px 266.858px;" class="animable"></path></g><g id="eluy4kr9nu1xj"><path d="M236.46,289.53c-4-.41-7.77,1.29-11.14,3.34a10.09,10.09,0,0,0-4.07,4.22c.25-.55-2.67-.77-2.88-.79-.35-3.15-.25-6.13-1.44-9.17a17.33,17.33,0,0,0-5.61-7.36,4.15,4.15,0,0,1-1-.95,2.84,2.84,0,0,1-.38-1.52,7.9,7.9,0,0,1,2.64-5.65,19.06,19.06,0,0,1,5.42-3.37A16,16,0,0,1,221.6,267c3.24-.61,10.47.44,12.26,3.74.79,1.46.16,3.19-.11,4.7a19.72,19.72,0,0,0,0,7,19.49,19.49,0,0,0,1,3.68C234.94,286.6,235.94,289.48,236.46,289.53Z" style="opacity: 0.1; transform-origin: 223.199px 281.963px;" class="animable"></path></g><g id="el7s9fenncr8e"><path d="M380.49,279.87l0,0v-27a5,5,0,0,0-2-4l-7.8-5.83a44.16,44.16,0,0,0-9.37-1.09,18,18,0,0,0-8.69,1.69c-3.41,1.83-5.63,5.25-7.69,8.53l2.76,3.07q1.06,4.68,2.12,9.37a22.87,22.87,0,0,1,.85,8.08c1.72-2.35,4.73-3.38,7.61-3.79a23.27,23.27,0,0,1,13,1.78A18.64,18.64,0,0,1,380.49,279.87Z" style="opacity: 0.1; transform-origin: 362.715px 260.896px;" class="animable"></path></g><g id="elpr3kn0tlrdf"><path d="M309.25,276.48a11,11,0,0,0-12.89,5.92,9.91,9.91,0,0,0-.7,7.61c.9,2.71,3.21,4.75,5.86,2.61,1.51-1.22,2.19-3.4,3.52-4.84a14.42,14.42,0,0,1,5.22-3.61,6.88,6.88,0,0,0,2.55-1.35C315.64,279.85,312,277.36,309.25,276.48Zm30,22a11.28,11.28,0,0,0-13.14,1.91,3.27,3.27,0,0,0-1.25,2.47c.13,1.55,2,2.21,3.44,2.71a12.45,12.45,0,0,1,5.46,3.45,29,29,0,0,1,2.38,3.65,8.53,8.53,0,0,0,3,3.13,3.82,3.82,0,0,0,4.11-.1c1.25-1,1.48-2.75,1.53-4.33C344.88,306.59,343.88,300.72,339.26,298.44Zm33.88-18.08c-3.61-4.45-10.26-6.87-15.73-5.21-2.27.69-4.83,1.64-5.64,3.87a2.54,2.54,0,0,0,0,1.84c.46,1.09,1.77,1.48,2.92,1.7a49.08,49.08,0,0,1,7.43,1.58,9.26,9.26,0,0,1,5.63,4.76,9,9,0,0,1,.6,3.84c-.05,1.58-.2,3.5,1.12,4.37a2.67,2.67,0,0,0,2.6,0,6.64,6.64,0,0,0,2-1.78C377.52,291.16,376.38,284.36,373.14,280.36Zm-38.81-24.14c-1.24,0-2.85.5-2.85,1.75a2.18,2.18,0,0,0,.61,1.35l.34.38c2.63,2.91,4.57,6.63,4.56,10.55a16.82,16.82,0,0,0,.07,3.55c.52,2.46,4,5,6.52,3.65a3.91,3.91,0,0,0,1.6-2.12,14.85,14.85,0,0,0-.73-12.64A11.93,11.93,0,0,0,334.33,256.22ZM280.6,293.89a6,6,0,0,0-1.47-1.93c-3-2.73-7.81-3.84-10.57-.32a11.27,11.27,0,0,0-2.14,4.53,11.59,11.59,0,0,0-.12,4.39,15.94,15.94,0,0,0,5.35,9.25,10,10,0,0,0,6.07,2.53c1.94.16,3.18-.6,2.28-2.88-.36-.9-1-1.69-1.28-2.61-.73-2.12.2-4.41,1.08-6.47S281.51,295.94,280.6,293.89Zm-55.22,2.55a7.08,7.08,0,0,0-1,1.89,13.55,13.55,0,0,0-.8,6.55,5.75,5.75,0,0,0,.91,2.7,2.72,2.72,0,0,0,2.48,1.19c1.52-.23,2.26-1.91,3-3.24a11.34,11.34,0,0,1,7.47-5.34c1.16-.23,2.48-.35,3.2-1.27a3.14,3.14,0,0,0-.14-3.46C237.06,289.78,228.86,292.09,225.38,296.44Zm-13.09-11.09c-2-1.63-7.15-3.1-7.78.73a6.19,6.19,0,0,0,1.16,4.14,18.67,18.67,0,0,1,2.16,3.81,12.13,12.13,0,0,1,.07,5.56,2.94,2.94,0,0,0,.43,2.6,2.13,2.13,0,0,0,1.37.53c2.59.21,4.82-2,5.72-4.45a12.42,12.42,0,0,0-.43-9.16A9.59,9.59,0,0,0,212.29,285.35Zm35.48-6.08c.16-1.24.82-2.43.65-3.67a3.69,3.69,0,0,0-3.32-2.89c-5.95-.71-9.14,5.1-7.29,10.34a9.38,9.38,0,0,0,7.7,6.06,3.37,3.37,0,0,0,2.51-.54,3,3,0,0,0,.91-2.31C249,283.88,247.47,281.62,247.77,279.27Zm-69.59,39.59c-4-3.61-11.11-5.26-16.19-3.47a12,12,0,0,0-4,2.11,5.35,5.35,0,0,0-2,3.91,2.58,2.58,0,0,0,.37,1.42,3.13,3.13,0,0,0,.85.77c3.77,2.54,8.74,2.2,13.11,3.48a18,18,0,0,1,5.28,2.52,13.45,13.45,0,0,0,2.52,1.61,3.11,3.11,0,0,0,2.88-.08c1.83-1.2,1.1-4.5.7-6.27A11.67,11.67,0,0,0,178.18,318.86Zm28.09-4.48c-4-3.43-8.61-4.47-13.54-2.61a8.92,8.92,0,0,0-3.49,2.05,3.46,3.46,0,0,0-.78,3.75,3.63,3.63,0,0,0,2.42,1.75,18.27,18.27,0,0,0,3.05.36,17.32,17.32,0,0,1,5.2,1.33c2.71,1.16,5.2,3.05,8.13,3.34a2.4,2.4,0,0,0,1.43-.21,2.65,2.65,0,0,0,.94-2.28A8.93,8.93,0,0,0,206.27,314.38Zm-50.4-21.76c-3.32-4.9-10.29-6.4-15.54-4.21a7.39,7.39,0,0,0-4.63,5.1,1.58,1.58,0,0,0,.06,1,1.81,1.81,0,0,0,.86.67,38.09,38.09,0,0,0,7.25,2,13.23,13.23,0,0,1,6.68,3.24,18.83,18.83,0,0,0,1.62,1.72,2.51,2.51,0,0,0,2.2.61,2.7,2.7,0,0,0,1.08-.72C157.86,299.61,157.78,295.43,155.87,292.62ZM122.52,306c-2.82-.21-5.38,1.59-7.44,3.41a11.78,11.78,0,0,0-3.84,6.12,10.76,10.76,0,0,0,0,4.45,7.56,7.56,0,0,0,1.82,3.7,3.91,3.91,0,0,0,3.8,1.15c2-.64,2.79-3.07,3.8-5a11.82,11.82,0,0,1,5.69-5.28c1.33-.58,3-1.1,3.39-2.49a3.23,3.23,0,0,0-.47-2.46C127.82,307.05,125.28,306.19,122.52,306Z" style="fill: rgb(255, 255, 255); opacity: 0.1; transform-origin: 243.589px 293.872px;" class="animable"></path></g><path d="M380.51,252.79c0-3.65-6.78-4.34-9.31-4.6A28.65,28.65,0,0,0,355.85,251c-3.48,1.8-6.45,5-7,8.89.23-1.63-5.83-5-7-5.66a23.1,23.1,0,0,0-9.55-2.58A22.61,22.61,0,0,0,315,258.94s-4.25-1.06-4.72-1.1a18.62,18.62,0,0,0-5.32.25c-3.34.65-6.62.19-9.95,1-4.29,1-8.14,2.24-10.5,6,.32-.5-6.23-2.31-7-2.59a19.48,19.48,0,0,0-23.3,8.05,13,13,0,0,0-11-2.19c-3.73,1-7.26,1.37-8.8,4.91-3.39-4.65-9.84-3.22-15.38-1.69a23.25,23.25,0,0,1-5.22,1.21,19.48,19.48,0,0,1-4.35-.6c-7.27-1.45-15.68-.48-20.68,5-6.59-3.58-15.26-3.1-19.89,3.44-.29.4-.63.87-1.13.89a1.6,1.6,0,0,1-.88-.32c-4.36-2.63-9.19-4.46-14.21-2.53a17.46,17.46,0,0,0-7.85,5.39c.27-.33-5.9-1.15-6.46-1.19-1.91-.16-3.14.6-4.93,1-5.29,1.29-11.11,1.52-16.51,2.24a1,1,0,0,1-.85-1.61l25.27-20.23a36.15,36.15,0,0,1,6-1.56,1.68,1.68,0,0,0,.77-.26,1.79,1.79,0,0,0,.48-.82c1.38-3.7,3.62-5.83,6.91-7.78a19.35,19.35,0,0,1,5-2.07c.52-.14,5.33-.62,5.35-.69a14.32,14.32,0,0,1,6.25-7.71c2.29-1.35,5-2.09,6.82-4s2.32-4.5,3.43-6.8a13.68,13.68,0,0,1,1.22-2l7-5.61a15.17,15.17,0,0,1,4.74-1.15c1.28-.1,2.71-.09,3.63-1a5.38,5.38,0,0,0,1-1.93,20.35,20.35,0,0,1,14.8-12.28,8.56,8.56,0,0,0,2.65-.74,13.59,13.59,0,0,0,1.88-1.52c2.36-1.93,5.67-2.24,8.3-3.79,4.67-2.75,6.26-8.6,9.33-13.07a21.79,21.79,0,0,1,12.1-8.54c1.3-.35,3.77-.14,4.54-1.36a6.35,6.35,0,0,0,.61-1.66,11.67,11.67,0,0,1,6.59-7.33c1.46-.61,3.3-1.18,3.61-2.73a2,2,0,0,0,0-.6c3.74-1.24,6.87-.44,10,.62a253.37,253.37,0,0,1,46.17,20.52c29.67,17.13,49.28,37.85,58.87,59.75A11.86,11.86,0,0,1,380.51,252.79Z" style="fill: rgb(255, 193, 0); transform-origin: 248.186px 226.376px;" id="el3k5q1x35jv5" class="animable"></path><g id="eliydh2sozg7"><path d="M380.51,252.79c0-3.65-6.78-4.34-9.31-4.6A28.65,28.65,0,0,0,355.85,251c-3.48,1.8-6.45,5-7,8.89.23-1.63-5.83-5-7-5.66a23.1,23.1,0,0,0-9.55-2.58A22.61,22.61,0,0,0,315,258.94s-4.25-1.06-4.72-1.1a18.62,18.62,0,0,0-5.32.25c-3.34.65-6.62.19-9.95,1-4.29,1-8.14,2.24-10.5,6,.32-.5-6.23-2.31-7-2.59a19.84,19.84,0,0,0-9.81-.95c-5.5.9-10.55,3.25-13.49,8-3.07-2.33-7.23-2.15-11-1.18s-7.26,1.37-8.8,4.91c-3.39-4.65-9.84-3.22-15.38-1.69a23.25,23.25,0,0,1-5.22,1.21,19.48,19.48,0,0,1-4.35-.6c-7.27-1.45-15.68-.48-20.68,5-6.59-3.58-15.26-3.1-19.89,3.44-.29.4-.63.87-1.13.89a1.6,1.6,0,0,1-.88-.32c-4.36-2.63-9.19-4.46-14.21-2.53a17.46,17.46,0,0,0-7.85,5.39c.27-.33-5.9-1.15-6.46-1.19-1.91-.16-3.14.6-4.93,1-5.29,1.29-11.11,1.52-16.51,2.24a1,1,0,0,1-.85-1.61l25.27-20.23a36.15,36.15,0,0,1,6-1.56,1.68,1.68,0,0,0,.77-.26,1.79,1.79,0,0,0,.48-.82c1.38-3.7,3.62-5.83,6.91-7.78a19.35,19.35,0,0,1,5-2.07c.52-.14,5.33-.62,5.35-.69a14.32,14.32,0,0,1,6.25-7.71c2.29-1.35,5-2.09,6.82-4s2.32-4.5,3.43-6.8a13.68,13.68,0,0,1,1.22-2l7-5.61a15.17,15.17,0,0,1,4.74-1.15c1.28-.1,2.71-.09,3.63-1a5.38,5.38,0,0,0,1-1.93,20.35,20.35,0,0,1,14.8-12.28,8.56,8.56,0,0,0,2.65-.74,13.59,13.59,0,0,0,1.88-1.52c2.36-1.93,5.67-2.24,8.3-3.79,4.67-2.75,6.26-8.6,9.33-13.07a21.79,21.79,0,0,1,12.1-8.54c1.3-.35,3.77-.14,4.54-1.36a6.35,6.35,0,0,0,.61-1.66,11.67,11.67,0,0,1,6.59-7.33c1.46-.61,3.3-1.18,3.61-2.73a2,2,0,0,0,0-.6c3.74-1.24,6.87-.44,10,.62a253.37,253.37,0,0,1,46.17,20.52c29.67,17.13,49.28,37.85,58.87,59.75A11.86,11.86,0,0,1,380.51,252.79Z" style="fill: rgb(255, 255, 255); opacity: 0.2; transform-origin: 248.186px 226.386px;" class="animable"></path></g><g id="elxq45sm90kvk"><path d="M369,233.46a19.64,19.64,0,0,0-9.26-6.44,12.6,12.6,0,0,0-13.91,4.76c-.1.15-.2.3-.29.45-1.63,2.66-.61,5.37,2.31,6.62a11,11,0,0,0,6.15.38,62.35,62.35,0,0,1,6.15-1.08c2.46-.16,4.79.59,7.21.91C371,239.56,370.42,235.33,369,233.46Zm-59.94-48a4.44,4.44,0,0,0-2.28.43,1.85,1.85,0,0,0-1,1.94,2.3,2.3,0,0,0,.81,1.14,13.71,13.71,0,0,0,4.77,2.34,32.23,32.23,0,0,0,5.93,1.58,4,4,0,0,0,2-.11,1.65,1.65,0,0,0,1.11-1.54,2.33,2.33,0,0,0-.7-1.28A14.44,14.44,0,0,0,309,185.48ZM325.55,237c-1,.42-2,1.23-2,2.32,0,1.27,1.39,2,2.54,2.58a31.61,31.61,0,0,1,8.36,5.91c.61.59,1.39,1.26,2.19,1a2,2,0,0,0,1-1.17,8.28,8.28,0,0,0,.06-6.37C335.87,236.77,329.85,235.18,325.55,237Zm-41,4.26c-4-2.5-11.06-4.21-15.21-1.12a2.46,2.46,0,0,0,.22,4.35,7,7,0,0,0,2.44.76c3.44.59,7.07.7,10.13,2.38,1.6.88,4.89,3.83,6.51,1.58a3.47,3.47,0,0,0,.33-3C288.33,244,286.46,242.46,284.54,241.26Zm-67-26.55c-8.66-5.56-16.15,7.67-13.75,15.1.92,2.87,3.13,5.48,6.08,6.1a3.93,3.93,0,0,0,3.18-.51,4.44,4.44,0,0,0,1.47-3c.37-2.5-.13-5.22,1.08-7.44s3.86-3.55,4.2-6A4.59,4.59,0,0,0,217.53,214.71ZM158.86,271a17.05,17.05,0,0,0-5.3-3.34,10.66,10.66,0,0,0-4.46-.22,3.38,3.38,0,0,0-2.09,1,1.5,1.5,0,0,0,0,2.09,2.13,2.13,0,0,0,.7.32L157.89,274a2,2,0,0,0,1.44.08,1.34,1.34,0,0,0,.59-1.59A3.44,3.44,0,0,0,158.86,271Zm-6.67-3.84c.47.14.92.32,1.37.5s.67.17,1,.29Zm109.08-91.79c-2.18-.59-3,2.85-3.42,4.44-.35,1.41-.42,3.19.78,4a2.48,2.48,0,0,0,2.89-.3,4.63,4.63,0,0,0,1.4-2.72C263.2,179.27,263.26,175.87,261.27,175.33Z" style="fill: rgb(255, 255, 255); opacity: 0.2; transform-origin: 258.342px 224.74px;" class="animable"></path></g><path d="M354.25,221.27a14.93,14.93,0,0,0-9.51,3.22,16.57,16.57,0,0,0-5.93,8,10,10,0,0,0-.59,3.76,19.61,19.61,0,0,0-12.54-4.78,30.22,30.22,0,0,0-5.12.22c-1.93.25-4.1.54-5.71,1.72-.49.36.19,1,.64.73a12.27,12.27,0,0,1,4.66-1.17,31,31,0,0,1,4.42-.14,22.75,22.75,0,0,1,8,1.69,14.76,14.76,0,0,1,6.13,4.72,14,14,0,0,1,2.58,7.15,14.2,14.2,0,0,1-.29,4.36,18.56,18.56,0,0,1-.57,2c-.13.36-.28.7-.42,1s-.21.9-.39,1.32c-.09.21.23.72.45.47a8.17,8.17,0,0,0,1.55-2.09,12.1,12.1,0,0,0,.77-2.11,15.76,15.76,0,0,0,.52-4.43,15.27,15.27,0,0,0-2.48-8.08,13.89,13.89,0,0,0-.85-1.13,11.1,11.1,0,0,1,.1-3.2,13.63,13.63,0,0,1,1-3,15.77,15.77,0,0,1,3.31-4.63,17.82,17.82,0,0,1,10.45-4.7C355.1,222.11,354.79,221.3,354.25,221.27ZM285,236.52a20.94,20.94,0,0,0-16.58-.78,8.74,8.74,0,0,0-.31-1.93,11.24,11.24,0,0,0-1.16-3,15.55,15.55,0,0,0-4.24-4.82c-4-3-9-3.89-13.91-3.43a30.67,30.67,0,0,0-4.35.75,23,23,0,0,0-4.94,1.6c-.37.19.09.73.4.66,2.48-.55,4.86-1.34,7.39-1.68a23.72,23.72,0,0,1,7.66.09,15.58,15.58,0,0,1,10.32,6.69,13.29,13.29,0,0,1,1.42,3,11,11,0,0,1,.35,1.51c.07.37.09.73.17,1.08-.29.13-.57.26-.86.41a19,19,0,0,0-4.36,3.15,14,14,0,0,0-3.12,4c-.18.38.47.88.76.54a29.46,29.46,0,0,1,3-3.37,19.6,19.6,0,0,1,11.89-4.94,19.64,19.64,0,0,1,15.77,6.67,12.62,12.62,0,0,1,3.06,8.61c0,.55,1,.67,1.14.12C295.76,244.94,290.43,239.17,285,236.52ZM228.88,231a17.46,17.46,0,0,1-1.42,3.54,11.51,11.51,0,0,1-2.36,2.79,13,13,0,0,1-7.15,3,18.19,18.19,0,0,1-15.6-6.51,13.53,13.53,0,0,1-2.18-3.93,21.32,21.32,0,0,1-.87-4.81c0-.2-.39-.48-.48-.18a9.35,9.35,0,0,0,.16,4.81,14.19,14.19,0,0,0,2,4.26,17.73,17.73,0,0,0,6.9,5.71c5.51,2.68,12.52,2.91,17.54-.94a13.31,13.31,0,0,0,3.1-3.34,8.73,8.73,0,0,0,1.57-4.17C230.1,230.63,229.08,230.38,228.88,231Zm-68.46,36.07a21.49,21.49,0,0,0-7.8-4.6,19.78,19.78,0,0,0-2.49-.64,5.63,5.63,0,0,0-2.48-.11.28.28,0,0,0-.19.27c0,.09.2.34.19.35a21.82,21.82,0,0,0,3.07.73,22.87,22.87,0,0,1,2.44.74A20.46,20.46,0,0,1,158,266.4a22.37,22.37,0,0,1,3.84,3.5,23.94,23.94,0,0,1,3.18,4.94c.15.29.56.29.44-.1A18.17,18.17,0,0,0,160.42,267.05Z" style="fill: rgb(255, 193, 0); transform-origin: 251.136px 248.157px;" id="ellc5gfejid9s" class="animable"></path><g id="ela28b4scj8ss"><path d="M324.69,270.33a6.76,6.76,0,0,0-1.06-2.84c-.54-.81-1.65-2-2.72-1.43-.21.12-.13.41,0,.53s.55.25.79.42a2.46,2.46,0,0,1,.44.41,5.45,5.45,0,0,1,.59.91,6.62,6.62,0,0,1,.68,2.17c.18,1.31,0,3.67-1.69,3.87-.3,0-.21.45,0,.56,1.2.71,2.32-.43,2.7-1.52A6.7,6.7,0,0,0,324.69,270.33Zm-2.86,2.39c0-.05-.05-.21-.05-.25a.26.26,0,0,0,.05-.17c0-.05,0-.09,0-.13,0-.22-.07-.44-.11-.67a5.69,5.69,0,0,1-.15-.92,4.31,4.31,0,0,1,0-.95.87.87,0,0,1,.22-.55c.18-.11.12-.36,0-.49a.52.52,0,0,0-.56-.18c-.75.28-.76,1.32-.74,2a3.94,3.94,0,0,0,.19,1.18,2.31,2.31,0,0,0,.3.61,1.69,1.69,0,0,0,.28.32c.11.11.21.24.33.36S321.84,272.88,321.83,272.72Zm-14.65,23.85a11.07,11.07,0,0,0-3.3-.09,4.89,4.89,0,0,0-1.51.35c-.33.15-.75.36-.83.75,0,.21.18.51.42.44s.65-.3,1-.41a5.21,5.21,0,0,1,1.1-.21,11.93,11.93,0,0,1,2.39,0,5,5,0,0,1,2,.71,7.6,7.6,0,0,1,2.09,2.1.13.13,0,0,0,.24-.07,3.62,3.62,0,0,0-1-2.19A5,5,0,0,0,307.18,296.57Zm1.45,2.55c-.4,0-.79.2-1.19.23a2.77,2.77,0,0,1-1.11-.12,4.52,4.52,0,0,1-1.89-1.46.22.22,0,0,0-.39.18,3,3,0,0,0,2,2,4,4,0,0,0,1.48.23,2.06,2.06,0,0,0,1.49-.47C309.24,299.49,308.9,299.11,308.63,299.12ZM285.93,286a5.07,5.07,0,0,0-2.22-1.74,7.62,7.62,0,0,0-3.13-.56,6.93,6.93,0,0,0-3.27.66c-.24.14.05.56.25.56,1,0,2-.24,3-.23a6.85,6.85,0,0,1,2.76.52,5.46,5.46,0,0,1,3.15,3.54c0,.1.13.1.14,0a4,4,0,0,0-.05-1.43A4.26,4.26,0,0,0,285.93,286Zm-2.42,1a2.85,2.85,0,0,1-.49,0,3.58,3.58,0,0,1-1.08-.16,5.36,5.36,0,0,1-1.88-1.21c-.21-.19-.71-.09-.58.27a3.43,3.43,0,0,0,2.26,1.82,4.38,4.38,0,0,0,1.35.21,3.94,3.94,0,0,0,.77-.08,1,1,0,0,0,.65-.34c.07-.09.11-.21.18-.31s0-.2-.08-.21A5.06,5.06,0,0,0,283.51,287Zm-44,26.1a4.39,4.39,0,0,0-.89-1.25,5.71,5.71,0,0,0-2.82-1.53,8.21,8.21,0,0,0-3.42,0c-1,.19-2.71.64-3,1.72-.05.19.2.54.42.44.48-.23.9-.57,1.38-.79a7.5,7.5,0,0,1,1.3-.4,7.25,7.25,0,0,1,2.86-.11,4.86,4.86,0,0,1,3.15,1.86,4.86,4.86,0,0,1,.43.68c.17.33.43.61.57.95.05.13.21.14.23,0a2.45,2.45,0,0,0,.07-.85A2.87,2.87,0,0,0,239.48,313.08Zm-2.4-.47c0-.1-.07-.27-.19-.26a2.27,2.27,0,0,0-.59.08,2.21,2.21,0,0,0-.27.12l-.38.15-.1,0h0l-.22,0H235a2.31,2.31,0,0,1-.73-.15c-.31-.11-.58-.32-.88-.43a.41.41,0,0,0-.36,0c-.08,0-.19.17-.15.27l.37.64,0,0,.08.07a3.62,3.62,0,0,0,.41.27,2,2,0,0,0,.4.16,3.43,3.43,0,0,0,1.11.16,2.27,2.27,0,0,0,1.89-.82.38.38,0,0,0,0-.33ZM194.76,284a.23.23,0,0,0-.35.13.39.39,0,0,0,.05.23c0,.06.18.14.19.18s-.06.2.06.3l.11.22.21.41a3.55,3.55,0,0,1,.25.86,3.47,3.47,0,0,1-.2,1.91,5,5,0,0,1-2.33,2.73c-.38.18-.15.55.15.71q-.12,0,0,0a.24.24,0,0,0,.12,0h.13a1.1,1.1,0,0,0,.18,0,2.19,2.19,0,0,0,.59-.21,3.8,3.8,0,0,0,.92-.73,6.17,6.17,0,0,0,1.27-2,4.34,4.34,0,0,0,.28-2.41A3.38,3.38,0,0,0,194.76,284Zm-1.89,5.75a1.27,1.27,0,0,0,.43.4c.09.05.28.05.33-.07a1,1,0,0,0,0-.42,2.36,2.36,0,0,1,0-.28,2.27,2.27,0,0,0-.06-.25c0-.13,0-.29-.07-.41a2.89,2.89,0,0,1,0-.88,3.75,3.75,0,0,1,.23-.77c.12-.27.31-.52.41-.79s-.24-.66-.52-.51a2.68,2.68,0,0,0-1.16,2,3.62,3.62,0,0,0,0,1.09,2.18,2.18,0,0,0,.19.56A2.11,2.11,0,0,0,192.87,289.73ZM164,343.52a5.75,5.75,0,0,0-3,.07,6.31,6.31,0,0,0-1.38.55,3.31,3.31,0,0,0-1.3,1.07c-.24.4.45.79.76.54a5.43,5.43,0,0,1,4.71-1.15,3.93,3.93,0,0,1,1.65,1c.53.55.9,1.21,1.38,1.8.06.08.26.15.33,0,.5-.9-.28-2.07-.93-2.68A5.17,5.17,0,0,0,164,343.52Zm1,2a.54.54,0,0,0-.39-.06,1.19,1.19,0,0,0-.3.15l-.12.05h0l-.07,0-.1,0h-.11l-.32,0h-.08l-.23,0a5.41,5.41,0,0,1-.79-.21,6.14,6.14,0,0,0-1-.32c-.22,0-.3.13-.26.33a1.38,1.38,0,0,0,.23.36l.08.07.18.13a4.59,4.59,0,0,0,.49.26,6.48,6.48,0,0,0,.78.26,3.26,3.26,0,0,0,1.58.08,1.15,1.15,0,0,0,.68-.43A.45.45,0,0,0,165,345.55Zm3.6-42.05a5.47,5.47,0,0,0-2-1.86,3.32,3.32,0,0,0-2.88-.24c-.44.21,0,.79.35.74a3.8,3.8,0,0,1,3.64,1.93,5.83,5.83,0,0,1,.72,1.75,7.91,7.91,0,0,1,.19,1.53c0,.37.09.74.09,1.11,0,.1.13.28.22.16a3.3,3.3,0,0,0,.65-2.54A6,6,0,0,0,168.6,303.5Zm-.5,2.66A.86.86,0,0,0,168,306l-.1-.07-.13,0-.2-.11-.22-.11h0l-.07-.05a2.42,2.42,0,0,1-.36-.27.34.34,0,0,1-.09-.08v0l0,0-.15-.17c-.09-.11-.18-.22-.26-.34a1.86,1.86,0,0,1-.19-.33,5.25,5.25,0,0,1-.27-.79.59.59,0,0,0-.51-.41.39.39,0,0,0-.46.32v0a.76.76,0,0,0,0,.15,1.55,1.55,0,0,0,0,.37,2.72,2.72,0,0,0,.13.49,3.81,3.81,0,0,0,.57,1,3.7,3.7,0,0,0,.8.73,5.24,5.24,0,0,0,.51.3,2.06,2.06,0,0,0,1.05.16.29.29,0,0,0,.29-.24C168.32,306.44,168.24,306.19,168.1,306.16Zm-41.22,22.45a6.07,6.07,0,0,0-2.66-1.38,7,7,0,0,0-3.15,0,5.56,5.56,0,0,0-2.91,1.21c-.4.39.39.88.76.65a7.66,7.66,0,0,1,2.72-.9,5.33,5.33,0,0,1,2.35.05,6.57,6.57,0,0,1,2.15,1.07,17.11,17.11,0,0,1,1.75,1.76c.13.12.35.14.37-.09C128.34,330.11,127.49,329.17,126.88,328.61Zm-1.39.9-.69.16c-.16,0-.31.07-.44.08a3.9,3.9,0,0,1-1.08,0,3.67,3.67,0,0,1-1-.34c-.36-.19-.7-.47-1.1-.66a.34.34,0,0,0-.49.39,2.15,2.15,0,0,0,1.11,1.11,4.86,4.86,0,0,0,1.27.47,4.45,4.45,0,0,0,1.31.08,2.75,2.75,0,0,0,1.61-.58C126.36,329.87,125.85,329.4,125.49,329.51Z" style="opacity: 0.2; transform-origin: 221.405px 306.699px;" class="animable"></path></g><path d="M269.18,187.15a73.81,73.81,0,0,1,5,13.42c.82,3.36,1.28,6.79,2.13,10.14,2.27,8.91,7.24,16.86,10.85,25.32a104.31,104.31,0,0,1,6.57,22.79c.51,2.91.7,4.84,3.88,4.57,3.69-.31,7.4-1.06,11.07-1.59l11.58-1.66c3.56-.52,7.26.34,6.35-4.09-2.22-10.83-4.5-21.81-9.51-31.66-2.22-4.37-5-8.46-7.26-12.8-4.54-8.57-7.3-18-10.09-27.23-1.3-4.32-2.74-8.84-6-12a20.74,20.74,0,0,0-7.44-4.19,51.37,51.37,0,0,0-22.09-2.87,5.35,5.35,0,0,0-3.06,1c-2,1.74,1.86,7.74,2.74,9.71C265.59,179.77,267.45,183.43,269.18,187.15Z" style="fill: rgb(255, 189, 167); transform-origin: 293.671px 214.255px;" id="elbu10fuzido" class="animable"></path><path d="M216.62,203.31l-.18.19a3.42,3.42,0,0,0-1.06,4.2c2.07,7.21,3.5,15.2,7,21.81,2.84,5.39,4.27,11.29,7.34,16.5,4,6.75,5.8,13.9,7.68,21.41.62,2.51.18,2.24,2.54,2.56a5.46,5.46,0,0,0,1.2.1c2-.21,4-1.3,6-1.13a12.41,12.41,0,0,0,2.72.18c.91-.12,1.81-.27,2.72-.36l12.67-1.2a7.38,7.38,0,0,0,3.79-1.06c2.9-2.11-.87-10.6-1.67-13.38A81.34,81.34,0,0,0,262,239c-2.23-4.37-5-8.46-7.26-12.79-4.54-8.57-7.3-17.95-10.09-27.24-1.36-4.52-3-9.18-6.14-12.81A95.89,95.89,0,0,0,216.62,203.31Z" style="fill: rgb(255, 189, 167); transform-origin: 242.588px 228.121px;" id="eluyt64173gpm" class="animable"></path><path d="M175.51,235.74c-2.77,2.07-7.9,4.65-9.61,7.7-1.52,2.71,2.71,7.83,4.09,10.17,4,6.76,5.8,13.9,7.68,21.42.62,2.5.18,2.23,2.54,2.55,3.84.52,8.8-.83,12.68-1.2l12.67-1.2a7.6,7.6,0,0,0,3.79-1.06c2.9-2.12-.87-10.61-1.67-13.38a80.28,80.28,0,0,0-5.44-14.15c-2.22-4.37-5-8.47-7.25-12.8-.7-1.31-3-9-4.83-8.78a2.12,2.12,0,0,0-1,.49Z" style="fill: rgb(255, 189, 167); transform-origin: 188.003px 251.352px;" id="elzb52colrgom" class="animable"></path><path d="M131.66,269.15l-16.32,14a5.51,5.51,0,0,0-1.62,1.88c-2,4.47,13.16,1.33,15.09,1.14l12.67-1.2a7.38,7.38,0,0,0,3.79-1.06c2.9-2.11-.87-10.6-1.67-13.38-.46-1.6-1.9-7.62-4.42-7.34a2.79,2.79,0,0,0-1.43.81Z" style="fill: rgb(255, 189, 167); transform-origin: 129.944px 275.299px;" id="elllvslp746f" class="animable"></path><path d="M203.24,244c-2.22-4.37-5-8.46-7.25-12.8-.7-1.31-3-9-4.83-8.78a2.12,2.12,0,0,0-1,.49L176.5,233.18c-2.1,1.58-4.43,2.83-6.51,4.45-2.54,2-5.07,4.79-4.28,8.25.67,2.9,2.8,5.23,4.28,7.73,4,6.76,5.8,13.9,7.68,21.42.62,2.5.18,2.23,2.54,2.55,3.84.52,8.8-.83,12.68-1.2l12.67-1.2a7.6,7.6,0,0,0,3.79-1.06c1.19-.87,1.69-3,1.88-4.38a12.57,12.57,0,0,0-.4-4.88c-.58-2.27-1.5-4.43-2.15-6.68A80.28,80.28,0,0,0,203.24,244Zm124.39,9.46c-2.22-10.83-4.5-21.81-9.51-31.66-2.22-4.37-5-8.46-7.26-12.8-4.54-8.57-7.3-17.95-10.09-27.23-1.3-4.32-2.74-8.84-6-12a20.89,20.89,0,0,0-7.44-4.19,51.52,51.52,0,0,0-22.09-2.87c-1.52.14-3.18.46-3.78,2a8.57,8.57,0,0,0-.84,3.31,9.27,9.27,0,0,0,.79,2.82c.72,1.75,1.74,3.35,2.51,5.07,1.68,3.74,3.54,7.4,5.27,11.12a73.81,73.81,0,0,1,5,13.42c.82,3.36,1.28,6.79,2.13,10.14,2.27,8.91,7.24,16.86,10.85,25.32a104.31,104.31,0,0,1,6.57,22.79c.51,2.91.7,4.84,3.88,4.57,3.69-.31,7.4-1.06,11.07-1.59l11.58-1.66c1.63-.24,3.49,0,5-.65s1.9-2.51,2.32-3.85A4.23,4.23,0,0,0,327.63,253.49Zm-187.45,7.1a2.77,2.77,0,0,0-1.43.8l-6.09,5.2-16.32,14a8.45,8.45,0,0,0-2.71,3.94c-1.37,4.31,7.39,2.75,9.37,2.5s3.87-.67,5.81-.86l12.67-1.2a7.38,7.38,0,0,0,3.79-1.06,5.47,5.47,0,0,0,1.41-2.45,8.12,8.12,0,0,0,.66-2.92,14.74,14.74,0,0,0-.57-3.84c-.59-2.29-1.51-4.46-2.17-6.73C144.14,266.32,142.7,260.3,140.18,260.59ZM263,236.42c-2.23-4.37-5-8.46-7.26-12.79-4.54-8.57-7.3-17.95-10.09-27.24-1.36-4.52-3-9.18-6.14-12.81a96.16,96.16,0,0,0-21.85,17.17l-.18.19c-1.8,1.91-2.82,4.12-2.06,6.76,2.07,7.21,3.5,15.2,7,21.81,2.84,5.39,4.27,11.29,7.34,16.5A64.22,64.22,0,0,1,236,261.9c.37,1.39.73,2.78,1.08,4.18.22.88.3,2.51,1,3.19,1.47,1.4,5.22-.53,6.91-.77,2.76-.39,5.56.45,8.34.26a39.63,39.63,0,0,0,4.93-.93,36.31,36.31,0,0,1,5.2-.59c1.43-.06,3.41.31,4.77-.12,2.1-.66,2.9-3.85,2.94-5.77a15.12,15.12,0,0,0-.52-3.84c-.59-2.37-1.55-4.6-2.22-6.94A81.34,81.34,0,0,0,263,236.42Z" style="fill: rgb(240, 153, 122); transform-origin: 220.61px 224.993px;" id="elx4q2qv2cgkp" class="animable"></path><path d="M270.18,184.59a73.81,73.81,0,0,1,5,13.42c.82,3.36,1.28,6.79,2.13,10.14,2.27,8.91,7.24,16.86,10.85,25.32a104.31,104.31,0,0,1,6.57,22.79c.51,2.91.7,4.84,3.88,4.57,3.69-.31,7.4-1.06,11.07-1.59l11.58-1.66c3.56-.52,7.26.34,6.35-4.09-2.22-10.83-4.5-21.81-9.51-31.66-2.22-4.37-5-8.46-7.26-12.8-4.54-8.57-7.3-17.95-10.09-27.23-1.3-4.32-2.74-8.84-6-12a20.89,20.89,0,0,0-7.44-4.19,51.52,51.52,0,0,0-22.09-2.87,5.29,5.29,0,0,0-3.06,1c-2,1.73,1.86,7.73,2.74,9.7C266.59,177.21,268.45,180.87,270.18,184.59Z" style="fill: rgb(255, 189, 167); transform-origin: 294.671px 211.696px;" id="elqev023tptpe" class="animable"></path><g id="el4go0ii8up13"><path d="M305,226.92l-1.82,0c-1.42,0-3.16.12-3.73,1.41-.68,1.52.85,3,2.17,4.05a64.2,64.2,0,0,1,15.23,16.59c.79,1.23,2.64,4.47,4.52,4.14,1.48-.25,1.24-2.22,1.29-3.44a37.2,37.2,0,0,0-.83-9.59c-1.27-5.8-4.5-12.19-11.11-12.8C308.83,227.05,306.92,227,305,226.92Z" style="fill: rgb(255, 255, 255); opacity: 0.1; transform-origin: 310.989px 240.027px;" class="animable"></path></g><g id="elblrp9ax8qlq"><path d="M271.65,165.92c-.39,0-.79,0-1.18.06a3.57,3.57,0,0,0-2.69,1,2.64,2.64,0,0,0,0,2.88c1.84,3.17,7,6.7,10.08,8.65l15.13,9.6c1.46.93,3.62,1.76,4.7.41,2.61-3.26-3.3-12.15-5.27-14.61C287.18,167.42,279.52,165.61,271.65,165.92Z" style="fill: rgb(255, 255, 255); opacity: 0.1; transform-origin: 282.848px 177.558px;" class="animable"></path></g><g id="el27nuhvuaok3h"><path d="M279.45,170c-.69.18-1.5.69-1.37,1.4a1.61,1.61,0,0,0,.72.89,73.64,73.64,0,0,0,9.86,6.31,2.06,2.06,0,0,0,1.66.35,1.32,1.32,0,0,0,.76-.88,3.38,3.38,0,0,0-.74-2.75,21.74,21.74,0,0,0-2.95-3.61C285.7,170,281.7,169.37,279.45,170Z" style="fill: rgb(255, 255, 255); opacity: 0.2; transform-origin: 284.598px 174.379px;" class="animable"></path></g><path d="M304.2,192.85a142.53,142.53,0,0,1-32.77-4.4c-.16,0,0,.84.12.89,10.57,3.91,21.67,4.94,32.93,5C305.26,194.4,304.83,192.86,304.2,192.85Z" style="fill: rgb(240, 153, 122); transform-origin: 288.132px 191.396px;" id="el9h9e1yftci9" class="animable"></path><path d="M217.62,200.75l-.18.19a3.42,3.42,0,0,0-1.06,4.2c2.07,7.21,3.5,15.2,7,21.81,2.84,5.39,4.27,11.29,7.34,16.5,4,6.75,5.8,13.9,7.68,21.41.62,2.51.18,2.24,2.54,2.56,3.84.52,8.8-.84,12.68-1.2L266.27,265a7.47,7.47,0,0,0,3.79-1.05c2.9-2.12-.87-10.61-1.67-13.39A81.34,81.34,0,0,0,263,236.42c-2.23-4.37-5-8.46-7.26-12.79-4.54-8.57-7.3-17.95-10.09-27.24-1.36-4.52-3-9.18-6.14-12.81A96.16,96.16,0,0,0,217.62,200.75Z" style="fill: rgb(255, 189, 167); transform-origin: 243.598px 225.559px;" id="elkcvw92uha8" class="animable"></path><g id="elhqsgo9h1u7a"><path d="M224,197.87c-2,1.64-3.65,3.74-3.25,6.17a6.27,6.27,0,0,0,3.45,4.17c1.65.89,3.5,1.34,5.22,2.06a18,18,0,0,1,8.38,7.23c1.27,2.1,2.1,4.44,3.31,6.56,3.81,6.65,11,10.59,15.82,16.56.68.84,3.49,4.28,4.91,3a.91.91,0,0,0,.24-.4,3.77,3.77,0,0,0-.61-2.88c-4.49-8.41-10.5-16.13-13.35-25.22-1.24-3.95-1.85-8.06-2.9-12.06s-2.6-8-5.4-11c-4-4.37-10.77,2.21-14.39,4.77C225,197.11,224.48,197.48,224,197.87Z" style="fill: rgb(255, 255, 255); opacity: 0.1; transform-origin: 241.42px 217.25px;" class="animable"></path></g><g id="elwzyoa6ka2j"><path d="M232,195.69a19,19,0,0,0-3.51,3.24,3.68,3.68,0,0,0-.77,1.51,1.55,1.55,0,0,0,.53,1.54,2.33,2.33,0,0,0,1.43.25c2.48-.13,8.31.29,9-2.65a9.73,9.73,0,0,0,.39-3.38C238.63,192,234.93,193.52,232,195.69Z" style="fill: rgb(255, 255, 255); opacity: 0.2; transform-origin: 233.385px 197.898px;" class="animable"></path></g><path d="M268.8,251.85c-.17-.5-.31-.93-.41-1.28a.56.56,0,0,1,0-.12c-6.15-.2-11.28-.45-17.55-1.23-3-.37-6.09-.36-9.09-.56-2.79-.18-5.76-.49-8.63-.56.19.43.38.86.56,1.3,3,0,6.22.4,9.21.67s5.73.14,8.71.61A95.68,95.68,0,0,0,268.8,251.85Z" style="fill: rgb(240, 153, 122); transform-origin: 250.96px 249.987px;" id="elzssqk0g4wg" class="animable"></path><path d="M176.51,233.18c-2.77,2.07-7.9,4.65-9.61,7.7-1.52,2.71,2.71,7.83,4.09,10.18,4,6.75,5.8,13.89,7.68,21.41.62,2.5.18,2.23,2.54,2.55,3.84.52,8.8-.83,12.68-1.2l12.67-1.2a7.6,7.6,0,0,0,3.79-1.06c2.9-2.12-.87-10.61-1.67-13.38A80.28,80.28,0,0,0,203.24,244c-2.22-4.37-5-8.46-7.25-12.8-.7-1.31-3-9-4.83-8.78a2.12,2.12,0,0,0-1,.49Z" style="fill: rgb(255, 189, 167); transform-origin: 189.003px 248.777px;" id="elnumetk5l6vd" class="animable"></path><g id="elj4it7gihrzk"><path d="M174.59,238.39c-.69.49-1.47,1.28-1.1,2a1.66,1.66,0,0,0,.44.51c5.07,4.39,12.39,5.86,16.73,11a62.08,62.08,0,0,1,3.71,5.58,55.19,55.19,0,0,0,8.32,9.11,2.22,2.22,0,0,0,1.63.82c.75-.1,1.18-.92,1.34-1.66.5-2.26-.25-4.58-1-6.76a211.51,211.51,0,0,0-12.55-28.61,5,5,0,0,0-1.3-1.78c-2-1.55-6,2.67-7.65,3.8Z" style="fill: rgb(255, 255, 255); opacity: 0.1; transform-origin: 189.608px 247.836px;" class="animable"></path></g><g id="el9305o0y1lsi"><path d="M179.81,237.53c-.56.41-1.18.94-1.15,1.63a1.87,1.87,0,0,0,1,1.33c2.41,1.54,5.62,1.28,8.13,2.65a26.25,26.25,0,0,0,3.08,1.86c1.12.43,2.63.26,3.19-.81a2.7,2.7,0,0,0,.23-1.29,11.28,11.28,0,0,0-1.15-4l-2.12-5c-1-2.25-2.41-2.39-4.24-1.16C184.44,234.31,182.09,235.88,179.81,237.53Z" style="fill: rgb(255, 255, 255); opacity: 0.2; transform-origin: 186.478px 238.594px;" class="animable"></path></g><path d="M132.66,266.59l-16.32,14a5.6,5.6,0,0,0-1.62,1.88c-2,4.47,13.16,1.33,15.09,1.15l12.67-1.2a7.58,7.58,0,0,0,3.79-1.06c2.9-2.12-.87-10.61-1.67-13.39-.46-1.6-1.9-7.62-4.42-7.33a2.77,2.77,0,0,0-1.43.8Z" style="fill: rgb(255, 189, 167); transform-origin: 130.944px 272.744px;" id="eltrcjub1m7gb" class="animable"></path><g id="elyezqya6fyaq"><path d="M123.64,276.12l-.3.3a1.68,1.68,0,0,0-.64,1.26,1.31,1.31,0,0,0,1.09,1c1.6.36,3-.06,4.62-.24,4.53-.51,9,.51,13.37,1.4a2.94,2.94,0,0,0,2.32-.18,2.44,2.44,0,0,0,.79-2,12.68,12.68,0,0,0-.55-3.45,37.66,37.66,0,0,0-1.59-4.85c-.51-1.21-1.26-4.7-2.93-4.71a5.76,5.76,0,0,0-2.71,1.28c-1,.63-2,1.27-2.91,1.91A67.44,67.44,0,0,0,123.64,276.12Z" style="fill: rgb(255, 255, 255); opacity: 0.1; transform-origin: 133.799px 272.324px;" class="animable"></path></g><g id="el1zzj22gaq2s"><path d="M134.37,269.05a2.59,2.59,0,0,0-1.37,2,2.07,2.07,0,0,0,.93,1.51,17,17,0,0,0,1.6.92c1.89,1.11,3.11,3.12,5,4.22a2.58,2.58,0,0,0,1.17.39,1.13,1.13,0,0,0,1-.56,1.67,1.67,0,0,0,.1-.86c-.18-2.93-1.33-5.55-2.14-8.33-.27-.92-1.05-2.36-2.24-2a10.56,10.56,0,0,0-1.72,1.09c-.7.44-1.39.9-2.07,1.36Z" style="fill: rgb(255, 255, 255); opacity: 0.2; transform-origin: 137.909px 272.187px;" class="animable"></path></g><path d="M175.81,268A59.4,59.4,0,0,0,170,253.62c-.87-1.48-2-2.82-2.8-4.31-.74-1.28-.95-2.3-2.79-2.07a7.59,7.59,0,0,0-2.41.87l-8,3.95a16.73,16.73,0,0,0-2.67,1.52,10.07,10.07,0,0,0-2.06,1.54,1.86,1.86,0,0,0-.26,1.06c0,.86-.05,1.33-.05,2,0,1.14,1,1.76,1.75,2.23s1.6,1,2.41,1.44c1.59.9,3.22,1.71,4.85,2.52a100.84,100.84,0,0,0,15.83,6.27c1,.29,2,.63,3,1C176.49,270.41,176.16,269.19,175.81,268Zm116.37-8.22a6.51,6.51,0,0,0-.63-.91c-1.83-2.31-5.12-3.49-7.91-4.36-.48-.16-1-.31-1.45-.45q-.42-.14-.87-.24a49.78,49.78,0,0,0-6.44-1.23c-1.11-.15-2.23-.27-3.35-.38l-1.45-.13-1.27-.11-.45,0-33.19-2.73c-.75-.07-1.49-.13-2.23-.21l-1.74-.18-.58-.07c-.87-.1-1.74-.21-2.6-.33-4-.55-8-1.25-12-2q-2.74-.53-5.47-1.1l-4.62-1-2.91-.64c.07.13.14.25.2.38a79.47,79.47,0,0,1,5.43,14.15c.66,2.25,1.58,4.41,2.16,6.68a12.58,12.58,0,0,1,.4,4.88,10.1,10.1,0,0,1-.22,1.16,5.53,5.53,0,0,1-1.66,3.22,4.16,4.16,0,0,1-.85.47c6.82-1,15.15-3.48,21.89-1.17,1.5.52,2.83,1.14,4.22.24a26.93,26.93,0,0,1,4.1-2.28,22,22,0,0,1,9-1.74c2.24.05,4.48.44,6.72.3a34.12,34.12,0,0,0,4.8-.81c6.67-1.38,13.47-1.92,20.2-3a81.76,81.76,0,0,0,10-2.11c1.12-.32,2.92-.62,3.29-1.94A3.36,3.36,0,0,0,292.18,259.76ZM370.69,225a9.88,9.88,0,0,0-1.28-3.82c-.1-.18-.21-.35-.31-.52s-.39-.62-.57-.87a4,4,0,0,0-.31-.45l-.14-.21c-1.93-2.66-4.25-5-6.31-7.55-2.94-3.63-6-7.26-9.79-10-5.47-4-12.22-5.81-19-6.4-6-.52-12.19.91-18.14.36-3.41-.31-6.76-.9-10.2-1.24-.77-.08-1.53-.15-2.31-.2A186.21,186.21,0,0,1,270,189c-7.33-1.78-14.58-3.91-21.76-6.23-2.85-.92-4.49-.94-7.15.65-1,.57-.94,1-.6,1.5h0a3.42,3.42,0,0,0,.21.31c.14.18.27.37.39.56a17.14,17.14,0,0,1,1.31,2.23,36.65,36.65,0,0,1,1.8,4.17c.11.28.21.57.3.85.4,1.12.75,2.26,1.09,3.39.47,1.54.93,3.09,1.4,4.64.59,1.94,1.2,3.88,1.83,5.8.37,1.14.75,2.27,1.14,3.4,0,0,0,0,0,.05.27.75.54,1.51.82,2.25s.56,1.51.86,2.26c.23.59.47,1.18.71,1.77s.61,1.43.92,2.13q2.4.84,4.83,1.55A107.14,107.14,0,0,0,281.49,224c12.37.77,25,0,37.53-.37,6.73-.22,13.45-.33,20.12-.06a126.15,126.15,0,0,1,16.68,1.66q4.13.72,8.16,1.84a27.78,27.78,0,0,1,3.92,1.21c.73.33,1.86,1.08,2.47.05a2,2,0,0,0,.16-.49,9.11,9.11,0,0,0,.19-2.45Z" style="fill: rgb(240, 153, 122); transform-origin: 259.848px 228.394px;" id="elhpuyhf1kj38" class="animable"></path><path d="M370.69,225c-.2.49-.83.65-2.15.19-9.64-3.34-19.29-4.51-29.4-4.92-27.11-1.1-54.94,4.15-81-3.36-2.18-.63-4.33-1.35-6.46-2.12-2.37-6-4.21-12.22-6.07-18.4A38.49,38.49,0,0,0,241.24,186a27.2,27.2,0,0,0-1.77-2.37c.51-.33,1-.61,1.64-1.07a4.37,4.37,0,0,1,3.87-.86c2.72.71,5.4,1.76,8.09,2.59,5.37,1.67,10.79,3.21,16.26,4.56a186.74,186.74,0,0,0,33.05,5.31c4.26.27,8.34,1.06,12.51,1.44,5.95.55,12.1-.88,18.14-.36,6.73.59,13.48,2.45,19,6.4,3.8,2.73,6.85,6.36,9.79,10,2.06,2.55,4.38,4.89,6.31,7.55l.14.21a4,4,0,0,1,.31.45c.18.25.37.55.57.87s.21.34.31.52C370.24,222.57,371,224.21,370.69,225Z" style="fill: rgb(255, 189, 167); transform-origin: 305.115px 203.512px;" id="el46soicohpgv" class="animable"></path><g id="elje1diwcdb1"><path d="M266.14,198.36c.54.14,1.06.28,1.56.44a133.57,133.57,0,0,1,17.06,6.7,74.39,74.39,0,0,0,11.11,4.75c5.41,1.56,11.14,1.51,16.76,1.17q4.68-.28,9.33-.82c4.85-.57,9.72-1.35,14.58-.91,2.63.23,5.54.06,8.09.63,3.24.71,6.23,2.4,9.58,2.6a2.11,2.11,0,0,0,1.72-.45,1.76,1.76,0,0,0,.37-1.3,5.91,5.91,0,0,0-2.25-3.7c-3.93-3.55-8.95-5.29-13.95-6.71-5.81-1.65-12-1.56-18-1.12s-12.05,1.21-18.07.89c-15.73-.85-30.27-9.07-46-10.53a17.55,17.55,0,0,0-4.68-.13,2.07,2.07,0,0,0-1.72,1.85,2.9,2.9,0,0,0,1.08,1.89C256,196.73,261.65,197.24,266.14,198.36Z" style="fill: rgb(255, 255, 255); opacity: 0.1; transform-origin: 303.971px 201.363px;" class="animable"></path></g><g id="el1fhu71x4n8k"><path d="M311.28,209a19.57,19.57,0,0,0,3.63-.16q7.88-.7,15.71-1.82a6.25,6.25,0,0,0,2.33-.66c2-1.16,1.09-2.72-.66-3.31a29,29,0,0,0-14-.79,33.39,33.39,0,0,0-8,2.28c-1.4.68-2.46,1.91-1.45,3.32A3.24,3.24,0,0,0,311.28,209Z" style="fill: rgb(255, 255, 255); opacity: 0.2; transform-origin: 321.263px 205.387px;" class="animable"></path></g><g id="el44q6x8kasaa"><path d="M337.19,205.67a1.38,1.38,0,0,0,.45.59,4.91,4.91,0,0,0,2.77,1,15.92,15.92,0,0,0,2.39,0,2.22,2.22,0,0,0,.77-.13,1.34,1.34,0,0,0,.59-1.59c-.57-1.9-3.48-2.8-5.29-2.18C338.14,203.7,336.92,204.83,337.19,205.67Z" style="fill: rgb(255, 255, 255); opacity: 0.2; transform-origin: 340.692px 205.235px;" class="animable"></path></g><path d="M170,253.62A59.4,59.4,0,0,1,175.81,268c-.69-.23-1.36-.45-2-.65a101,101,0,0,1-14.06-5.41q-3.47-1.64-6.79-3.53c-1.67-1-5.28-1.68-3.26-3.9,3.41-3.74,8.49-6.38,13.07-8.55a3.92,3.92,0,0,1,1.84-.51c1.51.08,1.95,2.78,2.61,3.88C168.06,250.78,169.12,252.14,170,253.62Z" style="fill: rgb(255, 189, 167); transform-origin: 162.456px 256.725px;" id="elmrek37qzq4a" class="animable"></path><path d="M292,259.52c-.23.62-1.69.71-2.17.81-1,.22-2,.41-3,.57-2,.34-4.06.61-6.1.87l-9.8,1.27-33.54,4.34L224.57,269q-6.78.88-13.56,1.86a10.1,10.1,0,0,0,.22-1.16,12.58,12.58,0,0,0-.4-4.88c-.58-2.27-1.5-4.43-2.16-6.68A79.47,79.47,0,0,0,203.24,244c-.06-.13-.13-.25-.2-.38l2.91.64,4.62,1q2.73.57,5.47,1.1c4,.78,8,1.48,12,2,.86.12,1.73.23,2.6.33l.58.07,1.74.18c.74.08,1.48.14,2.23.21l33.19,2.73.45,0,1.27.11,1.45.13c1.12.11,2.24.23,3.35.38a52.68,52.68,0,0,1,6.44,1.23,30.59,30.59,0,0,1,7.52,2.54,8.48,8.48,0,0,1,2.88,2.29,1.16,1.16,0,0,1,.3.76A.51.51,0,0,1,292,259.52Z" style="fill: rgb(255, 189, 167); transform-origin: 247.54px 257.24px;" id="ell0dkumikbvo" class="animable"></path><g id="el180se7v2pxj"><path d="M223.73,249.26a57.48,57.48,0,0,0-10-.39c-.53,0-1.21.23-1.23.76,0,1,2.22,2.33,3,2.72a23.35,23.35,0,0,0,4.21,1.55c2.58.81,5.11,1.75,7.67,2.64,2.37.83,4.73,1.13,7.08,1.85,4.06,1.26,8.17,2.38,12.32,3.29a53.77,53.77,0,0,0,5.52,1.18,48.08,48.08,0,0,0,11.54-.7l13.27-2a30.35,30.35,0,0,0,6.66-1.52c2-.78.85-2-.51-2.44a38.21,38.21,0,0,0-6.35-1.28c-4.18-.56-8.4-.71-12.58-1.16-5.51-.59-11-1.1-16.55-1.66-4.39-.45-8.79-1.09-13.19-1.53C230.93,250.23,227.34,249.66,223.73,249.26Z" style="fill: rgb(255, 255, 255); opacity: 0.1; transform-origin: 248.674px 255.875px;" class="animable"></path></g><g id="elasprcyfnks"><path d="M255.68,256.17c-.26-.17-.4-.34-.37-.48a.84.84,0,0,1,.29-.47,3.18,3.18,0,0,1,2.19-.55c5.95,0,12,.82,17.92,1.29a14.08,14.08,0,0,1,4.87,1c.2.09.42.21.47.43s-.36.63-.73.75a34.49,34.49,0,0,1-5.62,1.11,31.25,31.25,0,0,1-5.54.64,24.71,24.71,0,0,1-5.31-1C262.93,258.56,257.22,257.19,255.68,256.17Z" style="fill: rgb(255, 255, 255); opacity: 0.2; transform-origin: 268.18px 257.269px;" class="animable"></path></g><path d="M253.56,216.13c-1.09-2.76-2.29-5.47-3.26-8.28s-1.85-5.78-2.84-8.65a83.58,83.58,0,0,0-2.94-8.31,31.07,31.07,0,0,0-4.47-6.87c-.14-.15-.2.22-.15.31a59.48,59.48,0,0,1,4,7.34c1.08,2.76,1.86,5.64,2.66,8.49s1.63,5.41,2.55,8.08a60.48,60.48,0,0,0,3.29,8.2C252.75,217,253.88,217,253.56,216.13Z" style="fill: rgb(240, 153, 122); transform-origin: 246.75px 200.406px;" id="elehydw8en8vo" class="animable"></path><path d="M210.25,257.34a57.57,57.57,0,0,0-2.77-6.65c-1.19-2.46-1.9-4.63-3.52-6.84-.16-.22-1-.35-.92-.2.75,2.23,2,4.4,2.93,6.57s1.87,4.62,2.64,7a39,39,0,0,1,2.11,14.69c-.05.89,1.64,1.31,1.71.24A38,38,0,0,0,210.25,257.34Z" style="fill: rgb(240, 153, 122); transform-origin: 207.758px 258.185px;" id="eligngbii5xor" class="animable"></path></g></g></g><g id="freepik--Fork--inject-28" class="animable" style="transform-origin: 151.036px 383.042px;"><g id="freepik--fork--inject-28" class="animable" style="transform-origin: 151.036px 383.042px;"><g id="elosvg05e3eol"><path d="M252.74,431.8c23.15,13.52,36.84,14.86,36.84,14.86L292,443.9s-12.8-.57-47.67-25.34c-6.82-4.85-19.07-11.18-28.54-12.09s-15,2.08-19.91-.86h0L29.08,312.67c-6-3.18-23.79,7.94-17.82,11.12l173.92,88.48.15-.13-.16.14c8.38,4,6.61,17.39,12.91,24.22s15.38,13.51,37,22.79c22.28,9.54,39.15,6.28,39.15,6.28l2.44-2.54s-12.26,2-36.51-9.07c-8.35-3.79-17.51-9.81-15.52-11.91s9.21,4.09,17.53,7.44c26.5,10.66,37.48,10,37.48,10l1.9-2.46s-9.21,1-37.5-12.24c-7.89-3.68-15-8.92-12.73-11.47s9.45,3.64,16.08,6.9c26.72,13.16,36.24,13.54,36.24,13.54l2.89-3.1s-8.81-.45-37.76-15.68c-6.95-3.66-12.6-8.22-11-10.24S243.26,426.25,252.74,431.8Z" style="opacity: 0.15; transform-origin: 151.026px 389.106px;" class="animable"></path></g><g id="freepik--fork--inject-28" class="animable" style="transform-origin: 151.049px 378.212px;"><path d="M11.34,314.19l173.92,88.48A52.16,52.16,0,0,1,195.94,396l-.09-2.53L29.08,300.54c-5.15-2.74-19.15,5.18-19,9.44,0,.41.06,2.1.08,2.54A1.93,1.93,0,0,0,11.34,314.19Z" style="fill: rgb(55, 71, 79); transform-origin: 103.009px 351.323px;" id="elppc0w3i683h" class="animable"></path><g id="el45nszgucdgk"><path d="M184.07,397.52S38.87,324,28.06,318.59c-11.87-6-19.06-8.65-11.81-13.18,8.51-5.3,10.7-3.16,10.7-3.16a19.22,19.22,0,0,0-8,3.07c-4.27,2.95-.34,6.55,8.34,10.35S184.07,397.52,184.07,397.52Z" style="fill: rgb(255, 255, 255); opacity: 0.1; transform-origin: 98.7059px 349.671px;" class="animable"></path></g><path d="M276.76,453.4l-.05-2.5s-15.23,2.88-36.51-9.06c-8.76-3.61-12.61-7.08-14.93-9.67,1.78-.25,9.14,4.77,17,7.69,25.34,9.42,37.48,10,37.48,10l1.9-2.46-.05-2.5s-6.35,2.72-37.5-12.23c-9.52-3.56-11.05-6.16-12.79-8.58,1.32-1.47,9.43,4,16.1,6.88,27.6,12,36.32,13.16,36.32,13.16l2.9-3.1-.05-2.49s-5.36,1.2-37.76-15.69c-4.89-2.54-9.05-5.76-10.75-7.76,1.88-1.26,5.83,2.08,14.73,7.06C274,434,289.63,437,289.63,437l2.39-2.75,0-2.5s-13.39,1.41-47.67-25.35c-6.45-5.33-19.07-11.18-28.54-12.09s-15,2.09-19.91-.86a34.6,34.6,0,0,0-10.68,6.67,9.88,9.88,0,0,1,1.74,1.1c-.57.46-1.14.91-1.69,1.4,8.38,4,6.61,17.39,12.91,24.22s15.38,13.51,37,22.79c22.27,9.54,39.15,6.28,39.15,6.28Z" style="fill: rgb(55, 71, 79); transform-origin: 238.62px 424.949px;" id="el9efsacpkxvt" class="animable"></path><g id="el9rrs7qze5r"><path d="M200.5,414.39c-1.22-2.46-2.16-5.07-3.62-7.4a11,11,0,0,0-6.24-5.1,26.79,26.79,0,0,1,3.46,6.43c.58,1.69.91,3.47,1.38,5.2a31.57,31.57,0,0,0,12.66,17.56c1,.71,8.56,5.56,9,2.82.17-1.07-3.14-3.08-3.93-3.77-1.57-1.38-3.09-2.82-4.54-4.34A45.94,45.94,0,0,1,200.5,414.39Z" style="fill: rgb(255, 255, 255); opacity: 0.1; transform-origin: 203.893px 418.311px;" class="animable"></path></g></g></g></g><g id="freepik--Cherries--inject-28" class="animable" style="transform-origin: 366.239px 318.435px;"><g id="freepik--cherries--inject-28" class="animable" style="transform-origin: 366.239px 318.435px;"><g id="elw2qop22g49"><path d="M412.51,337.35c-10.06-5.8-26.36-5.8-36.42,0-3.9,2.25-6.27,5-7.15,8-10.11-4.82-25.11-4.51-34.58,1-10.05,5.81-10.05,15.22,0,21s26.36,5.8,36.42,0c3.9-2.26,6.27-5.06,7.15-8,10.11,4.82,25.11,4.5,34.58-1C422.56,352.57,422.56,343.16,412.51,337.35Z" style="opacity: 0.15; transform-origin: 373.435px 352.346px;" class="animable"></path></g><path d="M383.18,271.92c4.3.49,13.89-6.55,23.94-5.58,12.12,1.18,20.43,5.6,24.57,14.27s4.47,12.21,5.88,16.31c1.15,3.35,2.22,5,1.41,5.34s-3,.28-6.89.66-15.35,4.56-28.45-3.74c-14-8.89-15.57-23.67-20.76-25.62Z" style="fill: rgb(69, 90, 100); transform-origin: 411.072px 285.278px;" id="elocs913wuv6" class="animable"></path><g id="el38i2kfwahgm"><path d="M382.88,273.56l.3-1.64c4.3.49,13.89-6.55,23.94-5.58,1,.1,1.9.21,2.81.35a35.39,35.39,0,0,0-15.81,5.48c10.54,4.53,21.38,9.27,29.28,17.59a40.32,40.32,0,0,0-19.83-7.05,6.59,6.59,0,0,0-3.71.49,4.78,4.78,0,0,0-2,5,12,12,0,0,0,2.55,5.08,31.31,31.31,0,0,0,9,8.4,23.51,23.51,0,0,0,2.94,1.44,32.79,32.79,0,0,1-8.63-3.92C389.6,290.29,388.07,275.51,382.88,273.56Z" style="opacity: 0.15; transform-origin: 403.14px 284.684px;" class="animable"></path></g><g id="el38kzcioqff9"><path d="M430,281.6a36.9,36.9,0,0,1,1.28,3.66c.86,2.74,1.89,5.41,2.86,8.11a4.53,4.53,0,0,1,.41,2.19,2.64,2.64,0,0,1-1.85-.83,26,26,0,0,1-5.17-5.91,41.41,41.41,0,0,0-4.32-6.23,17.16,17.16,0,0,0-2.92-2.38c-5.09-3.48-10.95-5.42-16.06-8.67-2.77-1.76.37-3.31,2.26-3.31,7,0,15.44,2.75,20.19,8.13A19.3,19.3,0,0,1,430,281.6Z" style="fill: rgb(255, 255, 255); opacity: 0.15; transform-origin: 418.848px 281.895px;" class="animable"></path></g><path d="M393.87,274.21a14.84,14.84,0,0,0,1.87-.2,23.86,23.86,0,0,0,3.7-1c2.4-.88,4.73-2,7.18-2.72,0,0,0,.06,0,.07-2.47,1-4.84,2.29-7.34,3.23a20.6,20.6,0,0,1-3.78,1.06l-.18,0c1.09.34,2.17.7,3.24,1.09a14.92,14.92,0,0,0,2.4-.25,36.89,36.89,0,0,0,4.71-1.29c2.89-.94,6-1.94,9.1-1.26,0,0,0,.1,0,.09-3.35-.29-6.46.79-9.58,1.84a31.91,31.91,0,0,1-4.6,1.25l-.71.11q1.78.67,3.54,1.44c1.28.05,2.56.07,3.86,0,1.74-.11,3.48-.29,5.22-.42a27.18,27.18,0,0,1,10.13.63c.05,0,.05.14,0,.13a33.33,33.33,0,0,0-10.55-.22c-1.76.17-3.51.36-5.28.45-.63,0-1.27.07-1.92.08q2.75,1.26,5.42,2.73c.76.28,1.53.55,2.32.76a17.56,17.56,0,0,0,4.95.52,38,38,0,0,1,9.64.84s0,0,0,0c-1.65-.16-3.31-.3-5-.38s-3.49,0-5.24.05a16.49,16.49,0,0,1-4.32-.46c.91.54,1.82,1.1,2.72,1.68a31.19,31.19,0,0,0,2.95,1.17,22.7,22.7,0,0,0,3.72.83c1.27.18,2.56.19,3.84.3a18.59,18.59,0,0,1,4,.95s0,.1,0,.09a23.6,23.6,0,0,0-4.26-.66c-1.28-.07-2.55-.07-3.83-.24a23.87,23.87,0,0,1-4.06-.9c1,.67,1.94,1.36,2.9,2.07a28,28,0,0,0,5.49,2.27c2,.46,4.09.48,6,1.48,0,0,0,.07,0,.06-2.05-.86-4.36-.66-6.5-1.18a16.49,16.49,0,0,1-2.72-.93l.9.71c4.89,3.77,9.47,7.9,14.5,11.47-5.12-3.43-9.82-7.45-14.79-11.07-.48-.37-1-.73-1.45-1.08a21,21,0,0,1,2,2.49,20.16,20.16,0,0,1,1.8,3.29,14.22,14.22,0,0,0,1.83,3.73s0,.11,0,.07a11.64,11.64,0,0,1-1.86-3.34,22.11,22.11,0,0,0-2-3.49,21.72,21.72,0,0,0-2.58-3q-.72-.69-1.5-1.32a7.57,7.57,0,0,1-1.2-.93q-2-1.33-4.11-2.58a18,18,0,0,1,2.85,5.14c1.16,3,2,6.21,3.94,8.89,0,0,0,.1,0,.06-3.85-4.54-3.93-11.64-8.92-15.32-2-1.11-4-2.15-6.1-3.09.34.55.65,1.13.92,1.68a31,31,0,0,1,1.55,3.9c.47,1.4.91,2.81,1.45,4.18s1.29,2.85,2,4.25a29.56,29.56,0,0,1,2.11,5.11c0,.05,0,.09-.06,0-1-3.06-2.9-5.75-4.24-8.67-1.14-2.49-1.85-5.16-3-7.66a17.16,17.16,0,0,0-1.1-2.13,14.21,14.21,0,0,0-.94-1.26q-2.3-1-4.66-1.86a15.36,15.36,0,0,1,2,5.17,59.79,59.79,0,0,0,2.78,8.46,28.06,28.06,0,0,0,2.39,4.37s0,.1,0,.06a36.85,36.85,0,0,1-4.64-9.82c-.55-1.65-1-3.34-1.57-5a8.74,8.74,0,0,0-2.12-3.66c-1.64-.56-3.3-1.08-5-1.53a13.19,13.19,0,0,1,2.19,4.54c.82,2.78,1.4,5.62,2.1,8.43,0,0,0,0,0,0-.4-1.38-.88-2.73-1.28-4.11s-.71-2.54-1.11-3.79A12.56,12.56,0,0,0,393,275.4a69.16,69.16,0,0,0-11.48-1.93c-3-.28-6.08-.37-9.13-.35v-2A78.62,78.62,0,0,1,393.87,274.21Z" style="fill: rgb(55, 71, 79); transform-origin: 405.345px 285.92px;" id="elrkny5rk6s7" class="animable"></path><path d="M355.61,327.39c-4.25-.79-11.36-10.32-21.26-12.33-11.94-2.42-21.18-.62-27.67,6.47s-7.85,10.37-10.39,13.88c-2.08,2.86-3.59,4.14-2.91,4.69s2.79,1.14,6.4,2.64,13.35,8.85,28.3,4.74c16-4.4,21.81-18.09,27.34-18.44Z" style="fill: rgb(69, 90, 100); transform-origin: 324.412px 331.378px;" id="eljzzjwd76nik" class="animable"></path><g id="ela6cwbgdp4gd"><path d="M355.42,329l.19-1.65c-4.25-.79-11.36-10.32-21.26-12.33-1-.19-1.88-.36-2.79-.49a35.34,35.34,0,0,1,13.51,9.86c-11.4,1.25-23.15,2.62-33.14,8.26a40.37,40.37,0,0,1,21-.95,6.7,6.7,0,0,1,3.41,1.56,4.8,4.8,0,0,1,.49,5.36,11.88,11.88,0,0,1-3.93,4.11,31.16,31.16,0,0,1-11,5.41,23.89,23.89,0,0,1-3.23.53,33,33,0,0,0,9.4-1.23C344.11,343.08,349.89,329.39,355.42,329Z" style="opacity: 0.15; transform-origin: 333.77px 331.602px;" class="animable"></path></g><g id="elnrzux5ene2"><path d="M308,323c-.83,1-1.56,2.06-2.29,3.12-1.62,2.37-3.38,4.63-5.1,6.92a4.5,4.5,0,0,0-1,2,2.62,2.62,0,0,0,2-.25,26.5,26.5,0,0,0,6.68-4.15,42,42,0,0,1,5.95-4.7,17.35,17.35,0,0,1,3.49-1.41c5.89-1.85,12.05-2,17.89-3.6,3.17-.88.61-3.28-1.2-3.83-6.72-2.05-15.56-1.89-21.68,1.87A19.63,19.63,0,0,0,308,323Z" style="fill: rgb(255, 255, 255); opacity: 0.15; transform-origin: 318.366px 325.462px;" class="animable"></path></g><path d="M344.72,326.46a13.9,13.9,0,0,1-1.73-.75,21.85,21.85,0,0,1-3.24-2c-2.05-1.54-3.95-3.28-6.08-4.7,0,0-.05.05,0,.07,2.06,1.69,3.95,3.6,6.07,5.22a19.8,19.8,0,0,0,3.31,2.12l.16.08c-1.14,0-2.27,0-3.41.09a14.49,14.49,0,0,1-2.22-.94,37.76,37.76,0,0,1-4.13-2.61c-2.49-1.75-5.22-3.62-8.34-3.87,0,0-.07.09,0,.1,3.29.69,5.95,2.63,8.63,4.55a30.78,30.78,0,0,0,4,2.54c.2.11.42.21.64.31-1.27.08-2.54.2-3.8.35-1.25-.33-2.47-.68-3.69-1.13-1.64-.61-3.25-1.29-4.88-1.93a26.83,26.83,0,0,0-9.87-2.35c-.06,0-.08.12,0,.12a33.6,33.6,0,0,1,10.14,2.87c1.64.68,3.26,1.37,4.92,2,.6.22,1.2.43,1.82.63-2,.27-4,.62-6,1-.81.05-1.63.08-2.44.05a17.37,17.37,0,0,1-4.89-.95,37.46,37.46,0,0,0-9.47-2s0,0,0,0c1.63.33,3.26.68,4.87,1.1s3.34,1,5,1.57a16.32,16.32,0,0,0,4.26.83q-1.54.38-3.09.81a30.32,30.32,0,0,1-3.17.25,23,23,0,0,1-3.79-.28c-1.27-.21-2.51-.57-3.76-.85a19.16,19.16,0,0,0-4.07-.24s-.06.08,0,.08a23.53,23.53,0,0,1,4.26.62c1.25.31,2.47.67,3.74.88a23.53,23.53,0,0,0,4.14.33c-1.13.36-2.25.73-3.38,1.13a27.23,27.23,0,0,1-5.91.57c-2.07-.15-4-.74-6.14-.33,0,0,0,.07,0,.06,2.21-.22,4.37.65,6.56.78a17.3,17.3,0,0,0,2.87-.1l-1.07.42c-5.77,2.17-11.36,4.78-17.21,6.73,5.9-1.79,11.57-4.25,17.38-6.27l1.7-.61a21.31,21.31,0,0,0-2.65,1.8A19.52,19.52,0,0,0,308,337.2a14.65,14.65,0,0,1-2.84,3s0,.1,0,.07a11.57,11.57,0,0,0,2.76-2.65,22,22,0,0,1,3-2.74,21.58,21.58,0,0,1,3.34-2.11c.6-.31,1.21-.58,1.83-.83a8.79,8.79,0,0,0,1.42-.54c1.54-.46,3.11-.88,4.68-1.26a17.62,17.62,0,0,0-4.23,4.08c-2,2.56-3.75,5.34-6.36,7.35,0,0,0,.09,0,.07,5-3.23,7.16-10,13-12.06,2.24-.47,4.48-.87,6.74-1.17-.49.43-1,.9-1.37,1.34a30.62,30.62,0,0,0-2.62,3.28c-.86,1.2-1.69,2.42-2.61,3.57s-2.07,2.35-3.15,3.49a29.24,29.24,0,0,0-3.5,4.27s0,.09,0,0c1.9-2.62,4.46-4.65,6.59-7.05,1.82-2.05,3.27-4.39,5.07-6.46a16.93,16.93,0,0,1,1.68-1.71,12.88,12.88,0,0,1,1.26-.94c1.66-.19,3.33-.33,5-.41a15.32,15.32,0,0,0-3.47,4.35,60.22,60.22,0,0,1-5.12,7.27,27.3,27.3,0,0,1-3.56,3.49s0,.09,0,.06a36.5,36.5,0,0,0,7.31-8c1-1.43,1.94-2.91,3-4.32a8.9,8.9,0,0,1,3.1-2.88c1.73-.06,3.47-.07,5.21,0a13.18,13.18,0,0,0-3.42,3.71c-1.6,2.41-3,5-4.48,7.44,0,0,0,.05,0,0,.79-1.2,1.64-2.36,2.42-3.56s1.43-2.22,2.17-3.3a12.78,12.78,0,0,1,4.32-4.27,70.69,70.69,0,0,1,11.54,1.51c3,.62,5.92,1.43,8.83,2.33l.58-1.88A77.94,77.94,0,0,0,344.72,326.46Z" style="fill: rgb(55, 71, 79); transform-origin: 330.225px 331.705px;" id="el5vzm0zh4uk" class="animable"></path><path d="M355.6,328.94c-.48-4.29,6.56-13.88,5.58-23.94-1.17-12.12-5.59-20.43-14.27-24.56S334.7,276,330.6,274.55c-3.34-1.15-5-2.22-5.33-1.41s-.29,3-.66,6.9-4.57,15.34,3.73,28.45c8.9,14,23.68,15.57,25.63,20.76Z" style="fill: rgb(69, 90, 100); transform-origin: 342.248px 301.053px;" id="elutktrvf3gfl" class="animable"></path><g id="el64bb7jesagp"><path d="M354,329.25l1.63-.31c-.48-4.29,6.56-13.88,5.58-23.94-.09-1-.21-1.9-.34-2.81A35.42,35.42,0,0,1,355.36,318c-4.53-10.54-9.27-21.38-17.59-29.28a40.32,40.32,0,0,1,7.05,19.83,6.63,6.63,0,0,1-.49,3.72,4.82,4.82,0,0,1-5,2,12,12,0,0,1-5.07-2.56,31.31,31.31,0,0,1-8.4-9,23.51,23.51,0,0,1-1.44-2.94,32.94,32.94,0,0,0,3.91,8.64C337.24,322.52,352,324.06,354,329.25Z" style="opacity: 0.15; transform-origin: 342.862px 308.985px;" class="animable"></path></g><g id="el4ts96vo6z4w"><path d="M345.92,282.09a38.45,38.45,0,0,0-3.65-1.28c-2.74-.86-5.42-1.89-8.11-2.86a4.57,4.57,0,0,0-2.2-.41,2.64,2.64,0,0,0,.83,1.85,26.08,26.08,0,0,0,5.92,5.17,43.23,43.23,0,0,1,6.23,4.32,17.1,17.1,0,0,1,2.37,2.92c3.49,5.09,5.43,10.95,8.68,16.06,1.75,2.77,3.31-.37,3.31-2.26,0-7-2.75-15.44-8.14-20.19A19.15,19.15,0,0,0,345.92,282.09Z" style="fill: rgb(255, 255, 255); opacity: 0.15; transform-origin: 345.63px 293.242px;" class="animable"></path></g><path d="M353.32,318.25a13.19,13.19,0,0,1,.2-1.87,21.83,21.83,0,0,1,1-3.7c.87-2.4,2-4.73,2.71-7.18,0,0-.06,0-.07,0-1,2.47-2.29,4.84-3.22,7.34a20,20,0,0,0-1.06,3.78l0,.18c-.33-1.09-.7-2.16-1.08-3.23a14,14,0,0,1,.25-2.41,36.3,36.3,0,0,1,1.29-4.7c.94-2.9,1.94-6.05,1.26-9.11,0,0-.1,0-.1,0,.3,3.35-.78,6.46-1.83,9.59a30.55,30.55,0,0,0-1.25,4.59c0,.23-.08.47-.11.71q-.68-1.79-1.44-3.54a35.5,35.5,0,0,1,0-3.86c.1-1.74.28-3.48.42-5.22a27,27,0,0,0-.64-10.13c0-.05-.14-.05-.12,0a33.86,33.86,0,0,1,.22,10.54c-.18,1.76-.36,3.52-.46,5.28,0,.63-.06,1.28-.07,1.92-.84-1.83-1.75-3.64-2.73-5.41a24.36,24.36,0,0,1-.76-2.33,17.16,17.16,0,0,1-.52-4.95,37.6,37.6,0,0,0-.85-9.64h0c.16,1.65.3,3.31.37,5s0,3.49,0,5.24a16.07,16.07,0,0,0,.45,4.32c-.54-.91-1.1-1.82-1.68-2.72a30.1,30.1,0,0,1-1.16-2.95,23.69,23.69,0,0,1-.84-3.71c-.17-1.28-.18-2.57-.29-3.85a18.59,18.59,0,0,0-.95-4s-.1,0-.09,0a23.73,23.73,0,0,1,.66,4.26c.06,1.28.07,2.56.24,3.83a23.66,23.66,0,0,0,.9,4.06c-.67-1-1.36-1.94-2.07-2.9a27.52,27.52,0,0,1-2.28-5.49c-.46-2-.47-4.09-1.47-6,0,0-.07,0-.06,0,.86,2,.66,4.37,1.18,6.5a16.49,16.49,0,0,0,.93,2.72l-.72-.9c-3.76-4.88-7.89-9.47-11.46-14.49,3.43,5.11,7.44,9.81,11.07,14.79l1.08,1.45a19.91,19.91,0,0,0-2.49-2,18.84,18.84,0,0,0-3.3-1.8,14.53,14.53,0,0,1-3.73-1.83s-.11,0-.07,0a11.82,11.82,0,0,0,3.35,1.86,21.85,21.85,0,0,1,3.49,2.05,22.16,22.16,0,0,1,3,2.57,19.14,19.14,0,0,1,1.33,1.51,8.61,8.61,0,0,0,.92,1.19q1.35,2,2.58,4.11a17.92,17.92,0,0,0-5.13-2.85c-3-1.16-6.21-2-8.9-3.94,0,0-.1,0-.06,0,4.55,3.85,11.65,3.93,15.33,8.92,1.11,2,2.14,4,3.09,6.11a17.44,17.44,0,0,0-1.68-.92,30.62,30.62,0,0,0-3.91-1.56c-1.4-.46-2.8-.91-4.17-1.45s-2.86-1.29-4.26-2a29.42,29.42,0,0,0-5.1-2.1c-.05,0-.09,0,0,0,3.06,1.05,5.74,2.9,8.67,4.24,2.49,1.14,5.15,1.85,7.65,3a16,16,0,0,1,2.13,1.11,11.7,11.7,0,0,1,1.26.93c.67,1.53,1.29,3.09,1.87,4.66a15.41,15.41,0,0,0-5.18-2,59.66,59.66,0,0,1-8.45-2.78,26.19,26.19,0,0,1-4.38-2.39s-.1,0-.06,0a37.14,37.14,0,0,0,9.82,4.64c1.66.55,3.35,1,5,1.57a8.77,8.77,0,0,1,3.65,2.12q.85,2.46,1.54,5a13,13,0,0,0-4.54-2.18c-2.78-.83-5.62-1.41-8.43-2.11,0,0,0,0,0,0,1.37.41,2.73.88,4.11,1.28s2.53.71,3.79,1.11a12.69,12.69,0,0,1,5.34,2.88,70.09,70.09,0,0,1,1.93,11.47c.28,3,.36,6.09.35,9.13h2A78.62,78.62,0,0,0,353.32,318.25Z" style="fill: rgb(55, 71, 79); transform-origin: 341.625px 306.715px;" id="elljcl9i3o0co" class="animable"></path><g id="freepik--Cherry--inject-28" class="animable" style="transform-origin: 394.847px 314.14px;"><path d="M417.33,322.61c-3.58-6.76-7.66-8-13.05-8.18-1.74-.07-4,.27-5.56-.25s-3-2-5.12-2.82a15.34,15.34,0,0,0-14.64,2c-8.52,5.91-11.66,18.12-6,29.59,4.59,9.28,11.87,9.49,15.74,10.19s13.36,5.19,21.5-2.26C417.62,344.13,422.7,332.75,417.33,322.61Z" style="fill: rgb(255, 193, 0); transform-origin: 394.833px 332.73px;" id="eld0mxsuoxpk4" class="animable"></path><g id="elxegc3bjafqf"><path d="M417.33,322.61c-3.58-6.76-7.66-8-13.05-8.18-1.74-.07-4,.27-5.56-.25s-3-2-5.12-2.82a15.34,15.34,0,0,0-14.64,2c-8.52,5.91-11.66,18.12-6,29.59,4.59,9.28,11.87,9.49,15.74,10.19s13.36,5.19,21.5-2.26C417.62,344.13,422.7,332.75,417.33,322.61Z" style="fill: rgb(255, 255, 255); opacity: 0.1; transform-origin: 394.833px 332.73px;" class="animable"></path></g><g id="elo30udfvaxnp"><path d="M385.26,316.14c-.21.19-.41.4-.61.6a20.59,20.59,0,0,1-2.92,2.91,7.28,7.28,0,0,1-5.49,1.2,1.13,1.13,0,0,1-.75-.37c-.64-.88.4-2.32.95-3a17.87,17.87,0,0,1,6.14-4.55,15.1,15.1,0,0,1,7.81-1.12,11.92,11.92,0,0,1,5.38,1.87,12,12,0,0,0,4.67,1.94,1.34,1.34,0,0,1,.64.23.81.81,0,0,1,.16.88,2,2,0,0,1-.57.75,1.92,1.92,0,0,1-1.24.6c-1.09,0-2.29-1.75-3.21-2.3a11.17,11.17,0,0,0-3.82-1.42,9.52,9.52,0,0,0-4.28-.05A7.55,7.55,0,0,0,385.26,316.14Z" style="fill: rgb(255, 255, 255); opacity: 0.1; transform-origin: 388.297px 316.334px;" class="animable"></path></g><g id="el5lax4k2sl36"><path d="M415.49,341a20.21,20.21,0,0,1-5.38,5.71,14.34,14.34,0,0,1-14.94.46c-1.65-1-3.13-2.28-4.95-2.86-2.71-.85-5.63.08-8.47-.11a12.42,12.42,0,0,1-8.65-4.71,15.79,15.79,0,0,1-2.84-5.62A27.33,27.33,0,0,0,373,343c4.59,9.28,11.87,9.49,15.74,10.19s13.36,5.19,21.5-2.26c5.12-4.67,9.12-11.53,9.35-18.66A30.92,30.92,0,0,1,415.49,341Z" style="opacity: 0.15; transform-origin: 394.925px 343.72px;" class="animable"></path></g><g id="elimiwj67u68h"><path d="M379.3,350.33a13.65,13.65,0,0,0,1.5-4.65c1-6.05-.36-12.29-2.79-17.9a21,21,0,0,0-5.16-7.58c-3.5,6.35-3.85,14.74.11,22.78A17.36,17.36,0,0,0,379.3,350.33Z" style="opacity: 0.15; transform-origin: 375.619px 335.265px;" class="animable"></path></g><g id="el1k5z8brvou3"><path d="M400.66,318.73c0-.11-.24-.26-.32-.09a7.84,7.84,0,0,1-1.77,2.95,6.39,6.39,0,0,1-3.29,1.64c-1.89.24-3.5-.55-5.26-1.1a.22.22,0,0,0-.16,0c-.14.05-.1.27,0,.4a4.36,4.36,0,0,0,2.92,2.05,7.6,7.6,0,0,0,3.76,0,6.1,6.1,0,0,0,3.3-2A4.29,4.29,0,0,0,400.66,318.73Z" style="fill: rgb(255, 255, 255); opacity: 0.1; transform-origin: 395.291px 321.69px;" class="animable"></path></g><path d="M397.34,317.89c1.79.57,2.12,2.06.73,3.33a6.53,6.53,0,0,1-5.77,1.26c-1.79-.57-2.12-2.06-.73-3.33A6.55,6.55,0,0,1,397.34,317.89Z" style="fill: rgb(255, 193, 0); transform-origin: 394.82px 320.186px;" id="elblzb5bmmfcb" class="animable"></path><g id="el0ja393zbliwp"><path d="M397.34,317.89c1.79.57,2.12,2.06.73,3.33a6.53,6.53,0,0,1-5.77,1.26c-1.79-.57-2.12-2.06-.73-3.33A6.55,6.55,0,0,1,397.34,317.89Z" style="fill: rgb(255, 255, 255); opacity: 0.2; transform-origin: 394.82px 320.186px;" class="animable"></path></g><g id="el2fobeoguy3n"><path d="M397,318.66c1.49.48,1.76,1.72.6,2.78a5.42,5.42,0,0,1-4.81,1.05c-1.49-.47-1.76-1.72-.6-2.77A5.45,5.45,0,0,1,397,318.66Z" style="fill: rgb(255, 193, 0); opacity: 0.4; transform-origin: 394.895px 320.578px;" class="animable"></path></g><path d="M398.23,319.61a37,37,0,0,0-2.31-12.12c-3.37-8.35-21.57-34.38-21.57-34.38l-2,1.27S391.3,299,394.3,308.75c1.89,6.17-.16,8.4-2.37,11.24h0c-.85,1-.51,2.07.86,2.5a5.42,5.42,0,0,0,4.81-1.05A1.61,1.61,0,0,0,398.23,319.61Z" style="fill: rgb(69, 90, 100); transform-origin: 385.329px 297.889px;" id="ellxxbyv7abu" class="animable"></path><path d="M397.61,321.44a1.61,1.61,0,0,0,.62-1.83,37.41,37.41,0,0,0-2.1-11.57h0c1.4,5.08,1.57,10.14-.56,12.15-1.75,1.65-3.54,1.18-3.86.12-.53.89-.13,1.79,1.09,2.18A5.42,5.42,0,0,0,397.61,321.44Z" style="fill: rgb(38, 50, 56); transform-origin: 394.895px 315.354px;" id="el5173zxcy4di" class="animable"></path><path d="M412.81,333.39c2.4,1.31,4.38-.51,4.53-3a8.45,8.45,0,0,0-1.13-5.08,4.84,4.84,0,0,0-4.46-2.29c-3.25.42-3.53,4.12-2.37,6.43A8.71,8.71,0,0,0,412.81,333.39Z" style="fill: rgb(255, 193, 0); transform-origin: 413.067px 328.418px;" id="el73tgg3jikr3" class="animable"></path><g id="el9mj173ty1s"><path d="M412.81,333.39c2.4,1.31,4.38-.51,4.53-3a8.45,8.45,0,0,0-1.13-5.08,4.84,4.84,0,0,0-4.46-2.29c-3.25.42-3.53,4.12-2.37,6.43A8.71,8.71,0,0,0,412.81,333.39Z" style="fill: rgb(255, 255, 255); opacity: 0.4; transform-origin: 413.067px 328.418px;" class="animable"></path></g><g id="el9t17a1kwrb"><path d="M412.79,337.1a2.8,2.8,0,0,0,.13,1.6,1.48,1.48,0,0,0,1.24.93,1.45,1.45,0,0,0,1.08-.47,2.58,2.58,0,0,0,.56-1.06,2.87,2.87,0,0,0-.05-1.92C414.85,334.08,413.07,335.47,412.79,337.1Z" style="fill: rgb(255, 255, 255); opacity: 0.4; transform-origin: 414.335px 337.374px;" class="animable"></path></g><g id="elnfumt7vqjya"><path d="M399.92,323.57a8.49,8.49,0,0,1-1.19.71,11.9,11.9,0,0,1-4.9,1.19,17,17,0,0,0-2,0c-.13,0-.28.05-.34.17s0,.32.13.44c1.08,1.1,3.24,1.07,4.65,1.06,4.64-.06,8.62-2.17,12.13-5a4.17,4.17,0,0,0,1.58-2,2.94,2.94,0,0,0-1.64-3.15c-.94-.51-2.76-1.3-3.84-.81-1.29.58-1.25,2.58-1.72,3.81A7.82,7.82,0,0,1,399.92,323.57Z" style="fill: rgb(255, 255, 255); opacity: 0.2; transform-origin: 400.744px 321.584px;" class="animable"></path></g><g id="el2hmf6z6oynx"><path d="M386.54,323.81a.5.5,0,0,0-.12.08.29.29,0,0,0-.05.13c-.07.42.35.74.73.94a8.7,8.7,0,0,0,1.83.72c.64.18,1.67.11.86-.71C389.34,324.51,387.26,323.41,386.54,323.81Z" style="fill: rgb(255, 255, 255); opacity: 0.2; transform-origin: 388.225px 324.743px;" class="animable"></path></g><g id="elxyvf5vbi8a"><path d="M382.88,325.68c-1.67-1.52-2.83-3.29-5.5-2.43a5.74,5.74,0,0,0-3.69,4.93,8.7,8.7,0,0,0,2,6.05,9.92,9.92,0,0,0,4.05,3.14,16,16,0,0,0,4.24.87c3.42.38,6.95.64,10.27-.29s6.43-3.29,7.36-6.61a2.18,2.18,0,0,0,0-1.31c-.34-.95-1.6-1.11-2.61-1.12C393.83,328.88,387.1,329.49,382.88,325.68Z" style="fill: rgb(255, 255, 255); opacity: 0.1; transform-origin: 387.694px 330.805px;" class="animable"></path></g></g><g id="freepik--cherry--inject-28" class="animable" style="transform-origin: 353.12px 314.687px;"><g id="freepik--cherry--inject-28" class="animable" style="transform-origin: 353.12px 340.124px;"><path d="M351.82,364.1a19.31,19.31,0,0,0,4.95-.26,37.44,37.44,0,0,0,15-8.28c4.48-4.9,6.34-13.06,5.26-19.47-1.16-6.9-4.94-13.39-11-17.11-4.78-3-11.12-4-16.31-1.55-2.54,1.19-4.83,2.85-7.34,4.1-1.57.79-3.22,1.4-4.75,2.26-13.86,7.79-9.62,28.19,1.73,36A25.93,25.93,0,0,0,351.82,364.1Z" style="fill: rgb(255, 193, 0); transform-origin: 353.12px 340.104px;" id="elso646pg41o" class="animable"></path><g id="elxhxzbtkyqlh"><path d="M351.82,364.1a19.31,19.31,0,0,0,4.95-.26,37.44,37.44,0,0,0,15-8.28c4.48-4.9,6.34-13.06,5.26-19.47-1.16-6.9-4.94-13.39-11-17.11-4.78-3-11.12-4-16.31-1.55-2.54,1.19-4.83,2.85-7.34,4.1-1.57.79-3.22,1.4-4.75,2.26-13.86,7.79-9.62,28.19,1.73,36A25.93,25.93,0,0,0,351.82,364.1Z" style="fill: rgb(255, 255, 255); opacity: 0.1; transform-origin: 353.12px 340.104px;" class="animable"></path></g><g id="el0vwwvlm3bez"><path d="M371.72,355.56a19.58,19.58,0,0,0,3.26-5,23.18,23.18,0,0,1-3.15,3.63,13.21,13.21,0,0,1-7.74,3.69c-2.17.17-4.41-.35-6.51.22a43.18,43.18,0,0,0-4.23,1.91c-4.67,1.87-11.13.27-15.05-2.88a27.21,27.21,0,0,1-8.61-11.7,25.33,25.33,0,0,0,9.66,14.41,25.93,25.93,0,0,0,12.47,4.3,19.31,19.31,0,0,0,4.95-.26,37.44,37.44,0,0,0,15-8.28Z" style="opacity: 0.15; transform-origin: 352.335px 354.813px;" class="animable"></path></g><g id="elkk9w6cf0n8n"><path d="M346.37,328.38a.08.08,0,0,1,.07,0c.29-.07.28.58.28.77A7.52,7.52,0,0,0,347.8,333a6.6,6.6,0,0,0,2.82,2.19,9.26,9.26,0,0,0,3.53.9,9.12,9.12,0,0,0,3.66-.6.32.32,0,0,1,.25,0c.32.11-.13.77-.23.9-2.1,2.52-5.52,2-8.18.75a7.2,7.2,0,0,1-3.57-3.19,6.12,6.12,0,0,1-.55-3.18,5.29,5.29,0,0,1,.46-1.71A2.75,2.75,0,0,1,346.37,328.38Z" style="fill: rgb(255, 255, 255); opacity: 0.2; transform-origin: 351.838px 333.276px;" class="animable"></path></g><path d="M351.08,328a2.3,2.3,0,0,0-2,3.49,5.48,5.48,0,0,0,5,2.91,2.3,2.3,0,0,0,2-3.49A5.46,5.46,0,0,0,351.08,328Z" style="fill: rgb(255, 193, 0); transform-origin: 352.58px 331.2px;" id="el7nw9m17yhdh" class="animable"></path><g id="el1ad4b2s4h7w"><path d="M351.08,328a2.3,2.3,0,0,0-2,3.49,5.48,5.48,0,0,0,5,2.91,2.3,2.3,0,0,0,2-3.49A5.46,5.46,0,0,0,351.08,328Z" style="fill: rgb(255, 255, 255); opacity: 0.2; transform-origin: 352.58px 331.2px;" class="animable"></path></g><g id="elabfktqhk8sn"><path d="M357.12,330.5a8.83,8.83,0,0,1,.5,2.22,1.86,1.86,0,0,0,.35,1.14,1.27,1.27,0,0,0,1.55,0,3.25,3.25,0,0,0,1.22-3.18,8.65,8.65,0,0,0-1.42-3.27c-.6-.95-2.06-2.74-3-1.23C355.54,327.44,356.68,329.34,357.12,330.5Z" style="fill: rgb(255, 255, 255); opacity: 0.2; transform-origin: 358.425px 329.86px;" class="animable"></path></g><g id="elm9rg4rpwq8l"><path d="M333.17,329.83a12.89,12.89,0,0,0-.48,13.47,7.36,7.36,0,0,0,4.24,3.19,8.31,8.31,0,0,0,5.95-.38,3.74,3.74,0,0,0,1.95-3.85c-.27-2.67-1.65-5-2.52-7.55s-.11-4.51-.62-7c-.32-1.51-2-2-3.37-1.79a8.92,8.92,0,0,0-5,3.63Z" style="fill: rgb(255, 255, 255); opacity: 0.2; transform-origin: 337.945px 336.371px;" class="animable"></path></g><g id="elwtqoflibsfi"><path d="M332.5,337.12c.23,1.64,1.06,2.88,3.11,2.11a4.73,4.73,0,0,0,2.27-2.17,16.21,16.21,0,0,0,1.85-5.95,3.22,3.22,0,0,0-.51-2.8c-.85-.81-2.3-.18-3.13.36a8.2,8.2,0,0,0-3.19,4.22A10.34,10.34,0,0,0,332.5,337.12Z" style="fill: rgb(255, 255, 255); opacity: 0.2; transform-origin: 336.144px 333.694px;" class="animable"></path></g><g id="elz0su9cve5rh"><path d="M354.61,318.49c-.66.32-1.35,1.17-.82,1.68a1.38,1.38,0,0,0,.74.26,27.08,27.08,0,0,1,12.18,4.9,28.8,28.8,0,0,1,8.18,9.27c.39-5.35-3.75-9.86-7.59-13C363.85,318.79,359,316.36,354.61,318.49Z" style="fill: rgb(255, 255, 255); opacity: 0.2; transform-origin: 364.259px 326.14px;" class="animable"></path></g><g id="elp7s7uzr06g"><path d="M346.81,338.08a1.1,1.1,0,0,0-.4.17c-.43.32-.25,1.48-.14,1.94a6.66,6.66,0,0,0,1.74,3.06c1.64,1.67,5.78,1.75,8,1.51a8.5,8.5,0,0,0,6.53-3.82c1.2-2.08,1.17-4.68,2.22-6.84a4.32,4.32,0,0,1,1.41-1.75,6,6,0,0,1,3.08-.74,5.45,5.45,0,0,0-2.88-2.77c-1.67-.36-2.29,1.83-2.61,3a12.48,12.48,0,0,1-5,7.36c-3.13,1.95-6.35,1.29-9.46-.33a7.11,7.11,0,0,0-1.75-.75A1.81,1.81,0,0,0,346.81,338.08Z" style="fill: rgb(255, 255, 255); opacity: 0.1; transform-origin: 357.694px 336.83px;" class="animable"></path></g></g><path d="M370.73,275.34c2,11.92-3,28.88-10,37.4s-10.79,13.05-11.35,17.9h0a2.15,2.15,0,0,0,.22,1.18,4.15,4.15,0,0,0,3.82,2.22,1.71,1.71,0,0,0,1.77-1.76h0c-.12-2.31.46-8.61,8.71-20.71,12.26-18.12,7.61-35.54,9-37S370.73,275.34,370.73,275.34Z" style="fill: rgb(69, 90, 100); transform-origin: 361.296px 304.058px;" id="els4um0hz44n" class="animable"></path><path d="M361.42,315.46c-5.44,7.48-6.79,13.26-7.19,15.73s-3.67,1.09-4.71-1.1c0,.18-.07.36-.09.55h0a2.15,2.15,0,0,0,.22,1.18,4.15,4.15,0,0,0,3.82,2.22,1.71,1.71,0,0,0,1.77-1.76h0c-.11-2,.34-7.24,6.19-16.82Z" style="fill: rgb(38, 50, 56); transform-origin: 355.425px 324.751px;" id="elu1jtvbr8ygi" class="animable"></path><path d="M368.6,267.91a1.36,1.36,0,0,0-.82,2.49c.16.1.36.19.39.37s-.12.35-.23.51a1.34,1.34,0,0,0,1,2.16,1.18,1.18,0,0,0,.18,1.26,1.46,1.46,0,0,0,1.22.46.55.55,0,0,1,.38,0c.14.08.16.27.21.43a1.13,1.13,0,0,0,1.48.6,1.63,1.63,0,0,0,.9-1.46c.29.35.92.1,1.09-.31a2.06,2.06,0,0,0-.06-1.34,1.88,1.88,0,0,1,0-1.34c.11-.23.32-.4.45-.62a1.19,1.19,0,0,0-1-1.69,2.52,2.52,0,0,0,.15-1.35.88.88,0,0,0-1-.68,1.61,1.61,0,0,0-.65-1.41c-.54-.46-.76-.15-1.36-.28-.32-.07-.51-.39-.82-.48a1.42,1.42,0,0,0-1.53.53C368.41,266,368.09,267.88,368.6,267.91Z" style="fill: rgb(55, 71, 79); transform-origin: 371.038px 270.728px;" id="ellud6rc5mnnh" class="animable"></path></g></g></g><g id="freepik--Sparkles--inject-28" class="animable" style="transform-origin: 258.86px 130.118px;"><g id="freepik--Shine--inject-28"><path d="M87.58,202.48l8.17.9a1.86,1.86,0,0,1,1.64,1.68l.94,10.43a.38.38,0,0,0,.38.34.37.37,0,0,0,.37-.34l.94-10.43a1.86,1.86,0,0,1,1.64-1.68l8.18-.9a.38.38,0,0,0,0-.75l-8.18-.9a1.86,1.86,0,0,1-1.64-1.67l-.94-10.43a.37.37,0,0,0-.37-.35.38.38,0,0,0-.38.35l-.94,10.43a1.86,1.86,0,0,1-1.64,1.67l-8.17.9a.38.38,0,0,0,0,.75Zm3.47-.37,4.79-.53a2.62,2.62,0,0,0,2.3-2.36l.57-6.26.56,6.26a2.62,2.62,0,0,0,2.31,2.36l4.79.53-4.79.53A2.6,2.6,0,0,0,99.27,205l-.56,6.27L98.14,205a2.6,2.6,0,0,0-2.3-2.35Zm323.29,3a.39.39,0,0,0,.36.4l6,.67a1.25,1.25,0,0,1,1.1,1.12l.69,7.69a.41.41,0,0,0,.81,0l.7-7.69a1.23,1.23,0,0,1,1.09-1.12l6-.67a.39.39,0,0,0,.36-.4.41.41,0,0,0-.36-.41l-6-.67A1.23,1.23,0,0,1,424,203l-.7-7.7a.41.41,0,0,0-.81,0l-.69,7.7a1.24,1.24,0,0,1-1.1,1.11l-6,.67A.41.41,0,0,0,414.34,205.14Zm3.81,0,2.53-.28a2.2,2.2,0,0,0,1.94-2l.31-3.41.3,3.41h0a2.21,2.21,0,0,0,1.95,2l2.52.28-2.52.28a2.19,2.19,0,0,0-1.95,2l-.3,3.4-.31-3.4a2.18,2.18,0,0,0-1.94-2ZM141.59,173.72a.25.25,0,0,0,.21.24l5.25.57a1.2,1.2,0,0,1,1,1.08l.6,6.69a.25.25,0,0,0,.24.22.24.24,0,0,0,.24-.22l.61-6.69a1.2,1.2,0,0,1,1.05-1.08l5.24-.57a.26.26,0,0,0,.22-.24.24.24,0,0,0-.22-.24l-5.24-.58a1.2,1.2,0,0,1-1.05-1.08l-.61-6.69a.24.24,0,0,0-.24-.22.25.25,0,0,0-.24.22l-.6,6.69a1.2,1.2,0,0,1-1,1.08l-5.25.58A.23.23,0,0,0,141.59,173.72Zm2.44,0,3.07-.34a1.68,1.68,0,0,0,1.48-1.51l.36-4,.36,4a1.7,1.7,0,0,0,1.48,1.51l3.07.34-3.07.34a1.68,1.68,0,0,0-1.48,1.5l-.36,4-.36-4a1.66,1.66,0,0,0-1.48-1.5ZM140.64,60.14a.43.43,0,0,0,.39.43l9.42,1a2.14,2.14,0,0,1,1.89,1.93l1.08,12a.44.44,0,0,0,.87,0l1.08-12a2.14,2.14,0,0,1,1.89-1.93l9.42-1a.43.43,0,0,0,0-.86l-9.42-1a2.15,2.15,0,0,1-1.89-1.93l-1.08-12a.44.44,0,0,0-.87,0l-1.08,12a2.15,2.15,0,0,1-1.89,1.93l-9.42,1A.43.43,0,0,0,140.64,60.14Zm4.39,0,5.52-.61a3,3,0,0,0,2.65-2.71l.65-7.23.66,7.23a3,3,0,0,0,2.65,2.71l5.52.61-5.52.61a3,3,0,0,0-2.65,2.71l-.66,7.22-.65-7.22a3,3,0,0,0-2.65-2.71Zm220.65,8.18a.38.38,0,0,0,.32.37l5.45.6a1.12,1.12,0,0,1,1,1l.63,7a.37.37,0,0,0,.37.33.35.35,0,0,0,.36-.33l.63-7a1.12,1.12,0,0,1,1-1l5.45-.6a.38.38,0,0,0,.32-.37.37.37,0,0,0-.32-.37l-5.45-.6a1.12,1.12,0,0,1-1-1l-.63-7a.36.36,0,0,0-.36-.34.38.38,0,0,0-.37.34l-.63,7a1.12,1.12,0,0,1-1,1L366,68A.37.37,0,0,0,365.68,68.32Zm3.72,0,2.14-.24a1.85,1.85,0,0,0,1.64-1.67l.26-2.88.26,2.88h0a1.84,1.84,0,0,0,1.64,1.67l2.13.24-2.13.23a1.85,1.85,0,0,0-1.64,1.68l-.26,2.88-.26-2.88a1.86,1.86,0,0,0-1.64-1.68ZM66.25,96.5a.37.37,0,0,0,.32.37l5.45.6a1.11,1.11,0,0,1,1,1l.63,7a.38.38,0,0,0,.37.34.36.36,0,0,0,.36-.34l.63-7a1.12,1.12,0,0,1,1-1l5.45-.6a.37.37,0,0,0,.32-.37.36.36,0,0,0-.32-.36L76,95.53a1.11,1.11,0,0,1-1-1l-.63-7a.35.35,0,0,0-.36-.33.37.37,0,0,0-.37.33l-.63,7a1.1,1.1,0,0,1-1,1l-5.45.61A.36.36,0,0,0,66.25,96.5Zm3.72,0,2.14-.23a1.86,1.86,0,0,0,1.64-1.68L74,91.71l.26,2.88h0a1.86,1.86,0,0,0,1.64,1.68L78,96.5l-2.13.24a1.85,1.85,0,0,0-1.64,1.67L74,101.29l-.26-2.88a1.85,1.85,0,0,0-1.64-1.67ZM219.9,130.84a.37.37,0,0,0,.33.36l5.45.61a1.12,1.12,0,0,1,1,1l.62,7a.37.37,0,0,0,.74,0l.62-7a1.12,1.12,0,0,1,1-1l5.45-.61a.37.37,0,0,0,0-.73l-5.45-.6a1.13,1.13,0,0,1-1-1l-.62-7a.37.37,0,0,0-.74,0l-.62,7a1.13,1.13,0,0,1-1,1l-5.45.6A.37.37,0,0,0,219.9,130.84Zm3.73,0,2.13-.24a1.86,1.86,0,0,0,1.64-1.68l.26-2.87.26,2.87h0a1.86,1.86,0,0,0,1.64,1.67l2.14.24-2.14.23a1.86,1.86,0,0,0-1.64,1.68l-.26,2.88-.26-2.88a1.86,1.86,0,0,0-1.64-1.68Zm-111,16.75a.37.37,0,0,0,.33.37l5.45.6a1.13,1.13,0,0,1,1,1l.62,7a.37.37,0,0,0,.74,0l.62-7a1.13,1.13,0,0,1,1-1l5.45-.6a.37.37,0,0,0,0-.73l-5.45-.61a1.12,1.12,0,0,1-1-1l-.62-7a.37.37,0,0,0-.74,0l-.62,7a1.12,1.12,0,0,1-1,1l-5.45.61A.37.37,0,0,0,112.66,147.59Zm3.72,0,2.14-.23a1.86,1.86,0,0,0,1.64-1.68l.26-2.88.26,2.88h0a1.86,1.86,0,0,0,1.64,1.68l2.13.23-2.13.24a1.86,1.86,0,0,0-1.64,1.68l-.26,2.87-.26-2.88a1.86,1.86,0,0,0-1.64-1.67ZM260.23,94.14a.36.36,0,0,0,.32.35l7.77.86a1.77,1.77,0,0,1,1.56,1.59l.89,9.92a.37.37,0,0,0,.36.33.36.36,0,0,0,.35-.33l.9-9.92a1.76,1.76,0,0,1,1.56-1.59l7.77-.86a.36.36,0,0,0,.32-.35.37.37,0,0,0-.32-.36l-7.77-.86a1.76,1.76,0,0,1-1.56-1.59l-.9-9.91a.35.35,0,0,0-.35-.33.36.36,0,0,0-.36.33l-.89,9.91a1.77,1.77,0,0,1-1.56,1.59l-7.77.86A.36.36,0,0,0,260.23,94.14Zm3.62,0,4.55-.51a2.47,2.47,0,0,0,2.19-2.23l.54-6,.53,6a2.47,2.47,0,0,0,2.2,2.23l4.55.51-4.55.5a2.49,2.49,0,0,0-2.2,2.24l-.53,6-.54-6a2.49,2.49,0,0,0-2.19-2.24Zm117.21,76.68a.41.41,0,0,0,.37.41l6.11.68a1.25,1.25,0,0,1,1.11,1.13l.7,7.8a.42.42,0,0,0,.83,0l.7-7.8a1.25,1.25,0,0,1,1.11-1.13l6.11-.68a.41.41,0,0,0,.37-.41.42.42,0,0,0-.37-.41l-6.11-.68a1.25,1.25,0,0,1-1.11-1.13l-.7-7.8a.42.42,0,0,0-.83,0l-.7,7.8a1.25,1.25,0,0,1-1.11,1.13l-6.11.68A.42.42,0,0,0,381.06,170.82Zm3.47,0,2.77-.3a2.42,2.42,0,0,0,2.13-2.18l.33-3.74.34,3.74h0a2.42,2.42,0,0,0,2.13,2.18l2.77.3-2.77.31a2.41,2.41,0,0,0-2.13,2.17l-.34,3.74-.33-3.74a2.41,2.41,0,0,0-2.13-2.17Zm40.52-42.12a.42.42,0,0,0,.38.43l9.42,1a2.15,2.15,0,0,1,1.89,1.93l1.08,12a.44.44,0,0,0,.87,0l1.08-12a2.16,2.16,0,0,1,1.89-1.93l9.42-1a.43.43,0,0,0,.39-.43.44.44,0,0,0-.39-.43l-9.42-1a2.14,2.14,0,0,1-1.89-1.93l-1.08-12a.44.44,0,0,0-.87,0l-1.08,12a2.13,2.13,0,0,1-1.89,1.93l-9.42,1A.43.43,0,0,0,425.05,128.7Zm4.38,0,5.52-.61a3,3,0,0,0,2.66-2.71l.65-7.22.65,7.22a3,3,0,0,0,2.66,2.71l5.51.61-5.51.61a3,3,0,0,0-2.66,2.71l-.65,7.23-.65-7.23a3,3,0,0,0-2.66-2.71Z" style="fill: rgb(255, 193, 0); opacity: 0.2; transform-origin: 258.86px 130.118px;" class="animable"></path></g></g><defs>     <filter id="active" height="200%">         <feMorphology in="SourceAlpha" result="DILATED" operator="dilate" radius="2"></feMorphology>                <feFlood flood-color="#32DFEC" flood-opacity="1" result="PINK"></feFlood>        <feComposite in="PINK" in2="DILATED" operator="in" result="OUTLINE"></feComposite>        <feMerge>            <feMergeNode in="OUTLINE"></feMergeNode>            <feMergeNode in="SourceGraphic"></feMergeNode>        </feMerge>    </filter>    <filter id="hover" height="200%">        <feMorphology in="SourceAlpha" result="DILATED" operator="dilate" radius="2"></feMorphology>                <feFlood flood-color="#ff0000" flood-opacity="0.5" result="PINK"></feFlood>        <feComposite in="PINK" in2="DILATED" operator="in" result="OUTLINE"></feComposite>        <feMerge>            <feMergeNode in="OUTLINE"></feMergeNode>            <feMergeNode in="SourceGraphic"></feMergeNode>        </feMerge>            <feColorMatrix type="matrix" values="0   0   0   0   0                0   1   0   0   0                0   0   0   0   0                0   0   0   1   0 "></feColorMatrix>    </filter></defs></svg>
