<svg class="animated" id="freepik_stories-iceberg" xmlns="http://www.w3.org/2000/svg" viewBox="0 0 500 500" version="1.1" xmlns:xlink="http://www.w3.org/1999/xlink" xmlns:svgjs="http://svgjs.com/svgjs"><style>svg#freepik_stories-iceberg:not(.animated) .animable {opacity: 0;}svg#freepik_stories-iceberg.animated #freepik--background-complete--inject-110 {animation: 1s 1 forwards cubic-bezier(.36,-0.01,.5,1.38) zoomIn;animation-delay: 0s;}svg#freepik_stories-iceberg.animated #freepik--Shadow--inject-110 {animation: 1s 1 forwards cubic-bezier(.36,-0.01,.5,1.38) slideRight;animation-delay: 0s;}svg#freepik_stories-iceberg.animated #freepik--Fishes--inject-110 {animation: 1s 1 forwards cubic-bezier(.36,-0.01,.5,1.38) slideRight;animation-delay: 0s;}svg#freepik_stories-iceberg.animated #freepik--Iceberg--inject-110 {animation: 1s 1 forwards cubic-bezier(.36,-0.01,.5,1.38) fadeIn;animation-delay: 0s;}svg#freepik_stories-iceberg.animated #freepik--killer-whale--inject-110 {animation: 1s 1 forwards cubic-bezier(.36,-0.01,.5,1.38) slideRight;animation-delay: 0s;}svg#freepik_stories-iceberg.animated #freepik--Sky--inject-110 {animation: 1s 1 forwards cubic-bezier(.36,-0.01,.5,1.38) slideLeft;animation-delay: 0s;}            @keyframes zoomIn {                0% {                    opacity: 0;                    transform: scale(0.5);                }                100% {                    opacity: 1;                    transform: scale(1);                }            }                    @keyframes slideRight {                0% {                    opacity: 0;                    transform: translateX(30px);                }                100% {                    opacity: 1;                    transform: translateX(0);                }            }                    @keyframes fadeIn {                0% {                    opacity: 0;                }                100% {                    opacity: 1;                }            }                    @keyframes slideLeft {                0% {                    opacity: 0;                    transform: translateX(-30px);                }                100% {                    opacity: 1;                    transform: translateX(0);                }            }        </style><g id="freepik--background-complete--inject-110" class="animable" style="transform-origin: 250px 227.2px;"><rect y="382.4" width="500" height="0.25" style="fill: rgb(235, 235, 235); transform-origin: 250px 382.525px;" id="el1ot47r9edybi" class="animable"></rect><rect x="300.71" y="391.07" width="33.12" height="0.25" style="fill: rgb(235, 235, 235); transform-origin: 317.27px 391.195px;" id="el7a0z4sdjt59" class="animable"></rect><rect x="395.2" y="399.15" width="8.69" height="0.25" style="fill: rgb(235, 235, 235); transform-origin: 399.545px 399.275px;" id="eljhlhoox8omq" class="animable"></rect><rect x="335.59" y="395.4" width="19.19" height="0.25" style="fill: rgb(235, 235, 235); transform-origin: 345.185px 395.525px;" id="elt9ks4jcwlwe" class="animable"></rect><rect x="52.46" y="390.89" width="43.19" height="0.25" style="fill: rgb(235, 235, 235); transform-origin: 74.055px 391.015px;" id="elhynfuv5804d" class="animable"></rect><rect x="244.67" y="390.89" width="6.33" height="0.25" style="fill: rgb(235, 235, 235); transform-origin: 247.835px 391.015px;" id="elf5eadifxr4g" class="animable"></rect><rect x="141.69" y="395.24" width="45.31" height="0.25" style="fill: rgb(235, 235, 235); transform-origin: 164.345px 395.365px;" id="elziedgclte8b" class="animable"></rect><path d="M237,337.8H43.91a5.71,5.71,0,0,1-5.7-5.71V60.66A5.71,5.71,0,0,1,43.91,55H237a5.71,5.71,0,0,1,5.71,5.71V332.09A5.71,5.71,0,0,1,237,337.8ZM43.91,55.2a5.46,5.46,0,0,0-5.45,5.46V332.09a5.46,5.46,0,0,0,5.45,5.46H237a5.47,5.47,0,0,0,5.46-5.46V60.66A5.47,5.47,0,0,0,237,55.2Z" style="fill: rgb(235, 235, 235); transform-origin: 140.46px 196.4px;" id="eld13a8qz1g2" class="animable"></path><path d="M453.31,337.8H260.21a5.72,5.72,0,0,1-5.71-5.71V60.66A5.72,5.72,0,0,1,260.21,55h193.1A5.71,5.71,0,0,1,459,60.66V332.09A5.71,5.71,0,0,1,453.31,337.8ZM260.21,55.2a5.47,5.47,0,0,0-5.46,5.46V332.09a5.47,5.47,0,0,0,5.46,5.46h193.1a5.47,5.47,0,0,0,5.46-5.46V60.66a5.47,5.47,0,0,0-5.46-5.46Z" style="fill: rgb(235, 235, 235); transform-origin: 356.75px 196.4px;" id="el47juob70btz" class="animable"></path><path d="M174.91,195.73c-38.13,5.49-94.41-19.78-104.56,8s2.9,61.47-4.51,100.16-19,83.25,68.18,69.9,102.26,11.12,166.14-.93c69.44-13.1,148.6,21.39,135.55-46.32-9.34-48.46,9.41-62.21,8.88-91.21-.64-35.65-16.54-52.41-49.67-43-24.88,7-104.81-10.49-127,2.29S208.21,190.94,174.91,195.73Z" style="fill: rgb(245, 245, 245); transform-origin: 252.706px 283.028px;" id="elypqzxs7ha39" class="animable"></path><path d="M99.21,217.07a3.58,3.58,0,1,1-3.61-3.53A3.57,3.57,0,0,1,99.21,217.07Z" style="fill: rgb(255, 255, 255); transform-origin: 95.6303px 217.12px;" id="eliw5nafxkjns" class="animable"></path><circle cx="105.27" cy="226.52" r="2.22" style="fill: rgb(255, 255, 255); transform-origin: 105.27px 226.52px;" id="elxpw6wowq479" class="animable"></circle><path d="M148,251.27a2.22,2.22,0,1,1-2.25-2.2A2.22,2.22,0,0,1,148,251.27Z" style="fill: rgb(255, 255, 255); transform-origin: 145.78px 251.29px;" id="eln6538y5ze5l" class="animable"></path><g id="elwza5lys7of"><circle cx="96.2" cy="232.59" r="2.68" style="fill: rgb(255, 255, 255); transform-origin: 96.2px 232.59px; transform: rotate(-25.04deg);" class="animable"></circle></g><path d="M102.05,242.32a1.66,1.66,0,1,1-1-2.13A1.66,1.66,0,0,1,102.05,242.32Z" style="fill: rgb(255, 255, 255); transform-origin: 100.49px 241.753px;" id="elbh4zx6fy5zw" class="animable"></path><path d="M140.5,262a1.66,1.66,0,1,1-1-2.13A1.65,1.65,0,0,1,140.5,262Z" style="fill: rgb(255, 255, 255); transform-origin: 138.941px 261.433px;" id="elt9l2xtp8sj9" class="animable"></path><path d="M342,329.47a3.06,3.06,0,1,1-3.09-3A3.06,3.06,0,0,1,342,329.47Z" style="fill: rgb(255, 255, 255); transform-origin: 338.941px 329.53px;" id="elgrh742r9zqj" class="animable"></path><path d="M331.65,344.3a2.3,2.3,0,1,1-1.38-2.93A2.3,2.3,0,0,1,331.65,344.3Z" style="fill: rgb(255, 255, 255); transform-origin: 329.482px 343.531px;" id="elr7gckqc3gn" class="animable"></path><path d="M117.36,281.12a2.22,2.22,0,1,1-2.25-2.2A2.22,2.22,0,0,1,117.36,281.12Z" style="fill: rgb(255, 255, 255); transform-origin: 115.14px 281.14px;" id="ellcnz093pg0i" class="animable"></path><path d="M109.84,291.9a1.67,1.67,0,1,1-1-2.14A1.66,1.66,0,0,1,109.84,291.9Z" style="fill: rgb(255, 255, 255); transform-origin: 108.272px 291.33px;" id="el328y7f8g861" class="animable"></path><path d="M97,248.93a1.09,1.09,0,1,1-.65-1.4A1.1,1.1,0,0,1,97,248.93Z" style="fill: rgb(255, 255, 255); transform-origin: 95.9755px 248.554px;" id="elg3wzv9km7hc" class="animable"></path><path d="M111.33,236.58a1.07,1.07,0,0,1-1.39.65,1.09,1.09,0,1,1,1.39-.65Z" style="fill: rgb(255, 255, 255); transform-origin: 110.307px 236.207px;" id="elyqy7v1zajq9" class="animable"></path><circle cx="399.03" cy="205.8" r="4.08" style="fill: rgb(255, 255, 255); transform-origin: 399.03px 205.8px;" id="elnc174j4d9vl" class="animable"></circle><path d="M410.79,223a2.53,2.53,0,1,1-2.56-2.5A2.53,2.53,0,0,1,410.79,223Z" style="fill: rgb(255, 255, 255); transform-origin: 408.26px 223.03px;" id="elch0vk5bwvp4" class="animable"></path><path d="M396.34,235a3.06,3.06,0,1,1-1.83-3.92A3.05,3.05,0,0,1,396.34,235Z" style="fill: rgb(255, 255, 255); transform-origin: 393.465px 233.956px;" id="elnlqxddepy1" class="animable"></path><path d="M409.14,251a1.9,1.9,0,1,1-1.14-2.43A1.9,1.9,0,0,1,409.14,251Z" style="fill: rgb(255, 255, 255); transform-origin: 407.352px 250.356px;" id="eldjvi2chsdjr" class="animable"></path><path d="M396.78,262a1.25,1.25,0,1,1-.75-1.6A1.25,1.25,0,0,1,396.78,262Z" style="fill: rgb(255, 255, 255); transform-origin: 395.604px 261.575px;" id="elskp6hlwk31k" class="animable"></path><path d="M417.67,231.31a1.24,1.24,0,0,1-1.59.75,1.24,1.24,0,1,1,1.59-.75Z" style="fill: rgb(255, 255, 255); transform-origin: 416.502px 230.894px;" id="elhlcyd8g06bq" class="animable"></path><path d="M355.72,263.29a2.53,2.53,0,1,0,2.5-2.56A2.52,2.52,0,0,0,355.72,263.29Z" style="fill: rgb(255, 255, 255); transform-origin: 358.25px 263.26px;" id="el9rq0wvvdu2u" class="animable"></path><path d="M361.28,280.69a3.06,3.06,0,1,0,1.74-4A3.07,3.07,0,0,0,361.28,280.69Z" style="fill: rgb(255, 255, 255); transform-origin: 364.12px 279.546px;" id="eldh1hvoj6vy6" class="animable"></path><path d="M357.66,302.37a1.9,1.9,0,1,0,1.08-2.46A1.89,1.89,0,0,0,357.66,302.37Z" style="fill: rgb(255, 255, 255); transform-origin: 359.429px 301.68px;" id="elzma8j6dn9z7" class="animable"></path><circle cx="397.64" cy="329.94" r="1.9" style="fill: rgb(255, 255, 255); transform-origin: 397.64px 329.94px;" id="eldtzxhl70zh" class="animable"></circle><path d="M348.51,289.35a1.24,1.24,0,1,0,.7-1.61A1.24,1.24,0,0,0,348.51,289.35Z" style="fill: rgb(255, 255, 255); transform-origin: 349.663px 288.894px;" id="elor1laumwkcd" class="animable"></path><path d="M403.41,340.81a1.25,1.25,0,1,0,.71-1.62A1.25,1.25,0,0,0,403.41,340.81Z" style="fill: rgb(255, 255, 255); transform-origin: 404.574px 340.355px;" id="elzaxmlc6t1h" class="animable"></path><path d="M147.77,274.18a1.09,1.09,0,1,1-.65-1.4A1.09,1.09,0,0,1,147.77,274.18Z" style="fill: rgb(255, 255, 255); transform-origin: 146.747px 273.804px;" id="el8nrglsd0nch" class="animable"></path><path d="M112.14,306a1.09,1.09,0,1,1-2-.74,1.09,1.09,0,0,1,2,.74Z" style="fill: rgb(255, 255, 255); transform-origin: 111.061px 305.842px;" id="elbemcc14r0yu" class="animable"></path></g><g id="freepik--Shadow--inject-110" class="animable" style="transform-origin: 250px 416.24px;"><ellipse id="freepik--path--inject-110" cx="250" cy="416.24" rx="193.89" ry="11.32" style="fill: rgb(245, 245, 245); transform-origin: 250px 416.24px;" class="animable"></ellipse></g><g id="freepik--Fishes--inject-110" class="animable" style="transform-origin: 226.345px 282.946px;"><path d="M326.92,349.14a1.69,1.69,0,0,0,2.39,1.54c1.17-.44,2.34-.85,2.34-.85a1.75,1.75,0,0,1-.37-.78.05.05,0,0,1,.08,0,5.18,5.18,0,0,0,2.55.67s-.4-.44-.25-.85a.1.1,0,0,1,.16,0c1.33,1.41,4.43,1.6,4.87,3-.57,1.33-3.48,2-5.42,1.7a3.8,3.8,0,0,0-.95,0,3,3,0,0,0-1.05.27.12.12,0,0,1-.17-.16,2.11,2.11,0,0,1,.37-.52s-1.12-.53-2.23-1.1-2.11-.07-1.9,1.23c-.88-.21-.66-2-.66-2S326.1,349.52,326.92,349.14Z" style="fill: rgb(144, 202, 249); transform-origin: 332.585px 351.345px;" id="eloh81nt8gkh" class="animable"></path><path d="M311.43,351.21a1.68,1.68,0,0,0,1.85,2.15c1.25-.1,2.49-.17,2.49-.17a1.68,1.68,0,0,1-.13-.85s.06,0,.08,0c.46.77,2.26,1.35,2.26,1.35a1,1,0,0,1,0-.88.09.09,0,0,1,.16,0c.88,1.72,3.81,2.77,3.83,4.28-.92,1.11-3.9.93-5.68.11a3.24,3.24,0,0,0-.91-.3,3.07,3.07,0,0,0-1.08,0,.13.13,0,0,1-.12-.2,2.19,2.19,0,0,1,.51-.39s-.93-.83-1.84-1.68-2-.67-2.16.64c-.79-.44-.08-2.1-.08-2.1S310.53,351.34,311.43,351.21Z" style="fill: rgb(144, 202, 249); transform-origin: 316.143px 354.539px;" id="el1t2zbnrjrfc" class="animable"></path><path d="M303.75,339.72a1.85,1.85,0,0,0,2.27,2.16c1.36-.24,2.71-.44,2.71-.44a2,2,0,0,1-.24-.92.05.05,0,0,1,.09,0c.59.8,2.63,1.25,2.63,1.25a1.07,1.07,0,0,1-.09-1,.1.1,0,0,1,.18,0c1.15,1.8,4.48,2.65,4.66,4.3-.89,1.33-4.19,1.45-6.23.73a4.16,4.16,0,0,0-1-.24,3.54,3.54,0,0,0-1.19.07.13.13,0,0,1-.15-.21,2.42,2.42,0,0,1,.51-.48s-1.1-.81-2.2-1.65-2.27-.52-2.31.94c-.91-.4-.31-2.3-.31-2.3S302.78,340,303.75,339.72Z" style="fill: rgb(144, 202, 249); transform-origin: 309.423px 342.979px;" id="eld55507rrud8" class="animable"></path><path d="M126.05,292.93a1.69,1.69,0,0,1-2.72.82c-1-.75-2-1.47-2-1.47a1.68,1.68,0,0,0,.56-.64,0,0,0,0,0-.06-.06,5.17,5.17,0,0,1-2.63-.07s.5-.3.47-.74a.1.1,0,0,0-.15-.07c-1.66,1-4.7.31-5.52,1.58.18,1.43,2.8,2.87,4.75,3.12a3.65,3.65,0,0,1,.92.23,2.94,2.94,0,0,1,.94.54.12.12,0,0,0,.2-.1,2,2,0,0,0-.22-.6L123,295c1.23-.24,2,.51,1.48,1.7.9,0,1.19-1.73,1.19-1.73S126.73,293.51,126.05,292.93Z" style="fill: rgb(144, 202, 249); transform-origin: 120.139px 293.693px;" id="elfrect4sart" class="animable"></path><path d="M133.35,309.09a1.52,1.52,0,0,1-2.46.75c-.91-.68-1.83-1.33-1.83-1.33a1.57,1.57,0,0,0,.52-.59s0-.07-.06-.05a4.74,4.74,0,0,1-2.39-.06s.46-.28.43-.67a.09.09,0,0,0-.13-.07c-1.51.9-4.26.29-5,1.43.16,1.3,2.53,2.61,4.3,2.84a3,3,0,0,1,.83.2,2.69,2.69,0,0,1,.85.5.11.11,0,0,0,.19-.1,1.92,1.92,0,0,0-.2-.54l2.22-.4c1.12-.21,1.86.46,1.35,1.54.81,0,1.07-1.57,1.07-1.57S134,309.63,133.35,309.09Z" style="fill: rgb(144, 202, 249); transform-origin: 128.003px 309.8px;" id="el6j5tqtp7lk6" class="animable"></path><path d="M140.37,299.19a1.68,1.68,0,0,1-2.38,1.55c-1.17-.44-2.34-.84-2.34-.84a1.67,1.67,0,0,0,.36-.78,0,0,0,0,0-.07,0,5.22,5.22,0,0,1-2.55.68s.4-.44.25-.85a.1.1,0,0,0-.17,0c-1.32,1.42-4.42,1.62-4.85,3.06.57,1.33,3.49,2,5.43,1.67a4.3,4.3,0,0,1,.95,0,3.06,3.06,0,0,1,1.05.27.13.13,0,0,0,.17-.16,2.32,2.32,0,0,0-.38-.52s1.11-.54,2.23-1.11,2.1-.08,1.9,1.22c.88-.21.65-2,.65-2S141.19,299.57,140.37,299.19Z" style="fill: rgb(144, 202, 249); transform-origin: 134.716px 301.43px;" id="elrs1viy6i6gn" class="animable"></path><path d="M150.93,290.27a1.86,1.86,0,0,1-2.78,1.45c-1.25-.61-2.49-1.18-2.49-1.18a1.79,1.79,0,0,0,.48-.82s0-.07-.08-.05c-.79.61-2.87.47-2.87.47a1.06,1.06,0,0,0,.36-.9.11.11,0,0,0-.18-.05c-1.6,1.42-5,1.31-5.66,2.85.49,1.52,3.63,2.54,5.79,2.42a4.09,4.09,0,0,1,1.05.05,3.58,3.58,0,0,1,1.13.4.14.14,0,0,0,.2-.16,2.32,2.32,0,0,0-.36-.6l2.57-1c1.29-.51,2.32.13,2,1.54,1-.14.93-2.13.93-2.13S151.79,290.77,150.93,290.27Z" style="fill: rgb(144, 202, 249); transform-origin: 144.524px 292.043px;" id="el6js0zxywhdn" class="animable"></path><path d="M152.58,209.09a1.86,1.86,0,0,1-2.78,1.45c-1.24-.6-2.49-1.18-2.49-1.18a1.88,1.88,0,0,0,.49-.81.06.06,0,0,0-.09-.05c-.78.61-2.87.47-2.87.47s.48-.44.36-.9a.1.1,0,0,0-.17,0c-1.6,1.41-5,1.31-5.67,2.84.49,1.52,3.63,2.55,5.79,2.42a4.09,4.09,0,0,1,1,.06,3.35,3.35,0,0,1,1.13.4.14.14,0,0,0,.2-.16,2.18,2.18,0,0,0-.36-.61s1.29-.47,2.57-1,2.33.13,2,1.54c1-.13.94-2.12.94-2.12S153.44,209.59,152.58,209.09Z" style="fill: rgb(144, 202, 249); transform-origin: 146.168px 210.914px;" id="elj0jbw3jk30l" class="animable"></path><path d="M128.42,319.14a1.68,1.68,0,0,1-2.46,1.42c-1.15-.5-2.29-1-2.29-1a1.66,1.66,0,0,0,.4-.76,0,0,0,0,0-.07,0,5.2,5.2,0,0,1-2.58.53,1,1,0,0,0,.29-.83.1.1,0,0,0-.16,0c-1.39,1.35-4.5,1.38-5,2.79.49,1.36,3.37,2.17,5.32,2a3.86,3.86,0,0,1,1,0,3.19,3.19,0,0,1,1,.32.12.12,0,0,0,.18-.15,2,2,0,0,0-.35-.53s1.14-.48,2.29-1,2.1,0,1.82,1.32c.89-.16.77-1.95.77-1.95S129.22,319.56,128.42,319.14Z" style="fill: rgb(144, 202, 249); transform-origin: 122.686px 321.048px;" id="elj29pkqiywid" class="animable"></path><path d="M139.21,333.23a1.52,1.52,0,0,1-2.23,1.28l-2.08-.88a1.61,1.61,0,0,0,.37-.69,0,0,0,0,0-.07,0,4.79,4.79,0,0,1-2.34.48s.38-.37.26-.75a.09.09,0,0,0-.14,0c-1.27,1.22-4.09,1.25-4.55,2.53.45,1.23,3.06,2,4.83,1.79a3.09,3.09,0,0,1,.86,0,2.6,2.6,0,0,1,.94.29.11.11,0,0,0,.16-.14,1.68,1.68,0,0,0-.31-.48l2.07-.9c1-.46,1.91,0,1.66,1.2.8-.15.69-1.77.69-1.77S139.93,333.61,139.21,333.23Z" style="fill: rgb(144, 202, 249); transform-origin: 133.997px 334.968px;" id="elr5b33ypuou" class="animable"></path><path d="M187.09,293.91a1.53,1.53,0,0,1-1.88,1.76c-1.12-.21-2.23-.39-2.23-.39a1.51,1.51,0,0,0,.2-.75,0,0,0,0,0-.07,0,4.77,4.77,0,0,1-2.17,1,.86.86,0,0,0,.09-.79.08.08,0,0,0-.15,0c-1,1.47-3.69,2.14-3.85,3.5.72,1.09,3.42,1.21,5.11.63a3.4,3.4,0,0,1,.84-.18,2.83,2.83,0,0,1,1,.06.1.1,0,0,0,.12-.16,1.76,1.76,0,0,0-.42-.4s.92-.66,1.82-1.34,1.87-.41,1.89.78c.75-.32.27-1.88.27-1.88S187.88,294.11,187.09,293.91Z" style="fill: rgb(144, 202, 249); transform-origin: 182.421px 296.562px;" id="el2lqa2n5lhv7" class="animable"></path><path d="M143.79,322a1.68,1.68,0,0,1-2,2.05c-1.24-.16-2.48-.29-2.48-.29a1.67,1.67,0,0,0,.18-.84s-.06-.05-.08,0c-.5.75-2.33,1.24-2.33,1.24s.29-.52,0-.88a.1.1,0,0,0-.17,0c-1,1.68-3.93,2.58-4,4.09.86,1.16,3.85,1.13,5.67.39a4.09,4.09,0,0,1,.91-.25,3.3,3.3,0,0,1,1.09,0,.12.12,0,0,0,.12-.19,2,2,0,0,0-.48-.41s1-.78,1.92-1.59,2-.56,2.12.75c.82-.4.19-2.09.19-2.09S144.68,322.17,143.79,322Z" style="fill: rgb(144, 202, 249); transform-origin: 138.796px 325.142px;" id="elozthkfy4dbg" class="animable"></path><path d="M152.05,310.9a1.86,1.86,0,0,1-2.38,2.05c-1.35-.31-2.69-.59-2.69-.59a1.82,1.82,0,0,0,.28-.9,0,0,0,0,0-.09,0c-.62.77-2.69,1.11-2.69,1.11s.37-.54.15-1a.1.1,0,0,0-.18,0c-1.24,1.74-4.61,2.42-4.87,4.06.82,1.37,4.11,1.65,6.19,1a4,4,0,0,1,1-.18,3.23,3.23,0,0,1,1.19.13.14.14,0,0,0,.16-.2,2.28,2.28,0,0,0-.49-.51s1.15-.75,2.28-1.54,2.29-.4,2.26,1.05c.93-.35.43-2.27.43-2.27S153,311.19,152.05,310.9Z" style="fill: rgb(144, 202, 249); transform-origin: 146.157px 313.932px;" id="eltzbfd00uxwf" class="animable"></path><path d="M164.27,328.54a1.53,1.53,0,0,1-2.23,1.29c-1-.46-2.08-.88-2.08-.88a1.57,1.57,0,0,0,.37-.69s0-.06-.07,0a4.67,4.67,0,0,1-2.33.49s.38-.38.26-.76a.09.09,0,0,0-.15,0c-1.26,1.22-4.08,1.25-4.54,2.53.45,1.23,3.06,2,4.83,1.78a3.53,3.53,0,0,1,.86,0,2.88,2.88,0,0,1,.94.29.11.11,0,0,0,.16-.14,1.84,1.84,0,0,0-.32-.48s1-.43,2.08-.89,1.91,0,1.66,1.19c.8-.14.69-1.77.69-1.77S165,328.92,164.27,328.54Z" style="fill: rgb(144, 202, 249); transform-origin: 159.066px 330.279px;" id="elmh666o2b6d" class="animable"></path><path d="M143.12,217.9a1.53,1.53,0,0,1-2.4.92c-1-.61-1.92-1.19-1.92-1.19a1.54,1.54,0,0,0,.47-.62,0,0,0,0,0-.06,0,4.76,4.76,0,0,1-2.39.11s.44-.31.38-.7a.1.1,0,0,0-.14-.06c-1.44,1-4.23.6-4.88,1.8.25,1.28,2.71,2.41,4.49,2.51a3,3,0,0,1,.85.14,2.89,2.89,0,0,1,.88.43.11.11,0,0,0,.18-.11,1.64,1.64,0,0,0-.24-.52s1.1-.27,2.19-.56,1.88.32,1.45,1.43c.82,0,1-1.64,1-1.64S143.77,218.39,143.12,217.9Z" style="fill: rgb(144, 202, 249); transform-origin: 137.778px 218.915px;" id="elcggljjbghek" class="animable"></path><path d="M168.86,317.31a1.67,1.67,0,0,1-2,2c-1.25-.16-2.48-.29-2.48-.29a1.67,1.67,0,0,0,.18-.84,0,0,0,0,0-.08,0c-.5.75-2.33,1.23-2.33,1.23a1,1,0,0,0,.05-.88.1.1,0,0,0-.17,0c-1,1.68-3.94,2.58-4,4.08.86,1.16,3.85,1.13,5.66.4a3.84,3.84,0,0,1,.92-.26,3,3,0,0,1,1.08,0,.13.13,0,0,0,.13-.2,2,2,0,0,0-.48-.41s1-.78,1.92-1.59,2-.56,2.12.76c.81-.4.19-2.09.19-2.09S169.75,317.48,168.86,317.31Z" style="fill: rgb(144, 202, 249); transform-origin: 163.913px 320.418px;" id="elehcveqpwxp" class="animable"></path><path d="M166.27,295.72a1.69,1.69,0,0,1-2,2c-1.24-.16-2.47-.29-2.47-.29a1.7,1.7,0,0,0,.18-.84,0,0,0,0,0-.09,0c-.5.75-2.32,1.23-2.32,1.23a1,1,0,0,0,0-.88.09.09,0,0,0-.16,0c-1,1.68-3.94,2.58-4,4.08.86,1.16,3.85,1.14,5.67.4a3.69,3.69,0,0,1,.92-.25,3,3,0,0,1,1.08,0,.12.12,0,0,0,.13-.19,2,2,0,0,0-.49-.42s1-.78,1.92-1.58,2-.56,2.13.75c.81-.4.19-2.09.19-2.09S167.15,295.9,166.27,295.72Z" style="fill: rgb(144, 202, 249); transform-origin: 161.298px 298.83px;" id="els7ynnjyyrv" class="animable"></path><path d="M177.11,306.22a1.85,1.85,0,0,1-2.37,2c-1.35-.31-2.7-.58-2.7-.58a1.84,1.84,0,0,0,.29-.91.05.05,0,0,0-.09,0c-.63.78-2.69,1.11-2.69,1.11a1.07,1.07,0,0,0,.15-1,.12.12,0,0,0-.19,0c-1.23,1.75-4.6,2.42-4.86,4.06.82,1.37,4.1,1.66,6.18,1a4.13,4.13,0,0,1,1-.18,3.48,3.48,0,0,1,1.19.13.14.14,0,0,0,.16-.2,2.28,2.28,0,0,0-.49-.51s1.14-.75,2.28-1.54,2.29-.4,2.26,1.06c.93-.35.42-2.28.42-2.28S178.07,306.51,177.11,306.22Z" style="fill: rgb(144, 202, 249); transform-origin: 171.22px 309.229px;" id="elh7ljg7kethp" class="animable"></path></g><g id="freepik--Iceberg--inject-110" class="animable" style="transform-origin: 250px 225.315px;"><path d="M338.66,176.65c-29.55,0-29.55,8-59.11,8s-29.56-8-59.11-8-29.56,8-59.11,8l4.33-18.11L190,150.21l19.67-46.5,27.66-10.17,30-26.67,34.33,31,8,33,24.34,32Z" style="fill: rgb(144, 202, 249); transform-origin: 249.995px 125.76px;" id="elsydvzflo2l" class="animable"></path><g id="elr0w5ecynhj8"><path d="M338.66,176.65c-29.55,0-29.55,8-59.11,8s-29.56-8-59.11-8-29.56,8-59.11,8l4.33-18.11L190,150.21l19.67-46.5,27.66-10.17,30-26.67,34.33,31,8,33,24.34,32Z" style="fill: rgb(255, 255, 255); opacity: 0.7; transform-origin: 249.995px 125.76px;" class="animable"></path></g><g id="elmzsxk65ugf"><polygon points="209.67 103.71 212 135.04 235 108.87 237.33 93.54 209.67 103.71" style="fill: rgb(255, 255, 255); opacity: 0.8; transform-origin: 223.5px 114.29px;" class="animable"></polygon></g><g id="el6xvskpy5zm"><polygon points="237.33 150.21 212 135.04 235 108.87 255.33 108.87 237.33 150.21" style="fill: rgb(255, 255, 255); opacity: 0.5; transform-origin: 233.665px 129.54px;" class="animable"></polygon></g><g id="el1vbnfxd6p3q"><polygon points="237.33 150.21 212 135.04 201 145.54 193.5 165.71 237.33 150.21" style="fill: rgb(255, 255, 255); opacity: 0.7; transform-origin: 215.415px 150.375px;" class="animable"></polygon></g><g id="el018k20tvwqj8g"><polygon points="237.33 150.21 259.46 149.56 239.89 169.76 193.5 165.71 237.33 150.21" style="fill: rgb(255, 255, 255); opacity: 0.4; transform-origin: 226.48px 159.66px;" class="animable"></polygon></g><g id="elyl7zrqovono"><polygon points="281.11 161.45 259.46 149.56 245.19 164.29 274.33 174.43 281.11 161.45" style="fill: rgb(255, 255, 255); opacity: 0.2; transform-origin: 263.15px 161.995px;" class="animable"></polygon></g><g id="elqsgk8jqs9m"><polygon points="237.33 150.21 270.78 135.04 267.33 66.87 255.33 108.87 237.33 150.21" style="fill: rgb(255, 255, 255); opacity: 0.6; transform-origin: 254.055px 108.54px;" class="animable"></polygon></g><polygon points="237.33 150.21 270.78 135.04 300.92 159.87 271.67 149.21 237.33 150.21" style="fill: rgb(255, 255, 255); transform-origin: 269.125px 147.455px;" id="el94llbz5y6ts" class="animable"></polygon><g id="eljm99ncp50r"><polygon points="259.46 149.56 304.73 174.43 300.92 159.87 271.67 149.21 259.46 149.56" style="fill: rgb(255, 255, 255); opacity: 0.4; transform-origin: 282.095px 161.82px;" class="animable"></polygon></g><g id="elpfe5k0jsjog"><polygon points="292.17 104.71 268.81 96.18 267.33 66.87 301.66 97.87 292.17 104.71" style="fill: rgb(255, 255, 255); opacity: 0.8; transform-origin: 284.495px 85.79px;" class="animable"></polygon></g><polygon points="292.17 104.71 268.81 96.18 269.94 118.54 304.73 123.5 292.17 104.71" style="fill: rgb(255, 255, 255); transform-origin: 286.77px 109.84px;" id="eli9r2041vu5" class="animable"></polygon><g id="el9v8pcuklvxm"><polygon points="300.92 159.87 270.78 135.04 269.94 118.54 304.73 123.5 300.92 159.87" style="fill: rgb(255, 255, 255); opacity: 0.3; transform-origin: 287.335px 139.205px;" class="animable"></polygon></g><g id="el3anz0qf6119"><polygon points="301.61 153.21 334 162.87 309.66 130.87 304.73 123.5 301.61 153.21" style="fill: rgb(255, 255, 255); opacity: 0.6; transform-origin: 317.805px 143.185px;" class="animable"></polygon></g><g id="elp7jzkqdbly"><polygon points="301.67 97.87 292.17 104.71 309.67 130.87 301.67 97.87" style="fill: rgb(255, 255, 255); opacity: 0.6; transform-origin: 300.92px 114.37px;" class="animable"></polygon></g><g id="eljv7c2dk8rz"><polygon points="267.33 66.87 237.33 93.54 235 108.87 255.33 108.87 267.33 66.87" style="fill: rgb(255, 255, 255); opacity: 0.3; transform-origin: 251.165px 87.87px;" class="animable"></polygon></g><g id="elbt0mquzm6zj"><polygon points="209.67 103.71 190 150.21 193.5 165.71 201 145.54 212 135.04 209.67 103.71" style="fill: rgb(255, 255, 255); opacity: 0.5; transform-origin: 201px 134.71px;" class="animable"></polygon></g><g id="elgxr2mea6e0u"><polygon points="165.66 166.54 193.5 165.71 190 150.21 165.66 166.54" style="fill: rgb(255, 255, 255); opacity: 0.8; transform-origin: 179.58px 158.375px;" class="animable"></polygon></g><path d="M338.66,176.65c-29.55,0-29.55,8-59.11,8s-29.56-8-59.11-8-29.56,8-59.11,8l4.33,103.11L190,360.21l25.44,12.66h22.34l31.44,10.89,25.34-17.33,15.1-25.56L327.89,298Z" style="fill: rgb(144, 202, 249); transform-origin: 249.995px 280.205px;" id="el8bztbo15huy" class="animable"></path><g id="elx3czksdnzxg"><path d="M338.66,176.65c-29.55,0-29.55,8-59.11,8s-29.56-8-59.11-8-29.56,8-59.11,8l4.33,103.11L190,360.21l25.44,12.66h22.34l31.44,10.89,25.34-17.33,15.1-25.56L327.89,298Z" style="opacity: 0.2; transform-origin: 249.995px 280.205px;" class="animable"></path></g><g id="elcitbh4198fi"><polygon points="165.66 287.76 193.5 264.54 201 351.54 190 360.21 165.66 287.76" style="opacity: 0.4; transform-origin: 183.33px 312.375px;" class="animable"></polygon></g><g id="el76oh0qoidsg"><polygon points="224.27 250.72 193.5 264.54 201 351.54 261.22 316.87 224.27 250.72" style="opacity: 0.3; transform-origin: 227.36px 301.13px;" class="animable"></polygon></g><g id="elffzgaz30pr"><polygon points="224.27 250.72 275 283.54 284.63 319.38 261.22 316.87 224.27 250.72" style="opacity: 0.5; transform-origin: 254.45px 285.05px;" class="animable"></polygon></g><g id="elh62uoxtyl5v"><polygon points="276.08 217.65 275 283.54 284.63 319.38 313.03 283.8 276.08 217.65" style="opacity: 0.3; transform-origin: 294.015px 268.515px;" class="animable"></polygon></g><g id="eljb9qtjrbi4e"><polygon points="276.08 217.65 317.81 210.87 333.07 239.64 313.03 283.8 276.08 217.65" style="opacity: 0.2; transform-origin: 304.575px 247.335px;" class="animable"></polygon></g><g id="el2lmp1djoujo"><polygon points="317.81 210.87 333.07 239.64 336.25 203.78 317.81 210.87" style="opacity: 0.1; transform-origin: 327.03px 221.71px;" class="animable"></polygon></g><g id="el3f0ewu188t"><polygon points="276.08 217.65 275 283.54 224.27 250.72 252.67 215.14 276.08 217.65" style="opacity: 0.2; transform-origin: 250.175px 249.34px;" class="animable"></polygon></g><g id="elr0b80hq3guk"><polygon points="190.54 202.62 193.5 264.54 224.27 250.72 252.67 215.14 190.54 202.62" style="opacity: 0.1; transform-origin: 221.605px 233.58px;" class="animable"></polygon></g><g id="elumuc9a7nljc"><polygon points="190.54 202.62 176.16 188.54 227.91 189.91 252.67 215.14 190.54 202.62" style="opacity: 0.05; transform-origin: 214.415px 201.84px;" class="animable"></polygon></g><g id="elnl904dg17a"><polygon points="276.08 217.65 317.81 210.87 227.91 189.91 252.67 215.14 276.08 217.65" style="opacity: 0.1; transform-origin: 272.86px 203.78px;" class="animable"></polygon></g><g id="elwze0ygjjjc"><polygon points="336.25 203.78 317.81 210.87 261.97 197.85 321.5 185.71 336.25 203.78" style="opacity: 0.05; transform-origin: 299.11px 198.29px;" class="animable"></polygon></g><g id="el4e33qrm0fvt"><polygon points="190.54 202.62 193.5 264.54 165.66 287.76 163.62 239.19 190.54 202.62" style="opacity: 0.2; transform-origin: 178.56px 245.19px;" class="animable"></polygon></g><g id="elvz4q24hr9md"><polygon points="190.54 202.62 176.16 188.54 161.79 195.51 163.62 239.19 190.54 202.62" style="opacity: 0.1; transform-origin: 176.165px 213.865px;" class="animable"></polygon></g><g id="el5s2zizi1i1m"><polygon points="327.89 297.98 297 320.71 284.63 319.38 313.03 283.8 327.89 297.98" style="opacity: 0.4; transform-origin: 306.26px 302.255px;" class="animable"></polygon></g><g id="elizwu5jxknc"><polygon points="297 320.71 309.67 340.87 327.89 297.98 297 320.71" style="opacity: 0.5; transform-origin: 312.445px 319.425px;" class="animable"></polygon></g><g id="el6ypbzgzxy9n"><polygon points="313.03 283.8 333.07 239.64 327.89 297.98 313.03 283.8" style="opacity: 0.3; transform-origin: 323.05px 268.81px;" class="animable"></polygon></g><g id="elczjjsyhgena"><polygon points="215.44 372.87 261.22 316.87 201 351.54 190 360.21 215.44 372.87" style="opacity: 0.5; transform-origin: 225.61px 344.87px;" class="animable"></polygon></g><g id="elkxqr5umrms"><polygon points="215.44 372.87 261.22 316.87 275 358.43 236.78 372.87 215.44 372.87" style="opacity: 0.7; transform-origin: 245.22px 344.87px;" class="animable"></polygon></g><g id="el3c5ae9pdgv2"><polygon points="297 320.71 261.22 316.87 275 358.43 309.66 340.87 297 320.71" style="opacity: 0.4; transform-origin: 285.44px 337.65px;" class="animable"></polygon></g><g id="elymzsnpd7f99"><polygon points="275 358.43 294.56 366.43 309.67 340.87 275 358.43" style="opacity: 0.5; transform-origin: 292.335px 353.65px;" class="animable"></polygon></g><g id="elwfnneibnl7"><polygon points="269.22 383.76 294.56 366.43 275 358.43 236.78 372.87 269.22 383.76" style="opacity: 0.8; transform-origin: 265.67px 371.095px;" class="animable"></polygon></g><path d="M155.41,160.94v-.25c4.65,0,16.35-4.44,16.35-14.62H172C172,155.75,161.21,160.9,155.41,160.94Z" style="fill: rgb(144, 202, 249); transform-origin: 163.705px 153.505px;" id="elj59qugditbc" class="animable"></path><path d="M162.54,166.14a1.28,1.28,0,0,1-1.28-1.29v-2h-8.59v3.29h-.95V163h-.8a1.25,1.25,0,0,0-1.25,1.25v3a1.24,1.24,0,0,0,1.25,1.24h.14v.19h1.61l8.59,7.76H165v-8.48a1.75,1.75,0,0,0-1.76-1.75Z" style="fill: rgb(38, 50, 56); transform-origin: 157.335px 169.645px;" id="el9mhpwsqi5o" class="animable"></path><path d="M144.87,160.82v17.12h19.58V160.82Zm18.54,6.26a1.16,1.16,0,0,1-1.16,1.16H151a1.16,1.16,0,0,1-1.16-1.16v-2.75a1.16,1.16,0,0,1,1.16-1.16h11.21a1.16,1.16,0,0,1,1.16,1.16Z" style="fill: rgb(144, 202, 249); transform-origin: 154.66px 169.38px;" id="eld6u3smughp" class="animable"></path><path d="M171.89,163.4h0a1,1,0,0,0-.95.95v14.93a.94.94,0,0,0,.95.95h0a1,1,0,0,0,1-.95V164.35A1,1,0,0,0,171.89,163.4Z" style="fill: rgb(144, 202, 249); transform-origin: 171.915px 171.815px;" id="elzberflgojx9" class="animable"></path><path d="M171.89,144.5h0a.34.34,0,0,0-.34.34v25.3a.34.34,0,0,0,.34.34h0a.34.34,0,0,0,.34-.34v-25.3A.34.34,0,0,0,171.89,144.5Z" style="fill: rgb(144, 202, 249); transform-origin: 171.89px 157.49px;" id="el1s53ovathzb" class="animable"></path><path d="M139.53,160.36h0a.34.34,0,0,0-.34.34v17.36a.34.34,0,0,0,.34.34h0a.34.34,0,0,0,.34-.34V160.7A.34.34,0,0,0,139.53,160.36Z" style="fill: rgb(144, 202, 249); transform-origin: 139.53px 169.38px;" id="eljxdii4hufdl" class="animable"></path><path d="M158.93,172a2.28,2.28,0,1,1-2.28,2.28,2.29,2.29,0,0,1,2.28-2.28m0-1a3.28,3.28,0,1,0,3.28,3.28,3.28,3.28,0,0,0-3.28-3.28Z" style="fill: rgb(255, 255, 255); transform-origin: 158.93px 174.28px;" id="elje4kvnp09m9" class="animable"></path><g id="elqg2dltefaj"><path d="M162.25,163.17a1.16,1.16,0,0,1,1.16,1.16v2.75a1.16,1.16,0,0,1-1.16,1.16H151a1.16,1.16,0,0,1-1.16-1.16v-2.75a1.16,1.16,0,0,1,1.16-1.16h11.21m0-.5H151a1.66,1.66,0,0,0-1.66,1.66v2.75a1.66,1.66,0,0,0,1.66,1.66h11.21a1.66,1.66,0,0,0,1.66-1.66v-2.75a1.66,1.66,0,0,0-1.66-1.66Z" style="fill: rgb(255, 255, 255); opacity: 0.4; transform-origin: 156.605px 165.705px;" class="animable"></path></g><g id="el9mlmiw8j16v"><rect x="144.87" y="160.82" width="3.97" height="17.12" style="fill: rgb(255, 255, 255); opacity: 0.4; transform-origin: 146.855px 169.38px;" class="animable"></rect></g><path d="M128.67,171.76c6.89,10.22,14.53,12.89,36,12.89,9.45,0,23.67-2.67,23.67-12.89-3.94,2.78-11.29,5.83-25,5.83C148.45,177.59,141.12,169,128.67,171.76Z" style="fill: rgb(144, 202, 249); transform-origin: 158.505px 177.932px;" id="elf7n1f05ypq7" class="animable"></path><g id="eljthsgojnrrd"><path d="M128.67,171.76c6.89,10.22,14.53,12.89,36,12.89,9.45,0,23.67-2.67,23.67-12.89-3.94,2.78-11.29,5.83-25,5.83C148.45,177.59,141.12,169,128.67,171.76Z" style="fill: rgb(255, 255, 255); opacity: 0.4; transform-origin: 158.505px 177.932px;" class="animable"></path></g><path d="M163.39,178.59c-7.06,0-12.56-1.9-17.4-3.57-5.73-2-10.68-3.69-17.1-2.28a1,1,0,0,1-1.19-.76,1,1,0,0,1,.76-1.2c7-1.52,12.42.36,18.18,2.35,4.93,1.7,10,3.46,16.75,3.46,13.52,0,20.72-3.07,24.37-5.65a1,1,0,0,1,1.4.25,1,1,0,0,1-.24,1.39C183.25,176.57,174.66,178.59,163.39,178.59Z" style="fill: rgb(144, 202, 249); transform-origin: 158.508px 174.408px;" id="elvw4wgqeg1cm" class="animable"></path><path d="M164.69,161.36H144.63a.54.54,0,0,1-.54-.54h0a.54.54,0,0,1,.54-.54h20.06a.54.54,0,0,1,.54.54h0A.54.54,0,0,1,164.69,161.36Z" style="fill: rgb(38, 50, 56); transform-origin: 154.66px 160.82px;" id="elm3u7hnqs8x" class="animable"></path><path d="M173.31,145.65h-2.84a.16.16,0,0,1-.17-.17h0a.16.16,0,0,1,.17-.16h2.84a.17.17,0,0,1,.17.16h0A.17.17,0,0,1,173.31,145.65Z" style="fill: rgb(144, 202, 249); transform-origin: 171.89px 145.485px;" id="el2a2iunlul72" class="animable"></path><path d="M181.14,174.52a8.61,8.61,0,0,1-5.53-2.18c-2.37-2-3.85-5-3.85-6.64H172c0,1.57,1.44,4.48,3.76,6.45a8.09,8.09,0,0,0,6.61,2l0,.25A8.16,8.16,0,0,1,181.14,174.52Z" style="fill: rgb(144, 202, 249); transform-origin: 177.065px 170.11px;" id="elr1831t7zooe" class="animable"></path><path d="M397.78,185.15a97.89,97.89,0,0,1-29.69-4,97.12,97.12,0,0,0-29.43-4,97.09,97.09,0,0,0-29.42,4,97.94,97.94,0,0,1-29.69,4,97.94,97.94,0,0,1-29.69-4,97.09,97.09,0,0,0-29.42-4,97.22,97.22,0,0,0-29.43,4,97.81,97.81,0,0,1-29.68,4,97.81,97.81,0,0,1-29.68-4,97.22,97.22,0,0,0-29.43-4,.5.5,0,0,1,0-1,97.89,97.89,0,0,1,29.69,4,97.09,97.09,0,0,0,29.42,4,97.09,97.09,0,0,0,29.42-4,97.89,97.89,0,0,1,29.69-4,97.81,97.81,0,0,1,29.68,4,97.22,97.22,0,0,0,29.43,4,97.22,97.22,0,0,0,29.43-4,97.81,97.81,0,0,1,29.68-4,97.89,97.89,0,0,1,29.69,4,97.22,97.22,0,0,0,29.43,4,.5.5,0,0,1,0,1Z" style="fill: rgb(144, 202, 249); transform-origin: 250px 180.65px;" id="elrt314op41l8" class="animable"></path><path d="M320.12,193.21a17.69,17.69,0,0,1-5.31-.72,18.83,18.83,0,0,0-10.1,0,20,20,0,0,1-10.63,0,16.52,16.52,0,0,0-5.05-.69.5.5,0,0,1-.5-.5.5.5,0,0,1,.5-.5,17.69,17.69,0,0,1,5.31.72,18.83,18.83,0,0,0,10.1,0,20,20,0,0,1,10.63,0,16.52,16.52,0,0,0,5.05.69.5.5,0,0,1,.5.5A.5.5,0,0,1,320.12,193.21Z" style="fill: rgb(255, 255, 255); transform-origin: 304.575px 192.005px;" id="el0fr618bt7fjm" class="animable"></path><path d="M197.05,195.66a9.08,9.08,0,0,1-2.72-.36,9.11,9.11,0,0,0-4.93,0,9,9,0,0,1-2.72.36,9.08,9.08,0,0,1-2.72-.36,8,8,0,0,0-2.46-.34.5.5,0,0,1-.5-.5.5.5,0,0,1,.5-.5,9,9,0,0,1,2.72.37,9.33,9.33,0,0,0,4.92,0,10.22,10.22,0,0,1,5.45,0,8.07,8.07,0,0,0,2.46.33.51.51,0,0,1,.5.5A.5.5,0,0,1,197.05,195.66Z" style="fill: rgb(255, 255, 255); transform-origin: 189.275px 194.81px;" id="eldytlbh7zdhu" class="animable"></path><path d="M229.46,186.91a17.71,17.71,0,0,1-5.32-.72,16.52,16.52,0,0,0-5-.69.5.5,0,0,1-.5-.5.5.5,0,0,1,.5-.5,17.58,17.58,0,0,1,5.31.72,18.86,18.86,0,0,0,10.11,0,17.58,17.58,0,0,1,5.31-.72.5.5,0,0,1,.5.5.5.5,0,0,1-.5.5,16.52,16.52,0,0,0-5,.69A17.69,17.69,0,0,1,229.46,186.91Z" style="fill: rgb(255, 255, 255); transform-origin: 229.505px 185.706px;" id="elp5p0uevu4zl" class="animable"></path></g><g id="freepik--killer-whale--inject-110" class="animable" style="transform-origin: 336.269px 231.058px;"><path d="M300.52,235.93c4.85-1.67,5.51-4.13,5.73-6.16s3.23,2.08,2.92,4.61,5.1,6.92,14.16,3.47c5.24-2,10.24-5.56,15.79-9.61-1.73-3-10-.91-6-4,4.8-3.63,10.47-1.33,22-6.89,9.48-5.92,12.22-7.9,20.81-7.88,4.7-1.15,8.53-1.17,7.88,3.43-.43,3.12-2.9,9.81-10.06,17,0,.74,0,1.59,0,2.61,0,4.84-4.13,13.64-5.72,11.28-1.3-1.94.64-6.35.67-9.44a69.38,69.38,0,0,1-8.67,5.81c-18,10.29-35.29,10.65-43,7.84-8.47-3.08-10.85-11-14.74-9.25s-4.26,6.6-13.14,4.43C286.18,242.46,295.66,237.59,300.52,235.93Z" style="fill: rgb(38, 50, 56); transform-origin: 336.234px 229.165px;" id="el658ddkvryxg" class="animable"></path><path d="M321.53,243.74c4.71-2.08,11.08,7.11,29.5-2.49s13.15-13.59,12.24-18.08,2.47-8.88,3.08-7.35,2.94-.25,7.91-3.64c2.73-1.86,5.77-3.2,8.45-2.75a3.81,3.81,0,0,1,.32.24,2.83,2.83,0,0,1,.32.36,1,1,0,0,1,.17.27,4.15,4.15,0,0,1,.3,2.63,20.1,20.1,0,0,1-1.79,5.5c-.22.51-.49,1-.79,1.6a39.49,39.49,0,0,1-3.89,5.87c-.7.89-1.49,1.8-2.35,2.73a55.83,55.83,0,0,1-6.1,5.62c-.83.67-1.72,1.34-2.66,2s-1.91,1.33-2.93,2-2.11,1.31-3.24,2c-11.75,6.71-23.17,9.19-31.84,9.33C325.08,246.79,318.27,245.19,321.53,243.74Z" style="fill: rgb(255, 255, 255); transform-origin: 352.29px 229.461px;" id="elfyowtpuahk" class="animable"></path><path d="M328.23,249.76a.28.28,0,0,1-.16-.06,22.32,22.32,0,0,0-4.31-2.6c-1.95-1-3.36-1.71-3.34-2.55,0-.4.34-.74,1-1h0c1.61-.71,3.39-.18,5.64.5,4.58,1.37,11.49,3.45,23.85-3,15.46-8.06,14.07-12,12.72-15.76a16.14,16.14,0,0,1-.62-2.05c-.74-3.67,1.33-7.51,2.7-7.93a.68.68,0,0,1,.87.43c.11.28.25.35.35.38.81.24,2.88-1.17,6-3.32l1.18-.81c3.32-2.26,6.22-3.2,8.63-2.78a.17.17,0,0,1,.1,0l.34.26a3.51,3.51,0,0,1,.36.4,1.23,1.23,0,0,1,.19.31,4.4,4.4,0,0,1,.33,2.78,20.23,20.23,0,0,1-1.81,5.56c-.21.47-.46,1-.8,1.62a39.76,39.76,0,0,1-3.92,5.91c-.67.86-1.46,1.78-2.35,2.74a57.09,57.09,0,0,1-6.13,5.64c-.84.68-1.74,1.35-2.67,2s-1.95,1.34-2.95,2-2.18,1.36-3.25,2c-13.89,7.92-26,9.26-32,9.36Zm-6.6-5.79c-.45.2-.7.41-.71.59,0,.52,1.55,1.32,3.07,2.09a24.13,24.13,0,0,1,4.33,2.6c6-.1,17.9-1.46,31.63-9.29,1.06-.6,2.11-1.23,3.22-1.94s2-1.3,2.93-2,1.82-1.33,2.65-2a56,56,0,0,0,6.07-5.59c.88-1,1.66-1.86,2.33-2.71a39.57,39.57,0,0,0,3.87-5.84c.33-.62.58-1.12.78-1.58a19.52,19.52,0,0,0,1.77-5.43,4,4,0,0,0-.27-2.48,1,1,0,0,0-.15-.24,2.44,2.44,0,0,0-.29-.33l-.24-.18c-2.28-.37-5,.55-8.21,2.71l-1.18.81c-3.48,2.39-5.39,3.71-6.44,3.38a1,1,0,0,1-.67-.66c-.06-.16-.14-.17-.25-.14-1,.31-3.06,3.87-2.36,7.35a14.43,14.43,0,0,0,.61,2c1.34,3.81,2.87,8.12-13,16.37-12.54,6.53-19.57,4.42-24.23,3-2.23-.67-3.84-1.16-5.29-.52Z" style="fill: rgb(38, 50, 56); transform-origin: 352.286px 229.451px;" id="elkbiku39o5pl" class="animable"></path><path d="M327.39,249.74a31.74,31.74,0,0,1-10.4-1.48c-4.24-1.55-6.94-4.25-9.11-6.42s-3.63-3.64-5.44-2.84a10.16,10.16,0,0,0-2.81,2.08c-2,1.93-4.15,3.92-10.49,2.36-.62-.15-.76-.46-.77-.7-.08-1.78,8.34-5.77,12.06-7.05h0c4.51-1.55,5.34-3.77,5.57-5.94a.69.69,0,0,1,1.21-.54,7,7,0,0,1,2.21,5.2,3.34,3.34,0,0,0,1.55,2.66c1,.82,5,3.29,12.27.55,5-1.89,9.6-5.11,15.54-9.45-.84-1.14-2.86-1.39-4.5-1.6-1.34-.17-2.3-.3-2.46-.88-.11-.42.24-.91,1.18-1.62,2.29-1.73,4.78-2.14,7.93-2.66A46.09,46.09,0,0,0,355,217.15l1.27-.8c8.49-5.3,11.37-7.1,19.54-7.1h.11c3.79-.93,6.05-.86,7.27.24a3.76,3.76,0,0,1,.86,3.47c-.52,3.72-3.46,10.41-10.06,17.06,0,.72,0,1.53,0,2.51,0,4.15-3,11.25-5,11.87a1,1,0,0,1-1.16-.46c-.87-1.29-.41-3.47.07-5.78a25.73,25.73,0,0,0,.54-3.26,72,72,0,0,1-8.27,5.5C347.89,247.41,336.06,249.74,327.39,249.74Zm-24-11.46c1.61,0,3.06,1.45,4.81,3.2,2.13,2.14,4.79,4.8,8.93,6.31,7.12,2.6,24.39,2.66,42.78-7.82a69.93,69.93,0,0,0,8.64-5.8.25.25,0,0,1,.26,0,.27.27,0,0,1,.14.23,20.89,20.89,0,0,1-.57,3.89c-.44,2.11-.89,4.29-.14,5.41.22.32.43.3.59.25,1.67-.51,4.69-7.29,4.67-11.38,0-1,0-1.88,0-2.61a.21.21,0,0,1,.07-.18c6.56-6.59,9.49-13.2,10-16.85.2-1.44,0-2.43-.71-3-1.06-1-3.25-1-6.87-.12h-.06c-8.13,0-11,1.78-19.38,7l-1.3.81A46.79,46.79,0,0,1,341,221.9c-3.08.51-5.51.91-7.71,2.57-1,.77-1,1-1,1.09.07.26,1.17.4,2,.51,1.84.23,4.12.53,5,2a.26.26,0,0,1-.07.33c-6.07,4.43-10.75,7.71-15.85,9.65-7.47,2.84-11.65.24-12.76-.63a3.69,3.69,0,0,1-1.73-3.11,6.6,6.6,0,0,0-2-4.73c-.18-.14-.28-.15-.3-.14s-.09.09-.11.32c-.25,2.34-1.14,4.72-5.9,6.36h0c-4.68,1.61-11.79,5.4-11.73,6.55,0,.14.24.21.39.25,6.08,1.49,8.09-.41,10-2.24a10.62,10.62,0,0,1,2.95-2.18A2.91,2.91,0,0,1,303.43,238.28Zm-2.91-2.35Z" style="fill: rgb(38, 50, 56); transform-origin: 336.269px 229.177px;" id="el9imz65goj5k" class="animable"></path><path d="M355.45,235c-2.11,2.86-1.94,3.85-3.17,8.53s-7.51,12.1-8.43,9.41,3.8-7.73,3.24-10.81a12,12,0,0,1,.33-5.6Z" style="fill: rgb(38, 50, 56); transform-origin: 349.59px 244.256px;" id="el1pgnm78f0ey" class="animable"></path><path d="M362.35,217a6.46,6.46,0,0,1-5.13,6.75c-4.14,1-2.72-1.2-.6-2.69S362.23,214.71,362.35,217Z" style="fill: rgb(255, 255, 255); transform-origin: 358.463px 220.199px;" id="el9644y720zyt" class="animable"></path></g><g id="freepik--Sky--inject-110" class="animable" style="transform-origin: 241.717px 90.7102px;"><g id="elr2iqe7dpjgk"><circle cx="190.54" cy="62.57" r="16.1" style="fill: rgb(144, 202, 249); opacity: 0.05; transform-origin: 190.54px 62.57px;" class="animable"></circle></g><g id="elhooikwih38h"><circle cx="190.54" cy="62.57" r="21.46" style="fill: rgb(144, 202, 249); opacity: 0.05; transform-origin: 190.54px 62.57px;" class="animable"></circle></g><circle cx="190.54" cy="62.57" r="10.66" style="fill: rgb(144, 202, 249); transform-origin: 190.54px 62.57px;" id="el7iv3f9e1vrj" class="animable"></circle><g id="ellq9qfj8zl7"><circle cx="190.54" cy="62.57" r="10.66" style="fill: rgb(255, 255, 255); opacity: 0.8; transform-origin: 190.54px 62.57px;" class="animable"></circle></g><path d="M163,104a8.82,8.82,0,0,0-6.59-7.12A11.57,11.57,0,0,0,141.32,90a15.77,15.77,0,0,0-28.48-.36A11.57,11.57,0,0,0,99,96.19a8.81,8.81,0,0,0-13.65,7.37,8.69,8.69,0,0,0,.59,3.15C78.69,108.58,72.42,112,75.37,115h96.69C176,107.48,169.13,105,163,104Z" style="fill: rgb(144, 202, 249); transform-origin: 123.922px 97.9116px;" id="el6njin90l83g" class="animable"></path><g id="elpqzvmatei9"><path d="M163,104a8.82,8.82,0,0,0-6.59-7.12A11.57,11.57,0,0,0,141.32,90a15.77,15.77,0,0,0-28.48-.36A11.57,11.57,0,0,0,99,96.19a8.81,8.81,0,0,0-13.65,7.37,8.69,8.69,0,0,0,.59,3.15C78.69,108.58,72.42,112,75.37,115h96.69C176,107.48,169.13,105,163,104Z" style="fill: rgb(255, 255, 255); opacity: 0.7; transform-origin: 123.922px 97.9116px;" class="animable"></path></g><path d="M334,69.86A2.81,2.81,0,0,1,336,67.62a3.65,3.65,0,0,1,4.76-2.16,5,5,0,0,1,9-.11,3.53,3.53,0,0,1,1-.14,3.64,3.64,0,0,1,3.35,2.21,2.78,2.78,0,0,1,4.3,2.32,2.9,2.9,0,0,1-.18,1c2.29.59,4.27,1.68,3.34,2.6H331.11C329.87,71,332,70.19,334,69.86Z" style="fill: rgb(144, 202, 249); transform-origin: 346.273px 67.9618px;" id="elf2skendhiy" class="animable"></path><g id="el5vyn81qif07"><path d="M334,69.86A2.81,2.81,0,0,1,336,67.62a3.65,3.65,0,0,1,4.76-2.16,5,5,0,0,1,9-.11,3.53,3.53,0,0,1,1-.14,3.64,3.64,0,0,1,3.35,2.21,2.78,2.78,0,0,1,4.3,2.32,2.9,2.9,0,0,1-.18,1c2.29.59,4.27,1.68,3.34,2.6H331.11C329.87,71,332,70.19,334,69.86Z" style="fill: rgb(255, 255, 255); opacity: 0.7; transform-origin: 346.273px 67.9618px;" class="animable"></path></g><path d="M401.22,127.06a5,5,0,0,0-6.49-6,6.76,6.76,0,0,0-10-2.67,7.81,7.81,0,0,0-14.19,4.52c0,.09,0,.17,0,.26h-.2a3.78,3.78,0,0,0-3.78,3.78,3.86,3.86,0,0,0,.48,1.85c-2.34.83-4,2-2.92,3.05h41.51C407.43,128.44,403.94,127.45,401.22,127.06Z" style="fill: rgb(144, 202, 249); transform-origin: 384.954px 123.467px;" id="el5335aygx7r8" class="animable"></path><g id="el3lvcngrg3fh"><path d="M401.22,127.06a5,5,0,0,0-6.49-6,6.76,6.76,0,0,0-10-2.67,7.81,7.81,0,0,0-14.19,4.52c0,.09,0,.17,0,.26h-.2a3.78,3.78,0,0,0-3.78,3.78,3.86,3.86,0,0,0,.48,1.85c-2.34.83-4,2-2.92,3.05h41.51C407.43,128.44,403.94,127.45,401.22,127.06Z" style="fill: rgb(255, 255, 255); opacity: 0.7; transform-origin: 384.954px 123.467px;" class="animable"></path></g><path d="M313.65,42c-8.51-5.67-13.59-3.2-16-.93,4.43-.32,12.82.18,16,2.18,3.31-1.27,11.51.12,15.85,1.43C327.42,42,322.69,38.37,313.65,42Z" style="fill: rgb(144, 202, 249); transform-origin: 313.575px 41.6052px;" id="elgjpgth6y3d7" class="animable"></path><path d="M397.81,96.45c-5.88-3.92-9.4-2.21-11-.64,3.06-.22,8.87.12,11,1.51,2.3-.88,8,.08,11,1C407.34,96.39,404.07,93.91,397.81,96.45Z" style="fill: rgb(144, 202, 249); transform-origin: 397.81px 96.1862px;" id="el6eob1aalht" class="animable"></path><path d="M131.29,141.46c-6.19-2.56-9.14-.33-10.37,1.43,2.8-.77,8.26-1.52,10.53-.63,2-1.23,7.41-1.38,10.37-1.09C140.13,139.65,136.63,138,131.29,141.46Z" style="fill: rgb(144, 202, 249); transform-origin: 131.37px 141.152px;" id="elk15nwj0fmr" class="animable"></path></g><defs>     <filter id="active" height="200%">         <feMorphology in="SourceAlpha" result="DILATED" operator="dilate" radius="2"></feMorphology>                <feFlood flood-color="#32DFEC" flood-opacity="1" result="PINK"></feFlood>        <feComposite in="PINK" in2="DILATED" operator="in" result="OUTLINE"></feComposite>        <feMerge>            <feMergeNode in="OUTLINE"></feMergeNode>            <feMergeNode in="SourceGraphic"></feMergeNode>        </feMerge>    </filter>    <filter id="hover" height="200%">        <feMorphology in="SourceAlpha" result="DILATED" operator="dilate" radius="2"></feMorphology>                <feFlood flood-color="#ff0000" flood-opacity="0.5" result="PINK"></feFlood>        <feComposite in="PINK" in2="DILATED" operator="in" result="OUTLINE"></feComposite>        <feMerge>            <feMergeNode in="OUTLINE"></feMergeNode>            <feMergeNode in="SourceGraphic"></feMergeNode>        </feMerge>            <feColorMatrix type="matrix" values="0   0   0   0   0                0   1   0   0   0                0   0   0   0   0                0   0   0   1   0 "></feColorMatrix>    </filter></defs></svg>
